<?xml version="1.0" encoding="utf-8"?>
<!-- Generator: Adobe Illustrator 19.2.0, SVG Export Plug-In . SVG Version: 6.00 Build 0)  -->
<svg version="1.1" id="Layer_1" xmlns="http://www.w3.org/2000/svg" xmlns:xlink="http://www.w3.org/1999/xlink" x="0px" y="0px"
	 viewBox="0 0 32 32" style="enable-background:new 0 0 32 32;" xml:space="preserve">
<path fill="#084298" d="M28,4v2h-4V4h-2v2H10V4H8v2H4V4H2v22h2v-2h4v2h2v-2h12v2h2v-2h4v2h2V4H28z M4,8h4v2H4V8z M4,12h4v2H4V12z M4,16
	h4v2H4V16z M4,22v-2h4v2H4z M22,22H10v-6h12V22z M22,14H10V8h12V14z M28,22h-4v-2h4V22z M28,18h-4v-2h4V18z M28,14h-4v-2h4V14z
	 M28,10h-4V8h4V10z"/>
</svg>

