<?xml version="1.0" encoding="utf-8"?>
<!-- Generator: Adobe Illustrator 19.2.0, SVG Export Plug-In . SVG Version: 6.00 Build 0)  -->
<svg version="1.1" id="Layer_1" xmlns="http://www.w3.org/2000/svg" xmlns:xlink="http://www.w3.org/1999/xlink" x="0px" y="0px"
	 viewBox="0 0 32 32" style="enable-background:new 0 0 32 32;" xml:space="preserve">
<path fill="#084298" d="M16,0C7.2,0,0,7.2,0,16s7.2,16,16,16s16-7.2,16-16S24.8,0,16,0z M23,14c0,1.3,0,2.7,0,4c0,0-5,0-5,0
	c-0.7,1.7-1.2,3-2.2,4.5c-1.1,1.4-2.5,2.7-4.1,3.2C10.8,25.9,10,26,9.1,26c0,0-0.1,0-0.1,0c0-1.3,0-2.7,0-4c0.2,0,2.1,0,3.1-1
	c0.7-0.7,1.3-1.5,1.8-2.4c0.7-1.3,1.2-2.8,1.7-4.2c0.6-1.8,1.4-3.4,2.5-5c0.8-1.1,1.9-2,3.1-2.6c0.8-0.4,1.6-0.6,2.4-0.7
	C24,6.1,24,6,25,6c0,0.2,0,0.3,0,0.4c0,1.1,0,2.5,0,3.6c0,0.1-2.2-0.3-3.8,1.8c-0.5,0.7-0.9,1.4-1.2,2.2C21,14,22,14,23,14z"/>
</svg>

