<?xml version="1.0" encoding="utf-8"?>

<svg version="1.1" xmlns="http://www.w3.org/2000/svg" xmlns:xlink="http://www.w3.org/1999/xlink" width="538" height="152">
<g transform="translate(216, 66)">
<g xmlns="http://www.w3.org/2000/svg">
	<polygon fill="#757575" points="14,14 15,13 13,11 15,9 14,8 12,10 10,8 9,9 11,11 9,13 10,14 12,12 	" />
</g>
<polygon fill="#757575" points="0,2 10,2 10,4 6,7 6,12 4,14 4,7 0,4 " xmlns="http://www.w3.org/2000/svg" />
</g>
<g transform="translate(18, 66)">
<g xmlns="http://www.w3.org/2000/svg">
	<polygon fill="#BDBDBD" points="14,14 15,13 13,11 15,9 14,8 12,10 10,8 9,9 11,11 9,13 10,14 12,12 	" />
</g>
<polygon fill="#BDBDBD" points="0,2 10,2 10,4 6,7 6,12 4,14 4,7 0,4 " xmlns="http://www.w3.org/2000/svg" />
</g>
<g transform="translate(90, 66)">
<g xmlns="http://www.w3.org/2000/svg">
	<polygon fill="#757575" points="11,2 10,3 12,5 10,7 11,8 13,6 15,8 16,7 14,5 16,3 15,2 13,4 	" />
</g>
<rect y="3" fill="#757575" width="8" height="4" xmlns="http://www.w3.org/2000/svg" />
<rect x="4" y="10" fill="#757575" width="12" height="4" xmlns="http://www.w3.org/2000/svg" />
</g>
<g transform="translate(234, 66)">
<g xmlns="http://www.w3.org/2000/svg">
	<polygon fill="#BDBDBD" points="11,2 10,3 12,5 10,7 11,8 13,6 15,8 16,7 14,5 16,3 15,2 13,4 	" />
</g>
<rect y="3" fill="#BDBDBD" width="8" height="4" xmlns="http://www.w3.org/2000/svg" />
<rect x="4" y="10" fill="#BDBDBD" width="12" height="4" xmlns="http://www.w3.org/2000/svg" />
</g>
<g transform="translate(424, 24)">
<path fill="#757575" d="M1,1v14h14V1H1z M12,9H9v3H7V9H4V7h3V4h2v3h3V9z" xmlns="http://www.w3.org/2000/svg" />
</g>
<g transform="translate(270, 66)">
<path fill="#BDBDBD" d="M1,1v14h14V1H1z M12,9H9v3H7V9H4V7h3V4h2v3h3V9z" xmlns="http://www.w3.org/2000/svg" />
</g>
<g transform="translate(162, 66)">
<path fill="#757575" d="M1,1v14h14V1H1z M12,9H9v3H7V9H4V7h3V4h2v3h3V9z" xmlns="http://www.w3.org/2000/svg" />
</g>
<g transform="translate(442, 24)">
<path fill="#BDBDBD" d="M1,1v14h14V1H1z M12,9H9v3H7V9H4V7h3V4h2v3h3V9z" xmlns="http://www.w3.org/2000/svg" />
</g>
<g transform="translate(504, 102)">
<polygon fill="#DC4C40" points="14,4 12,2 8,6 4,2 2,4 6,8 2,12 4,14 8,10 12,14 14,12 10,8 " xmlns="http://www.w3.org/2000/svg" />
</g>
<g transform="translate(406, 24)">
<polygon fill="#BDBDBD" points="14,4 12,2 8,6 4,2 2,4 6,8 2,12 4,14 8,10 12,14 14,12 10,8 " xmlns="http://www.w3.org/2000/svg" />
</g>
<g transform="translate(136, 24)">
<g xmlns="http://www.w3.org/2000/svg">
	<path fill="#757575" d="M10,2l-8,8v4h3.9L14,6L10,2z M5,13l-2-2l6-6l2,2L5,13z" />
	<rect x="9" y="13" fill="#757575" width="5" height="1" />
</g>
</g>
<g transform="translate(298, 24)">
<g xmlns="http://www.w3.org/2000/svg">
	<path fill="#BDBDBD" d="M10,2l-8,8v4h3.9L14,6L10,2z M5,13l-2-2l6-6l2,2L5,13z" />
	<rect x="9" y="13" fill="#BDBDBD" width="5" height="1" />
</g>
</g>
<g transform="translate(172, 24)">
<path fill="#757575" d="M1,1v14h14V1H1z M12,9H4V7h8V9z" xmlns="http://www.w3.org/2000/svg" />
</g>
<g transform="translate(154, 24)">
<path fill="#BDBDBD" d="M1,1v14h14V1H1z M12,9H4V7h8V9z" xmlns="http://www.w3.org/2000/svg" />
</g>
<g transform="translate(208, 24)">
<path fill="#757575" d="M1,1v14h14V1H1z M12,9H4V7h8V9z" xmlns="http://www.w3.org/2000/svg" />
</g>
<g transform="translate(190, 24)">
<path fill="#BDBDBD" d="M1,1v14h14V1H1z M12,9H4V7h8V9z" xmlns="http://www.w3.org/2000/svg" />
</g>
<g transform="translate(244, 24)">
<style type="text/css" xmlns="http://www.w3.org/2000/svg">
	.stexp016 {fill-rule:evenodd;clip-rule:evenodd;fill:#757575;}
</style>
<g xmlns="http://www.w3.org/2000/svg">
	<path class="stexp016" d="M4,16v-3H0V6h4c0,0,0-5,0-5.9C4,0,4,0,4,0h9l3,3v13H4z M4,11H2V8h2V7H2L1,8v3l1,1h2V11z M5,9l1,1h1v1H5v1h2&#xD;&#xA;		l1-1v-1L7,9H6V8h2V7H6L5,8V9z M14,5h-3V2H6v4h7v1v6h-1H6v1h8V5z M10,11V7H9v4l1,1h1l1-1V7h-1v4H10z" />
</g>
</g>
<g transform="translate(226, 24)">
<style type="text/css" xmlns="http://www.w3.org/2000/svg">
	.stexpdis117 {fill-rule:evenodd;clip-rule:evenodd;fill:#BDBDBD;}
</style>
<g xmlns="http://www.w3.org/2000/svg">
	<path class="stexpdis117" d="M4,16v-3H0V6h4c0,0,0-5,0-5.9C4,0,4,0,4,0h9l3,3v13H4z M4,11H2V8h2V7H2L1,8v3l1,1h2V11z M5,9l1,1h1v1H5v1h2&#xD;&#xA;		l1-1v-1L7,9H6V8h2V7H6L5,8V9z M14,5h-3V2H6v4h7v1v6h-1H6v1h8V5z M10,11V7H9v4l1,1h1l1-1V7h-1v4H10z" />
</g>
</g>
<g transform="translate(280, 24)">
<style type="text/css" xmlns="http://www.w3.org/2000/svg">
	.stexp018 {fill-rule:evenodd;clip-rule:evenodd;fill:#757575;}
</style>
<g xmlns="http://www.w3.org/2000/svg">
	<rect x="6" y="8" class="stexp018" width="1" height="3" />
	<rect x="2" y="8" class="stexp018" width="1" height="1" />
</g>
<g xmlns="http://www.w3.org/2000/svg">
	<rect x="6" y="8" class="stexp018" width="1" height="3" />
	<rect x="2" y="8" class="stexp018" width="1" height="3" />
	<path class="stexp018" d="M13,0H4c0,0,0,0,0,0.1C4,1,4,6,4,6H0v7h4v3h12V3L13,0z M4,11l-1,1H1V7h2l1,1V11z M6,2h5v3h3v1H6V2z M11,11v1&#xD;&#xA;		h-1l-1-1V8l1-1h1v1h-1v3H11z M5,8l1-1h1l1,1v3l-1,1H6l-1-1V8z M14,14H6v-1h6h2V14z M15,8l-1,1v1l1,1v1h-1l-0.5-1L13,12h-1v-1l1-1V9&#xD;&#xA;		l-1-1V7h1l0.5,1L14,7h1V8z" />
</g>
</g>
<g transform="translate(388, 24)">
<style type="text/css" xmlns="http://www.w3.org/2000/svg">
	.stexpdis119 {fill-rule:evenodd;clip-rule:evenodd;fill:#BDBDBD;}
</style>
<g xmlns="http://www.w3.org/2000/svg">
	<rect x="6" y="8" class="stexpdis119" width="1" height="3" />
	<rect x="2" y="8" class="stexpdis119" width="1" height="1" />
</g>
<g xmlns="http://www.w3.org/2000/svg">
	<rect x="6" y="8" class="stexpdis119" width="1" height="3" />
	<rect x="2" y="8" class="stexpdis119" width="1" height="3" />
	<path class="stexpdis119" d="M13,0H4c0,0,0,0,0,0.1C4,1,4,6,4,6H0v7h4v3h12V3L13,0z M4,11l-1,1H1V7h2l1,1V11z M6,2h5v3h3v1H6V2z M11,11v1&#xD;&#xA;		h-1l-1-1V8l1-1h1v1h-1v3H11z M5,8l1-1h1l1,1v3l-1,1H6l-1-1V8z M14,14H6v-1h6h2V14z M15,8l-1,1v1l1,1v1h-1l-0.5-1L13,12h-1v-1l1-1V9&#xD;&#xA;		l-1-1V7h1l0.5,1L14,7h1V8z" />
</g>
</g>
<g transform="translate(306, 66)">
<style type="text/css" xmlns="http://www.w3.org/2000/svg">
	.stexp020 {fill-rule:evenodd;clip-rule:evenodd;fill:#757575;}
</style>
<g xmlns="http://www.w3.org/2000/svg">
	<rect x="6" y="8" class="stexp020" width="1" height="3" />
	<rect x="2" y="8" class="stexp020" width="1" height="1" />
	<path class="stexp020" d="M13,0H4c0,0,0,0,0,0.1C4,1,4,6,4,6H0v7h4v3h12V3L13,0z M4,9l-1,1H2v2H1V7h2l1,1V9z M5,7h2l1,1v3l-1,1H5V7z&#xD;&#xA;		 M14,14H6v-1h6h1V7V6H6V2h5v3h3V14z M11,9v1h-1v2H9V7h3v1h-2v1H11z" />
</g>
</g>
<g transform="translate(198, 66)">
<style type="text/css" xmlns="http://www.w3.org/2000/svg">
	.stexpdis121 {fill-rule:evenodd;clip-rule:evenodd;fill:#BDBDBD;}
</style>
<g xmlns="http://www.w3.org/2000/svg">
	<rect x="6" y="8" class="stexpdis121" width="1" height="3" />
	<rect x="2" y="8" class="stexpdis121" width="1" height="1" />
	<path class="stexpdis121" d="M13,0H4c0,0,0,0,0,0.1C4,1,4,6,4,6H0v7h4v3h12V3L13,0z M4,9l-1,1H2v2H1V7h2l1,1V9z M5,7h2l1,1v3l-1,1H5V7z&#xD;&#xA;		 M14,14H6v-1h6h1V7V6H6V2h5v3h3V14z M11,9v1h-1v2H9V7h3v1h-2v1H11z" />
</g>
</g>
<g transform="translate(126, 84)">
<style type="text/css" xmlns="http://www.w3.org/2000/svg">
	.stexp022 {fill:#757575;}
</style>
<g xmlns="http://www.w3.org/2000/svg">
	<rect x="2" y="8" class="stexp022" width="1" height="1" />
	<path class="stexp022" d="M13,0H4c0,0,0,0,0,0.1C4,1,4,6,4,6H0v7h4v3h12V3L13,0z M4,9H3l1,1v2H3v-2H2v2H1V7h2l1,1V9z M5,7h3v1H7v4H6V8H5&#xD;&#xA;		V7z M14,14H6v-1h6h1V7V6H6V2h5v3h3V14z M11,9v1h-1v2H9V7h3v1h-2v1H11z" />
</g>
</g>
<g transform="translate(180, 66)">
<style type="text/css" xmlns="http://www.w3.org/2000/svg">
	.stexpdis123 {fill:#BDBDBD;}
</style>
<g xmlns="http://www.w3.org/2000/svg">
	<rect x="2" y="8" class="stexpdis123" width="1" height="1" />
	<path class="stexpdis123" d="M13,0H4c0,0,0,0,0,0.1C4,1,4,6,4,6H0v7h4v3h12V3L13,0z M4,9H3l1,1v2H3v-2H2v2H1V7h2l1,1V9z M5,7h3v1H7v4H6V8H5&#xD;&#xA;		V7z M14,14H6v-1h6h1V7V6H6V2h5v3h3V14z M11,9v1h-1v2H9V7h3v1h-2v1H11z" />
</g>
</g>
<g transform="translate(54, 102)">
<style type="text/css" xmlns="http://www.w3.org/2000/svg">
	.stexp024 {fill-rule:evenodd;clip-rule:evenodd;fill:#757575;}
</style>
<path class="stexp024" d="M13,0H4c0,0,0,0,0,0.1C4,1,4,6,4,6H0v7h4v3h12V3L13,0z M4,8L3,9v1l1,1v1H3l-0.5-1L2,12H1v-1l1-1V9L1,8V7h1&#xD;&#xA;	l0.5,1L3,7h1V8z M5,7h1v4h1v1H5V7z M14,14H6v-1h6h1V7V6H6V2h5v3h3V14z M9,10L8,9V8l1-1h2v1H9v1h1l1,1v1l-1,1H8v-1h2v-1H9z" xmlns="http://www.w3.org/2000/svg" />
</g>
<g transform="translate(0, 66)">
<style type="text/css" xmlns="http://www.w3.org/2000/svg">
	.stexpdis125 {fill-rule:evenodd;clip-rule:evenodd;fill:#BDBDBD;}
</style>
<path class="stexpdis125" d="M13,0H4c0,0,0,0,0,0.1C4,1,4,6,4,6H0v7h4v3h12V3L13,0z M4,8L3,9v1l1,1v1H3l-0.5-1L2,12H1v-1l1-1V9L1,8V7h1&#xD;&#xA;	l0.5,1L3,7h1V8z M5,7h1v4h1v1H5V7z M14,14H6v-1h6h1V7V6H6V2h5v3h3V14z M9,10L8,9V8l1-1h2v1H9v1h1l1,1v1l-1,1H8v-1h2v-1H9z" xmlns="http://www.w3.org/2000/svg" />
</g>
<g transform="translate(432, 84)">
<style type="text/css" xmlns="http://www.w3.org/2000/svg">
	.stexp026 {fill-rule:evenodd;clip-rule:evenodd;fill:#757575;}
</style>
<path class="stexp026" d="M13,0H4c0,0,0,0,0,0.1C4,1,4,6,4,6H0v7h4v3h12V3L13,0z M4,8L3,9v1l1,1v1H3l-0.5-1L2,12H1v-1l1-1V9L1,8V7h1&#xD;&#xA;	l0.5,1L3,7h1V8z M6,2h5v3h3v1H6V2z M10,9l1,1v1l-1,1H8v-1h2v-1H9L8,9V8l1-1h2v1H9v1H10z M5,7h1v4h1v1H5V7z M14,14H6v-1h6h2V14z&#xD;&#xA;	 M15,8l-1,1v1l1,1v1h-1l-0.5-1L13,12h-1v-1l1-1V9l-1-1V7h1l0.5,1L14,7h1V8z" xmlns="http://www.w3.org/2000/svg" />
</g>
<g transform="translate(144, 84)">
<style type="text/css" xmlns="http://www.w3.org/2000/svg">
	.stexpdis127 {fill-rule:evenodd;clip-rule:evenodd;fill:#BDBDBD;}
</style>
<path class="stexpdis127" d="M13,0H4c0,0,0,0,0,0.1C4,1,4,6,4,6H0v7h4v3h12V3L13,0z M4,8L3,9v1l1,1v1H3l-0.5-1L2,12H1v-1l1-1V9L1,8V7h1&#xD;&#xA;	l0.5,1L3,7h1V8z M6,2h5v3h3v1H6V2z M10,9l1,1v1l-1,1H8v-1h2v-1H9L8,9V8l1-1h2v1H9v1H10z M5,7h1v4h1v1H5V7z M14,14H6v-1h6h2V14z&#xD;&#xA;	 M15,8l-1,1v1l1,1v1h-1l-0.5-1L13,12h-1v-1l1-1V9l-1-1V7h1l0.5,1L14,7h1V8z" xmlns="http://www.w3.org/2000/svg" />
</g>
<g transform="translate(468, 84)">
<path fill="#757575" d="M7,0v9h9V0H7z M14,5h-2v2h-1V5H9V4h2V2h1v2h2V5z" xmlns="http://www.w3.org/2000/svg" />
<path fill="#757575" d="M0,7v9h9V7H0z M7,12H5v2H4v-2H2v-1h2V9h1v2h2V12z" xmlns="http://www.w3.org/2000/svg" />
</g>
<g transform="translate(450, 84)">
<path fill="#BDBDBD" d="M7,0v9h9V0H7z M14,5h-2v2h-1V5H9V4h2V2h1v2h2V5z" xmlns="http://www.w3.org/2000/svg" />
<path fill="#BDBDBD" d="M0,7v9h9V7H0z M7,12H5v2H4v-2H2v-1h2V9h1v2h2V12z" xmlns="http://www.w3.org/2000/svg" />
</g>
<g transform="translate(288, 84)">
<g xmlns="http://www.w3.org/2000/svg">
	<path fill="#757575" d="M7,0v9h9V0H7z M14,5H9V4h5V5z" />
	<path fill="#757575" d="M0,7v9h9V7H0z M7,12H2v-1h5V12z" />
</g>
</g>
<g transform="translate(486, 84)">
<g xmlns="http://www.w3.org/2000/svg">
	<path fill="#BDBDBD" d="M7,0v9h9V0H7z M14,5H9V4h5V5z" />
	<path fill="#BDBDBD" d="M0,7v9h9V7H0z M7,12H2v-1h5V12z" />
</g>
</g>
<g transform="translate(144, 48)">
<path fill="#757575" d="M8,1C4.1,1,1,4.1,1,8s3.1,7,7,7s7-3.1,7-7S11.9,1,8,1z M12,9H9v3H7V9H4V7h3V4h2v3h3V9z" xmlns="http://www.w3.org/2000/svg" />
</g>
<g transform="translate(396, 102)">
<path fill="#BDBDBD" d="M8,1C4.1,1,1,4.1,1,8s3.1,7,7,7s7-3.1,7-7S11.9,1,8,1z M12,9H9v3H7V9H4V7h3V4h2v3h3V9z" xmlns="http://www.w3.org/2000/svg" />
</g>
<g transform="translate(468, 102)">
<g xmlns="http://www.w3.org/2000/svg">
	<path fill="#757575" d="M13.6,3.9C12.4,2.1,10.3,1,8,1C4.8,1,2.2,3.1,1.3,6h1.9C3.9,4.1,5.8,2.8,8,2.8c1.8,0,3.4,1,4.4,2.4L10.5,7h2.6&#xD;&#xA;		h1.8H15V2.5L13.6,3.9z" />
	<path fill="#757575" d="M8.2,13.3c-1.7,0-3.2-1-4.2-2.3l2-2H3.1H1.3H1v5l1.8-1.8C4.1,13.8,6,15,8.2,15c3.2,0,5.8-2.1,6.7-5H13&#xD;&#xA;		C12.3,11.9,10.4,13.3,8.2,13.3z" />
</g>
</g>
<g transform="translate(306, 102)">
<g xmlns="http://www.w3.org/2000/svg">
	<path fill="#BDBDBD" d="M13.6,3.9C12.4,2.1,10.3,1,8,1C4.8,1,2.2,3.1,1.3,6h1.9C3.9,4.1,5.8,2.8,8,2.8c1.8,0,3.4,1,4.4,2.4L10.5,7h2.6&#xD;&#xA;		h1.8H15V2.5L13.6,3.9z" />
	<path fill="#BDBDBD" d="M8.2,13.3c-1.7,0-3.2-1-4.2-2.3l2-2H3.1H1.3H1v5l1.8-1.8C4.1,13.8,6,15,8.2,15c3.2,0,5.8-2.1,6.7-5H13&#xD;&#xA;		C12.3,11.9,10.4,13.3,8.2,13.3z" />
</g>
</g>
<g transform="translate(478, 24)">
<style type="text/css" xmlns="http://www.w3.org/2000/svg">
	.st5036 {fill-rule:evenodd;clip-rule:evenodd;fill:#757575;}
</style>
<g xmlns="http://www.w3.org/2000/svg">
	<g>
		<path class="st5036" d="M13,0H2C0.9,0,0,0.9,0,2v14l4-3h9c1.1,0,2-0.9,2-2V2C15,0.9,14.1,0,13,0z M11,6.5c0,0.1,0,0.3,0,0.4l1,0.7&#xD;&#xA;			C12,7.8,12,7.9,12,8l-0.9,1.6c-0.1,0.1-0.2,0.1-0.3,0.1L9.6,9.2C9.4,9.4,9.1,9.5,8.8,9.6l-0.2,1.2c0,0.1-0.1,0.2-0.2,0.2H6.6&#xD;&#xA;			c-0.1,0-0.2-0.1-0.2-0.2L6.2,9.6C5.9,9.5,5.6,9.4,5.4,9.2L4.2,9.6c-0.1,0-0.2,0-0.3-0.1L3,8C3,7.9,3,7.8,3.1,7.7l1-0.7&#xD;&#xA;			c0-0.1,0-0.3,0-0.4s0-0.3,0-0.4l-1-0.7C3,5.3,3,5.1,3,5l0.9-1.6C4,3.4,4.1,3.3,4.2,3.4l1.2,0.5c0.2-0.2,0.5-0.3,0.8-0.4l0.2-1.2&#xD;&#xA;			C6.4,2.1,6.5,2,6.6,2h1.9c0.1,0,0.2,0.1,0.2,0.2l0.2,1.2c0.3,0.1,0.6,0.3,0.8,0.4l1.2-0.5c0.1,0,0.2,0,0.3,0.1L12,5&#xD;&#xA;			c0.1,0.1,0,0.2-0.1,0.3l-1,0.7C11,6.2,11,6.4,11,6.5z M7.5,5C6.7,5,6,5.7,6,6.5C6,7.3,6.7,8,7.5,8S9,7.3,9,6.5C9,5.7,8.3,5,7.5,5z&#xD;&#xA;			" />
	</g>
</g>
</g>
<g transform="translate(460, 24)">
<style type="text/css" xmlns="http://www.w3.org/2000/svg">
	.st5137 {opacity:0.5;}
	.st5237 {fill-rule:evenodd;clip-rule:evenodd;fill:#757575;}
</style>
<g class="st5137" xmlns="http://www.w3.org/2000/svg">
	<g>
		<path class="st5237" d="M13,0H2C0.9,0,0,0.9,0,2v14l4-3h9c1.1,0,2-0.9,2-2V2C15,0.9,14.1,0,13,0z M11,6.5c0,0.1,0,0.3,0,0.4l1,0.7&#xD;&#xA;			C12,7.8,12,7.9,12,8l-0.9,1.6c-0.1,0.1-0.2,0.1-0.3,0.1L9.6,9.2C9.4,9.4,9.1,9.5,8.8,9.6l-0.2,1.2c0,0.1-0.1,0.2-0.2,0.2H6.6&#xD;&#xA;			c-0.1,0-0.2-0.1-0.2-0.2L6.2,9.6C5.9,9.5,5.6,9.4,5.4,9.2L4.2,9.6c-0.1,0-0.2,0-0.3-0.1L3,8C3,7.9,3,7.8,3.1,7.7l1-0.7&#xD;&#xA;			c0-0.1,0-0.3,0-0.4s0-0.3,0-0.4l-1-0.7C3,5.3,3,5.1,3,5l0.9-1.6C4,3.4,4.1,3.3,4.2,3.4l1.2,0.5c0.2-0.2,0.5-0.3,0.8-0.4l0.2-1.2&#xD;&#xA;			C6.4,2.1,6.5,2,6.6,2h1.9c0.1,0,0.2,0.1,0.2,0.2l0.2,1.2c0.3,0.1,0.6,0.3,0.8,0.4l1.2-0.5c0.1,0,0.2,0,0.3,0.1L12,5&#xD;&#xA;			c0.1,0.1,0,0.2-0.1,0.3l-1,0.7C11,6.2,11,6.4,11,6.5z M7.5,5C6.7,5,6,5.7,6,6.5C6,7.3,6.7,8,7.5,8S9,7.3,9,6.5C9,5.7,8.3,5,7.5,5z&#xD;&#xA;			" />
	</g>
</g>
</g>
<g transform="translate(514, 24)">
<path fill="#BDBDBD" d="M12,0H0v10h4h1l0,0V9l0,0V7l0,0V6l0,0V4h8V3V0H12z M1,1h3v2H1V1z M4,9H1V7h3V9z M4,6H1V4h3V6z M5,3V1h3v2H5z&#xD;&#xA;	 M9,3V1h3v2H9z" xmlns="http://www.w3.org/2000/svg" />
<g xmlns="http://www.w3.org/2000/svg">
	<path fill="#757575" d="M4,3v13h12V3H4z M15,15H5V4h10V15z" />
	<rect x="6" y="8" fill="#757575" width="8" height="1" />
	<rect x="6" y="10" fill="#757575" width="8" height="1" />
	<rect x="6" y="12" fill="#757575" width="8" height="1" />
	<rect x="6" y="6" fill="#757575" width="8" height="1" />
</g>
</g>
<g transform="translate(496, 24)">
<path fill="#BDBDBD" d="M12,0H0v10h4h1l0,0V9l0,0V7l0,0V6l0,0V4h8V3V0H12z M1,1h3v2H1V1z M4,9H1V7h3V9z M4,6H1V4h3V6z M5,3V1h3v2H5z&#xD;&#xA;	 M9,3V1h3v2H9z" xmlns="http://www.w3.org/2000/svg" />
<g xmlns="http://www.w3.org/2000/svg">
	<path fill="#BDBDBD" d="M4,3v13h12V3H4z M15,15H5V4h10V15z" />
	<rect x="6" y="8" fill="#BDBDBD" width="8" height="1" />
	<rect x="6" y="10" fill="#BDBDBD" width="8" height="1" />
	<rect x="6" y="12" fill="#BDBDBD" width="8" height="1" />
	<rect x="6" y="6" fill="#BDBDBD" width="8" height="1" />
</g>
</g>
<g transform="translate(192, 120)">
<polygon fill="#757575" points="2,1 12,1 12,3 8,6 8,11 6,13 6,6 2,3 " xmlns="http://www.w3.org/2000/svg" />
</g>
<g transform="translate(176, 120)">
<polygon fill="#BDBDBD" points="2,1 12,1 12,3 8,6 8,11 6,13 6,6 2,3 " xmlns="http://www.w3.org/2000/svg" />
</g>
<g transform="translate(262, 24)">
<g xmlns="http://www.w3.org/2000/svg">
	<path fill="#757575" d="M11.5,15C9,15,7,13.4,7,11.5S9,8,11.5,8S16,9.6,16,11.5S14,15,11.5,15z M11.5,9C10.1,9,9,10.1,9,11.5&#xD;&#xA;		s1.1,2.5,2.5,2.5s2.5-1.1,2.5-2.5S12.9,9,11.5,9z M11.5,13c-0.8,0-1.5-0.7-1.5-1.5s0.7-1.5,1.5-1.5s1.5,0.7,1.5,1.5&#xD;&#xA;		S12.3,13,11.5,13z M6,12l-2,2V7L0,4V2h10v2L6,7V12z" />
</g>
<g xmlns="http://www.w3.org/2000/svg">
	<path fill="#757575" d="M15,7l1,1l-8,8l-1-1L15,7z" />
</g>
</g>
<g transform="translate(0, 48)">
<g xmlns="http://www.w3.org/2000/svg">
	<path fill="#BDBDBD" d="M11.5,15C9,15,7,13.4,7,11.5S9,8,11.5,8S16,9.6,16,11.5S14,15,11.5,15z M11.5,9C10.1,9,9,10.1,9,11.5&#xD;&#xA;		s1.1,2.5,2.5,2.5s2.5-1.1,2.5-2.5S12.9,9,11.5,9z M11.5,13c-0.8,0-1.5-0.7-1.5-1.5s0.7-1.5,1.5-1.5s1.5,0.7,1.5,1.5&#xD;&#xA;		S12.3,13,11.5,13z M6,12l-2,2V7L0,4V2h10v2L6,7V12z" />
</g>
</g>
<g transform="translate(378, 102)">
<g xmlns="http://www.w3.org/2000/svg">
	<path fill="#BDBDBD" d="M15,6v2h-4V6h-1v2H6V6H5v2H1V6H0v2v1v2v1v2v1h16v-1v-2v-1V9V8V6H15z M10,9v2H6V9H10z M1,9h4v2H1V9z M1,14v-2h4&#xD;&#xA;		v2H1z M6,14v-2h4v2H6z M15,14h-4v-2h4V14z M15,11h-4V9h4V11z" />
	<path fill="#757575" d="M0,1v5h16V1H0z M5,4H1V3h4V4z M10,4H6V3h4V4z" />
</g>
</g>
<g transform="translate(316, 24)">
<g xmlns="http://www.w3.org/2000/svg">
	<path fill="#BDBDBD" d="M15,6v2h-4V6h-1v2H6V6H5v2H1V6H0v2v1v2v1v2v1h16v-1v-2v-1V9V8V6H15z M10,9v2H6V9H10z M1,9h4v2H1V9z M1,14v-2h4&#xD;&#xA;		v2H1z M6,14v-2h4v2H6z M15,14h-4v-2h4V14z M15,11h-4V9h4V11z" />
	<path fill="#BDBDBD" d="M0,1v5h16V1H0z M5,4H1V3h4V4z M10,4H6V3h4V4z" />
</g>
</g>
<g transform="translate(112, 120)">
<g xmlns="http://www.w3.org/2000/svg">
	<path fill="#757575" d="M9.9,9.3h0.7l3.4,3.4L12.7,14l-3.4-3.4V9.9L9.1,9.7c-1,0.8-2.2,1.3-3.6,1.3C2.5,11,0,8.6,0,5.5&#xD;&#xA;		C0,2.5,2.5,0,5.5,0C8.6,0,11,2.5,11,5.5c0,1.4-0.5,2.6-1.3,3.6L9.9,9.3z M5.5,2C3.6,2,2,3.6,2,5.5S3.6,9,5.5,9S9,7.4,9,5.5&#xD;&#xA;		S7.4,2,5.5,2z" />
</g>
</g>
<g transform="translate(352, 24)">
<g xmlns="http://www.w3.org/2000/svg">
	<path fill="#BDBDBD" d="M12.5,11h-0.8l-0.3-0.3c1-1.1,1.6-2.6,1.6-4.2C13,2.9,10.1,0,6.5,0S0,2.9,0,6.5C0,10.1,2.9,13,6.5,13&#xD;&#xA;		c1.6,0,3.1-0.6,4.2-1.6l0.3,0.3v0.8l3.5,3.5l1.5-1.5L12.5,11z M6.5,11C4,11,2,9,2,6.5C2,4,4,2,6.5,2C9,2,11,4,11,6.5&#xD;&#xA;		C11,9,9,11,6.5,11z" />
</g>
</g>
<g transform="translate(504, 66)">
<g xmlns="http://www.w3.org/2000/svg">
	<path fill="#757575" d="M13.6,3.9C12.4,2.1,10.3,1,8,1C4.8,1,2.2,3.1,1.3,6h1.9C3.9,4.1,5.8,2.8,8,2.8c1.8,0,3.4,1,4.4,2.4L10.5,7h2.6&#xD;&#xA;		h1.8H15V2.5L13.6,3.9z" />
	<path fill="#757575" d="M8.2,13.3c-1.7,0-3.2-1-4.2-2.3l2-2H3.1H1.3H1v5l1.8-1.8C4.1,13.8,6,15,8.2,15c3.2,0,5.8-2.1,6.7-5H13&#xD;&#xA;		C12.3,11.9,10.4,13.3,8.2,13.3z" />
</g>
</g>
<g transform="translate(208, 120)">
<path fill="#DC4C40" d="M7,0C3.1,0,0,3.1,0,7s3.1,7,7,7s7-3.1,7-7S10.9,0,7,0z M8,12H6v-2h2V12z M8,8H6V2h2V8z" xmlns="http://www.w3.org/2000/svg" />
</g>
<g transform="translate(36, 102)">
<g xmlns="http://www.w3.org/2000/svg">
	<polygon fill="#757575" points="14,14 15,13 13,11 15,9 14,8 12,10 10,8 9,9 11,11 9,13 10,14 12,12 	" />
</g>
<polygon fill="#757575" points="0,2 10,2 10,4 6,7 6,12 4,14 4,7 0,4 " xmlns="http://www.w3.org/2000/svg" />
</g>
<g transform="translate(90, 84)">
<g xmlns="http://www.w3.org/2000/svg">
	<polygon fill="#BDBDBD" points="14,14 15,13 13,11 15,9 14,8 12,10 10,8 9,9 11,11 9,13 10,14 12,12 	" />
</g>
<polygon fill="#BDBDBD" points="0,2 10,2 10,4 6,7 6,12 4,14 4,7 0,4 " xmlns="http://www.w3.org/2000/svg" />
</g>
<g transform="translate(342, 84)">
<g xmlns="http://www.w3.org/2000/svg">
	<polygon fill="#757575" points="11,2 10,3 12,5 10,7 11,8 13,6 15,8 16,7 14,5 16,3 15,2 13,4 	" />
</g>
<rect y="3" fill="#757575" width="8" height="4" xmlns="http://www.w3.org/2000/svg" />
<rect x="4" y="10" fill="#757575" width="12" height="4" xmlns="http://www.w3.org/2000/svg" />
</g>
<g transform="translate(198, 84)">
<g xmlns="http://www.w3.org/2000/svg">
	<polygon fill="#BDBDBD" points="11,2 10,3 12,5 10,7 11,8 13,6 15,8 16,7 14,5 16,3 15,2 13,4 	" />
</g>
<rect y="3" fill="#BDBDBD" width="8" height="4" xmlns="http://www.w3.org/2000/svg" />
<rect x="4" y="10" fill="#BDBDBD" width="12" height="4" xmlns="http://www.w3.org/2000/svg" />
</g>
<g transform="translate(0, 102)">
<path fill="#757575" d="M1,1v14h14V1H1z M12,9H9v3H7V9H4V7h3V4h2v3h3V9z" xmlns="http://www.w3.org/2000/svg" />
</g>
<g transform="translate(126, 66)">
<path fill="#BDBDBD" d="M1,1v14h14V1H1z M12,9H9v3H7V9H4V7h3V4h2v3h3V9z" xmlns="http://www.w3.org/2000/svg" />
</g>
<g transform="translate(108, 66)">
<path fill="#757575" d="M1,1v14h14V1H1z M12,9H9v3H7V9H4V7h3V4h2v3h3V9z" xmlns="http://www.w3.org/2000/svg" />
</g>
<g transform="translate(432, 102)">
<path fill="#BDBDBD" d="M1,1v14h14V1H1z M12,9H9v3H7V9H4V7h3V4h2v3h3V9z" xmlns="http://www.w3.org/2000/svg" />
</g>
<g transform="translate(252, 102)">
<style type="text/css" xmlns="http://www.w3.org/2000/svg">
	.st058 {fill:#757575;}
	.st158 {opacity:0.5;fill:#757575;}
</style>
<path class="st058" d="M12.5,3h-11C1.2,3,1,3.2,1,3.5v12C1,15.8,1.2,16,1.5,16h11c0.3,0,0.5-0.2,0.5-0.5v-12C13,3.2,12.8,3,12.5,3z&#xD;&#xA;	 M12,15H2V4h10V15z M11,8H3V7h8V8z M11,10H3V9h8V10z" xmlns="http://www.w3.org/2000/svg" />
<rect x="3" y="11" class="st058" width="8" height="1" xmlns="http://www.w3.org/2000/svg" />
<path class="st158" d="M14.5,1h-11C3.2,1,3,1.2,3,1.5V3h1V2h10v11h-1v1h1.5c0.3,0,0.5-0.2,0.5-0.5v-12C15,1.2,14.8,1,14.5,1z" xmlns="http://www.w3.org/2000/svg" />
</g>
<g transform="translate(450, 66)">
<polygon fill="#DC4C40" points="14,4 12,2 8,6 4,2 2,4 6,8 2,12 4,14 8,10 12,14 14,12 10,8 " xmlns="http://www.w3.org/2000/svg" />
</g>
<g transform="translate(468, 66)">
<polygon fill="#BDBDBD" points="14,4 12,2 8,6 4,2 2,4 6,8 2,12 4,14 8,10 12,14 14,12 10,8 " xmlns="http://www.w3.org/2000/svg" />
</g>
<g transform="translate(504, 84)">
<g xmlns="http://www.w3.org/2000/svg">
	<path fill="#757575" d="M10,2l-8,8v4h3.9L14,6L10,2z M5,13l-2-2l6-6l2,2L5,13z" />
	<rect x="9" y="13" fill="#757575" width="5" height="1" />
</g>
</g>
<g transform="translate(180, 84)">
<g xmlns="http://www.w3.org/2000/svg">
	<path fill="#BDBDBD" d="M10,2l-8,8v4h3.9L14,6L10,2z M5,13l-2-2l6-6l2,2L5,13z" />
	<rect x="9" y="13" fill="#BDBDBD" width="5" height="1" />
</g>
</g>
<g transform="translate(234, 84)">
<path fill="#757575" d="M1,1v14h14V1H1z M12,9H4V7h8V9z" xmlns="http://www.w3.org/2000/svg" />
</g>
<g transform="translate(180, 102)">
<path fill="#BDBDBD" d="M1,1v14h14V1H1z M12,9H4V7h8V9z" xmlns="http://www.w3.org/2000/svg" />
</g>
<g transform="translate(72, 66)">
<path fill="#757575" d="M1,1v14h14V1H1z M12,9H4V7h8V9z" xmlns="http://www.w3.org/2000/svg" />
</g>
<g transform="translate(432, 66)">
<path fill="#BDBDBD" d="M1,1v14h14V1H1z M12,9H4V7h8V9z" xmlns="http://www.w3.org/2000/svg" />
</g>
<g transform="translate(216, 84)">
<style type="text/css" xmlns="http://www.w3.org/2000/svg">
	.stexp067 {fill-rule:evenodd;clip-rule:evenodd;fill:#757575;}
</style>
<g xmlns="http://www.w3.org/2000/svg">
	<path class="stexp067" d="M4,16v-3H0V6h4c0,0,0-5,0-5.9C4,0,4,0,4,0h9l3,3v13H4z M4,11H2V8h2V7H2L1,8v3l1,1h2V11z M5,9l1,1h1v1H5v1h2&#xD;&#xA;		l1-1v-1L7,9H6V8h2V7H6L5,8V9z M14,5h-3V2H6v4h7v1v6h-1H6v1h8V5z M10,11V7H9v4l1,1h1l1-1V7h-1v4H10z" />
</g>
</g>
<g transform="translate(0, 84)">
<style type="text/css" xmlns="http://www.w3.org/2000/svg">
	.stexpdis168 {fill-rule:evenodd;clip-rule:evenodd;fill:#BDBDBD;}
</style>
<g xmlns="http://www.w3.org/2000/svg">
	<path class="stexpdis168" d="M4,16v-3H0V6h4c0,0,0-5,0-5.9C4,0,4,0,4,0h9l3,3v13H4z M4,11H2V8h2V7H2L1,8v3l1,1h2V11z M5,9l1,1h1v1H5v1h2&#xD;&#xA;		l1-1v-1L7,9H6V8h2V7H6L5,8V9z M14,5h-3V2H6v4h7v1v6h-1H6v1h8V5z M10,11V7H9v4l1,1h1l1-1V7h-1v4H10z" />
</g>
</g>
<g transform="translate(18, 120)">
<style type="text/css" xmlns="http://www.w3.org/2000/svg">
	.stexp069 {fill-rule:evenodd;clip-rule:evenodd;fill:#757575;}
</style>
<g xmlns="http://www.w3.org/2000/svg">
	<rect x="6" y="8" class="stexp069" width="1" height="3" />
	<rect x="2" y="8" class="stexp069" width="1" height="1" />
</g>
<g xmlns="http://www.w3.org/2000/svg">
	<rect x="6" y="8" class="stexp069" width="1" height="3" />
	<rect x="2" y="8" class="stexp069" width="1" height="3" />
	<path class="stexp069" d="M13,0H4c0,0,0,0,0,0.1C4,1,4,6,4,6H0v7h4v3h12V3L13,0z M4,11l-1,1H1V7h2l1,1V11z M6,2h5v3h3v1H6V2z M11,11v1&#xD;&#xA;		h-1l-1-1V8l1-1h1v1h-1v3H11z M5,8l1-1h1l1,1v3l-1,1H6l-1-1V8z M14,14H6v-1h6h2V14z M15,8l-1,1v1l1,1v1h-1l-0.5-1L13,12h-1v-1l1-1V9&#xD;&#xA;		l-1-1V7h1l0.5,1L14,7h1V8z" />
</g>
</g>
<g transform="translate(270, 84)">
<style type="text/css" xmlns="http://www.w3.org/2000/svg">
	.stexpdis170 {fill-rule:evenodd;clip-rule:evenodd;fill:#BDBDBD;}
</style>
<g xmlns="http://www.w3.org/2000/svg">
	<rect x="6" y="8" class="stexpdis170" width="1" height="3" />
	<rect x="2" y="8" class="stexpdis170" width="1" height="1" />
</g>
<g xmlns="http://www.w3.org/2000/svg">
	<rect x="6" y="8" class="stexpdis170" width="1" height="3" />
	<rect x="2" y="8" class="stexpdis170" width="1" height="3" />
	<path class="stexpdis170" d="M13,0H4c0,0,0,0,0,0.1C4,1,4,6,4,6H0v7h4v3h12V3L13,0z M4,11l-1,1H1V7h2l1,1V11z M6,2h5v3h3v1H6V2z M11,11v1&#xD;&#xA;		h-1l-1-1V8l1-1h1v1h-1v3H11z M5,8l1-1h1l1,1v3l-1,1H6l-1-1V8z M14,14H6v-1h6h2V14z M15,8l-1,1v1l1,1v1h-1l-0.5-1L13,12h-1v-1l1-1V9&#xD;&#xA;		l-1-1V7h1l0.5,1L14,7h1V8z" />
</g>
</g>
<g transform="translate(324, 66)">
<style type="text/css" xmlns="http://www.w3.org/2000/svg">
	.stexp071 {fill-rule:evenodd;clip-rule:evenodd;fill:#757575;}
</style>
<g xmlns="http://www.w3.org/2000/svg">
	<rect x="6" y="8" class="stexp071" width="1" height="3" />
	<rect x="2" y="8" class="stexp071" width="1" height="1" />
	<path class="stexp071" d="M13,0H4c0,0,0,0,0,0.1C4,1,4,6,4,6H0v7h4v3h12V3L13,0z M4,9l-1,1H2v2H1V7h2l1,1V9z M5,7h2l1,1v3l-1,1H5V7z&#xD;&#xA;		 M14,14H6v-1h6h1V7V6H6V2h5v3h3V14z M11,9v1h-1v2H9V7h3v1h-2v1H11z" />
</g>
</g>
<g transform="translate(370, 24)">
<style type="text/css" xmlns="http://www.w3.org/2000/svg">
	.stexpdis172 {fill-rule:evenodd;clip-rule:evenodd;fill:#BDBDBD;}
</style>
<g xmlns="http://www.w3.org/2000/svg">
	<rect x="6" y="8" class="stexpdis172" width="1" height="3" />
	<rect x="2" y="8" class="stexpdis172" width="1" height="1" />
	<path class="stexpdis172" d="M13,0H4c0,0,0,0,0,0.1C4,1,4,6,4,6H0v7h4v3h12V3L13,0z M4,9l-1,1H2v2H1V7h2l1,1V9z M5,7h2l1,1v3l-1,1H5V7z&#xD;&#xA;		 M14,14H6v-1h6h1V7V6H6V2h5v3h3V14z M11,9v1h-1v2H9V7h3v1h-2v1H11z" />
</g>
</g>
<g transform="translate(54, 120)">
<style type="text/css" xmlns="http://www.w3.org/2000/svg">
	.stexp073 {fill:#757575;}
</style>
<g xmlns="http://www.w3.org/2000/svg">
	<rect x="2" y="8" class="stexp073" width="1" height="1" />
	<path class="stexp073" d="M13,0H4c0,0,0,0,0,0.1C4,1,4,6,4,6H0v7h4v3h12V3L13,0z M4,9H3l1,1v2H3v-2H2v2H1V7h2l1,1V9z M5,7h3v1H7v4H6V8H5&#xD;&#xA;		V7z M14,14H6v-1h6h1V7V6H6V2h5v3h3V14z M11,9v1h-1v2H9V7h3v1h-2v1H11z" />
</g>
</g>
<g transform="translate(342, 66)">
<style type="text/css" xmlns="http://www.w3.org/2000/svg">
	.stexpdis174 {fill:#BDBDBD;}
</style>
<g xmlns="http://www.w3.org/2000/svg">
	<rect x="2" y="8" class="stexpdis174" width="1" height="1" />
	<path class="stexpdis174" d="M13,0H4c0,0,0,0,0,0.1C4,1,4,6,4,6H0v7h4v3h12V3L13,0z M4,9H3l1,1v2H3v-2H2v2H1V7h2l1,1V9z M5,7h3v1H7v4H6V8H5&#xD;&#xA;		V7z M14,14H6v-1h6h1V7V6H6V2h5v3h3V14z M11,9v1h-1v2H9V7h3v1h-2v1H11z" />
</g>
</g>
<g transform="translate(378, 66)">
<style type="text/css" xmlns="http://www.w3.org/2000/svg">
	.stexp075 {fill-rule:evenodd;clip-rule:evenodd;fill:#757575;}
</style>
<path class="stexp075" d="M13,0H4c0,0,0,0,0,0.1C4,1,4,6,4,6H0v7h4v3h12V3L13,0z M4,8L3,9v1l1,1v1H3l-0.5-1L2,12H1v-1l1-1V9L1,8V7h1&#xD;&#xA;	l0.5,1L3,7h1V8z M5,7h1v4h1v1H5V7z M14,14H6v-1h6h1V7V6H6V2h5v3h3V14z M9,10L8,9V8l1-1h2v1H9v1h1l1,1v1l-1,1H8v-1h2v-1H9z" xmlns="http://www.w3.org/2000/svg" />
</g>
<g transform="translate(414, 102)">
<style type="text/css" xmlns="http://www.w3.org/2000/svg">
	.stexpdis176 {fill-rule:evenodd;clip-rule:evenodd;fill:#BDBDBD;}
</style>
<path class="stexpdis176" d="M13,0H4c0,0,0,0,0,0.1C4,1,4,6,4,6H0v7h4v3h12V3L13,0z M4,8L3,9v1l1,1v1H3l-0.5-1L2,12H1v-1l1-1V9L1,8V7h1&#xD;&#xA;	l0.5,1L3,7h1V8z M5,7h1v4h1v1H5V7z M14,14H6v-1h6h1V7V6H6V2h5v3h3V14z M9,10L8,9V8l1-1h2v1H9v1h1l1,1v1l-1,1H8v-1h2v-1H9z" xmlns="http://www.w3.org/2000/svg" />
</g>
<g transform="translate(486, 66)">
<style type="text/css" xmlns="http://www.w3.org/2000/svg">
	.stexp077 {fill-rule:evenodd;clip-rule:evenodd;fill:#757575;}
</style>
<path class="stexp077" d="M13,0H4c0,0,0,0,0,0.1C4,1,4,6,4,6H0v7h4v3h12V3L13,0z M4,8L3,9v1l1,1v1H3l-0.5-1L2,12H1v-1l1-1V9L1,8V7h1&#xD;&#xA;	l0.5,1L3,7h1V8z M6,2h5v3h3v1H6V2z M10,9l1,1v1l-1,1H8v-1h2v-1H9L8,9V8l1-1h2v1H9v1H10z M5,7h1v4h1v1H5V7z M14,14H6v-1h6h2V14z&#xD;&#xA;	 M15,8l-1,1v1l1,1v1h-1l-0.5-1L13,12h-1v-1l1-1V9l-1-1V7h1l0.5,1L14,7h1V8z" xmlns="http://www.w3.org/2000/svg" />
</g>
<g transform="translate(450, 102)">
<style type="text/css" xmlns="http://www.w3.org/2000/svg">
	.stexpdis178 {fill-rule:evenodd;clip-rule:evenodd;fill:#BDBDBD;}
</style>
<path class="stexpdis178" d="M13,0H4c0,0,0,0,0,0.1C4,1,4,6,4,6H0v7h4v3h12V3L13,0z M4,8L3,9v1l1,1v1H3l-0.5-1L2,12H1v-1l1-1V9L1,8V7h1&#xD;&#xA;	l0.5,1L3,7h1V8z M6,2h5v3h3v1H6V2z M10,9l1,1v1l-1,1H8v-1h2v-1H9L8,9V8l1-1h2v1H9v1H10z M5,7h1v4h1v1H5V7z M14,14H6v-1h6h2V14z&#xD;&#xA;	 M15,8l-1,1v1l1,1v1h-1l-0.5-1L13,12h-1v-1l1-1V9l-1-1V7h1l0.5,1L14,7h1V8z" xmlns="http://www.w3.org/2000/svg" />
</g>
<g transform="translate(486, 102)">
<path fill="#757575" d="M7,0v9h9V0H7z M14,5h-2v2h-1V5H9V4h2V2h1v2h2V5z" xmlns="http://www.w3.org/2000/svg" />
<path fill="#757575" d="M0,7v9h9V7H0z M7,12H5v2H4v-2H2v-1h2V9h1v2h2V12z" xmlns="http://www.w3.org/2000/svg" />
</g>
<g transform="translate(288, 66)">
<path fill="#BDBDBD" d="M7,0v9h9V0H7z M14,5h-2v2h-1V5H9V4h2V2h1v2h2V5z" xmlns="http://www.w3.org/2000/svg" />
<path fill="#BDBDBD" d="M0,7v9h9V7H0z M7,12H5v2H4v-2H2v-1h2V9h1v2h2V12z" xmlns="http://www.w3.org/2000/svg" />
</g>
<g transform="translate(324, 84)">
<g xmlns="http://www.w3.org/2000/svg">
	<path fill="#757575" d="M7,0v9h9V0H7z M14,5H9V4h5V5z" />
	<path fill="#757575" d="M0,7v9h9V7H0z M7,12H2v-1h5V12z" />
</g>
</g>
<g transform="translate(0, 120)">
<g xmlns="http://www.w3.org/2000/svg">
	<path fill="#BDBDBD" d="M7,0v9h9V0H7z M14,5H9V4h5V5z" />
	<path fill="#BDBDBD" d="M0,7v9h9V7H0z M7,12H2v-1h5V12z" />
</g>
</g>
<g transform="translate(162, 84)">
<circle fill="#FFFFFF" cx="0.2" cy="3" r="0" xmlns="http://www.w3.org/2000/svg" />
<rect y="3" fill="#757575" width="12" height="4" xmlns="http://www.w3.org/2000/svg" />
<rect x="4" y="9" fill="#757575" width="12" height="4" xmlns="http://www.w3.org/2000/svg" />
</g>
<g transform="translate(306, 84)">
<rect y="3" fill="#BDBDBD" width="12" height="4" xmlns="http://www.w3.org/2000/svg" />
<rect x="4" y="9" fill="#BDBDBD" width="12" height="4" xmlns="http://www.w3.org/2000/svg" />
</g>
<g transform="translate(144, 66)">
<path fill="#757575" d="M8,1C4.1,1,1,4.1,1,8s3.1,7,7,7s7-3.1,7-7S11.9,1,8,1z M12,9H9v3H7V9H4V7h3V4h2v3h3V9z" xmlns="http://www.w3.org/2000/svg" />
</g>
<g transform="translate(504, 48)">
<path fill="#BDBDBD" d="M8,1C4.1,1,1,4.1,1,8s3.1,7,7,7s7-3.1,7-7S11.9,1,8,1z M12,9H9v3H7V9H4V7h3V4h2v3h3V9z" xmlns="http://www.w3.org/2000/svg" />
</g>
<g transform="translate(18, 48)">
<style type="text/css" xmlns="http://www.w3.org/2000/svg">
	.st087 {fill:#757575;}
	.st187 {opacity:0.5;}
</style>
<path class="st087" d="M14.5,6h-7C7.2,6,7,6.2,7,6.5v8C7,14.8,7.2,15,7.5,15h7c0.3,0,0.5-0.2,0.5-0.5v-8C15,6.2,14.8,6,14.5,6z M14,14&#xD;&#xA;	H8V7h6V14z M13,10H9V9h4V10z M13,12H9v-1h4V12z" xmlns="http://www.w3.org/2000/svg" />
<path class="st087" d="M9,1V0.5C9,0.2,8.8,0,8.5,0h-2C6.2,0,6,0.2,6,0.5V1H5v1.5C5,2.8,5.2,3,5.5,3h4C9.8,3,10,2.8,10,2.5V1H9z" xmlns="http://www.w3.org/2000/svg" />
<g class="st187" xmlns="http://www.w3.org/2000/svg">
	<path class="st087" d="M12.5,1h-10C2.2,1,2,1.2,2,1.5v12C2,13.8,2.2,14,2.5,14H6v-2V5h7V1.4C13,1.2,12.8,1,12.5,1z" />
</g>
</g>
<g transform="translate(360, 48)">
<g xmlns="http://www.w3.org/2000/svg">
	<path fill="#757575" d="M13.6,3.9C12.4,2.1,10.3,1,8,1C4.8,1,2.2,3.1,1.3,6h1.9C3.9,4.1,5.8,2.8,8,2.8c1.8,0,3.4,1,4.4,2.4L10.5,7h2.6&#xD;&#xA;		h1.8H15V2.5L13.6,3.9z" />
	<path fill="#757575" d="M8.2,13.3c-1.7,0-3.2-1-4.2-2.3l2-2H3.1H1.3H1v5l1.8-1.8C4.1,13.8,6,15,8.2,15c3.2,0,5.8-2.1,6.7-5H13&#xD;&#xA;		C12.3,11.9,10.4,13.3,8.2,13.3z" />
</g>
</g>
<g transform="translate(126, 102)">
<g xmlns="http://www.w3.org/2000/svg">
	<path fill="#BDBDBD" d="M13.6,3.9C12.4,2.1,10.3,1,8,1C4.8,1,2.2,3.1,1.3,6h1.9C3.9,4.1,5.8,2.8,8,2.8c1.8,0,3.4,1,4.4,2.4L10.5,7h2.6&#xD;&#xA;		h1.8H15V2.5L13.6,3.9z" />
	<path fill="#BDBDBD" d="M8.2,13.3c-1.7,0-3.2-1-4.2-2.3l2-2H3.1H1.3H1v5l1.8-1.8C4.1,13.8,6,15,8.2,15c3.2,0,5.8-2.1,6.7-5H13&#xD;&#xA;		C12.3,11.9,10.4,13.3,8.2,13.3z" />
</g>
</g>
<g transform="translate(144, 120)">
<g xmlns="http://www.w3.org/2000/svg">
	<path fill="#757575" d="M9.9,9.3h0.7l3.4,3.4L12.7,14l-3.4-3.4V9.9L9.1,9.7c-1,0.8-2.2,1.3-3.6,1.3C2.5,11,0,8.6,0,5.5&#xD;&#xA;		C0,2.5,2.5,0,5.5,0C8.6,0,11,2.5,11,5.5c0,1.4-0.5,2.6-1.3,3.6L9.9,9.3z M5.5,2C3.6,2,2,3.6,2,5.5S3.6,9,5.5,9S9,7.4,9,5.5&#xD;&#xA;		S7.4,2,5.5,2z" />
</g>
</g>
<g transform="translate(342, 48)">
<g xmlns="http://www.w3.org/2000/svg">
	<path fill="#BDBDBD" d="M12.5,11h-0.8l-0.3-0.3c1-1.1,1.6-2.6,1.6-4.2C13,2.9,10.1,0,6.5,0S0,2.9,0,6.5C0,10.1,2.9,13,6.5,13&#xD;&#xA;		c1.6,0,3.1-0.6,4.2-1.6l0.3,0.3v0.8l3.5,3.5l1.5-1.5L12.5,11z M6.5,11C4,11,2,9,2,6.5C2,4,4,2,6.5,2C9,2,11,4,11,6.5&#xD;&#xA;		C11,9,9,11,6.5,11z" />
</g>
</g>
<g transform="translate(306, 48)">
<style type="text/css" xmlns="http://www.w3.org/2000/svg">
	.st5092 {fill-rule:evenodd;clip-rule:evenodd;fill:#757575;}
</style>
<g xmlns="http://www.w3.org/2000/svg">
	<g>
		<path class="st5092" d="M13,0H2C0.9,0,0,0.9,0,2v14l4-3h9c1.1,0,2-0.9,2-2V2C15,0.9,14.1,0,13,0z M11,6.5c0,0.1,0,0.3,0,0.4l1,0.7&#xD;&#xA;			C12,7.8,12,7.9,12,8l-0.9,1.6c-0.1,0.1-0.2,0.1-0.3,0.1L9.6,9.2C9.4,9.4,9.1,9.5,8.8,9.6l-0.2,1.2c0,0.1-0.1,0.2-0.2,0.2H6.6&#xD;&#xA;			c-0.1,0-0.2-0.1-0.2-0.2L6.2,9.6C5.9,9.5,5.6,9.4,5.4,9.2L4.2,9.6c-0.1,0-0.2,0-0.3-0.1L3,8C3,7.9,3,7.8,3.1,7.7l1-0.7&#xD;&#xA;			c0-0.1,0-0.3,0-0.4s0-0.3,0-0.4l-1-0.7C3,5.3,3,5.1,3,5l0.9-1.6C4,3.4,4.1,3.3,4.2,3.4l1.2,0.5c0.2-0.2,0.5-0.3,0.8-0.4l0.2-1.2&#xD;&#xA;			C6.4,2.1,6.5,2,6.6,2h1.9c0.1,0,0.2,0.1,0.2,0.2l0.2,1.2c0.3,0.1,0.6,0.3,0.8,0.4l1.2-0.5c0.1,0,0.2,0,0.3,0.1L12,5&#xD;&#xA;			c0.1,0.1,0,0.2-0.1,0.3l-1,0.7C11,6.2,11,6.4,11,6.5z M7.5,5C6.7,5,6,5.7,6,6.5C6,7.3,6.7,8,7.5,8S9,7.3,9,6.5C9,5.7,8.3,5,7.5,5z&#xD;&#xA;			" />
	</g>
</g>
</g>
<g transform="translate(324, 48)">
<style type="text/css" xmlns="http://www.w3.org/2000/svg">
	.st5193 {opacity:0.5;}
	.st5293 {fill-rule:evenodd;clip-rule:evenodd;fill:#757575;}
</style>
<g class="st5193" xmlns="http://www.w3.org/2000/svg">
	<g>
		<path class="st5293" d="M13,0H2C0.9,0,0,0.9,0,2v14l4-3h9c1.1,0,2-0.9,2-2V2C15,0.9,14.1,0,13,0z M11,6.5c0,0.1,0,0.3,0,0.4l1,0.7&#xD;&#xA;			C12,7.8,12,7.9,12,8l-0.9,1.6c-0.1,0.1-0.2,0.1-0.3,0.1L9.6,9.2C9.4,9.4,9.1,9.5,8.8,9.6l-0.2,1.2c0,0.1-0.1,0.2-0.2,0.2H6.6&#xD;&#xA;			c-0.1,0-0.2-0.1-0.2-0.2L6.2,9.6C5.9,9.5,5.6,9.4,5.4,9.2L4.2,9.6c-0.1,0-0.2,0-0.3-0.1L3,8C3,7.9,3,7.8,3.1,7.7l1-0.7&#xD;&#xA;			c0-0.1,0-0.3,0-0.4s0-0.3,0-0.4l-1-0.7C3,5.3,3,5.1,3,5l0.9-1.6C4,3.4,4.1,3.3,4.2,3.4l1.2,0.5c0.2-0.2,0.5-0.3,0.8-0.4l0.2-1.2&#xD;&#xA;			C6.4,2.1,6.5,2,6.6,2h1.9c0.1,0,0.2,0.1,0.2,0.2l0.2,1.2c0.3,0.1,0.6,0.3,0.8,0.4l1.2-0.5c0.1,0,0.2,0,0.3,0.1L12,5&#xD;&#xA;			c0.1,0.1,0,0.2-0.1,0.3l-1,0.7C11,6.2,11,6.4,11,6.5z M7.5,5C6.7,5,6,5.7,6,6.5C6,7.3,6.7,8,7.5,8S9,7.3,9,6.5C9,5.7,8.3,5,7.5,5z&#xD;&#xA;			" />
	</g>
</g>
</g>
<g transform="translate(270, 48)">
<path fill="#BDBDBD" d="M12,0H0v10h4h1l0,0V9l0,0V7l0,0V6l0,0V4h8V3V0H12z M1,1h3v2H1V1z M4,9H1V7h3V9z M4,6H1V4h3V6z M5,3V1h3v2H5z&#xD;&#xA;	 M9,3V1h3v2H9z" xmlns="http://www.w3.org/2000/svg" />
<g xmlns="http://www.w3.org/2000/svg">
	<path fill="#757575" d="M4,3v13h12V3H4z M15,15H5V4h10V15z" />
	<rect x="6" y="8" fill="#757575" width="8" height="1" />
	<rect x="6" y="10" fill="#757575" width="8" height="1" />
	<rect x="6" y="12" fill="#757575" width="8" height="1" />
	<rect x="6" y="6" fill="#757575" width="8" height="1" />
</g>
</g>
<g transform="translate(288, 48)">
<path fill="#BDBDBD" d="M12,0H0v10h4h1l0,0V9l0,0V7l0,0V6l0,0V4h8V3V0H12z M1,1h3v2H1V1z M4,9H1V7h3V9z M4,6H1V4h3V6z M5,3V1h3v2H5z&#xD;&#xA;	 M9,3V1h3v2H9z" xmlns="http://www.w3.org/2000/svg" />
<g xmlns="http://www.w3.org/2000/svg">
	<path fill="#BDBDBD" d="M4,3v13h12V3H4z M15,15H5V4h10V15z" />
	<rect x="6" y="8" fill="#BDBDBD" width="8" height="1" />
	<rect x="6" y="10" fill="#BDBDBD" width="8" height="1" />
	<rect x="6" y="12" fill="#BDBDBD" width="8" height="1" />
	<rect x="6" y="6" fill="#BDBDBD" width="8" height="1" />
</g>
</g>
<g transform="translate(256, 120)">
<polygon fill="#757575" points="2,1 12,1 12,3 8,6 8,11 6,13 6,6 2,3 " xmlns="http://www.w3.org/2000/svg" />
</g>
<g transform="translate(522, 66)">
<polygon fill="#BDBDBD" points="2,1 12,1 12,3 8,6 8,11 6,13 6,6 2,3 " xmlns="http://www.w3.org/2000/svg" />
</g>
<g transform="translate(252, 48)">
<g xmlns="http://www.w3.org/2000/svg">
	<path fill="#BDBDBD" d="M15,6v2h-4V6h-1v2H6V6H5v2H1V6H0v2v1v2v1v2v1h16v-1v-2v-1V9V8V6H15z M10,9v2H6V9H10z M1,9h4v2H1V9z M1,14v-2h4&#xD;&#xA;		v2H1z M6,14v-2h4v2H6z M15,14h-4v-2h4V14z M15,11h-4V9h4V11z" />
	<path fill="#757575" d="M0,1v5h16V1H0z M5,4H1V3h4V4z M10,4H6V3h4V4z" />
</g>
</g>
<g transform="translate(486, 48)">
<g xmlns="http://www.w3.org/2000/svg">
	<path fill="#BDBDBD" d="M15,6v2h-4V6h-1v2H6V6H5v2H1V6H0v2v1v2v1v2v1h16v-1v-2v-1V9V8V6H15z M10,9v2H6V9H10z M1,9h4v2H1V9z M1,14v-2h4&#xD;&#xA;		v2H1z M6,14v-2h4v2H6z M15,14h-4v-2h4V14z M15,11h-4V9h4V11z" />
	<path fill="#BDBDBD" d="M0,1v5h16V1H0z M5,4H1V3h4V4z M10,4H6V3h4V4z" />
</g>
</g>
<g transform="translate(224, 120)">
<g xmlns="http://www.w3.org/2000/svg">
	<path fill="#757575" d="M9.9,9.3h0.7l3.4,3.4L12.7,14l-3.4-3.4V9.9L9.1,9.7c-1,0.8-2.2,1.3-3.6,1.3C2.5,11,0,8.6,0,5.5&#xD;&#xA;		C0,2.5,2.5,0,5.5,0C8.6,0,11,2.5,11,5.5c0,1.4-0.5,2.6-1.3,3.6L9.9,9.3z M5.5,2C3.6,2,2,3.6,2,5.5S3.6,9,5.5,9S9,7.4,9,5.5&#xD;&#xA;		S7.4,2,5.5,2z" />
</g>
</g>
<g transform="translate(216, 48)">
<g xmlns="http://www.w3.org/2000/svg">
	<path fill="#BDBDBD" d="M12.5,11h-0.8l-0.3-0.3c1-1.1,1.6-2.6,1.6-4.2C13,2.9,10.1,0,6.5,0S0,2.9,0,6.5C0,10.1,2.9,13,6.5,13&#xD;&#xA;		c1.6,0,3.1-0.6,4.2-1.6l0.3,0.3v0.8l3.5,3.5l1.5-1.5L12.5,11z M6.5,11C4,11,2,9,2,6.5C2,4,4,2,6.5,2C9,2,11,4,11,6.5&#xD;&#xA;		C11,9,9,11,6.5,11z" />
</g>
</g>
<g transform="translate(180, 48)">
<g xmlns="http://www.w3.org/2000/svg">
	<polygon fill="#757575" points="0,9 8,9 4,14 8,14 8,16 0,16 4,11 0,11 	" />
	<polygon fill="#BDBDBD" points="11,0 11,11 9,11 12,16 15,11 13,11 13,0 	" />
	<path fill="#757575" d="M6,8h2L5,0H3L0,8h2l0.7-2h2.7L6,8z M3.3,4L4,2l0.7,2H3.3z" />
</g>
</g>
<g transform="translate(198, 48)">
<g xmlns="http://www.w3.org/2000/svg">
	<polygon fill="#BDBDBD" points="0,9 8,9 4,14 8,14 8,16 0,16 4,11 0,11 	" />
	<polygon fill="#BDBDBD" points="11,0 11,11 9,11 12,16 15,11 13,11 13,0 	" />
	<path fill="#BDBDBD" d="M6,8h2L5,0H3L0,8h2l0.7-2h2.7L6,8z M3.3,4L4,2l0.7,2H3.3z" />
</g>
</g>
<g transform="translate(72, 48)">
<g xmlns="http://www.w3.org/2000/svg">
	<polygon fill="#757575" points="0,0 8,0 4,5 8,5 8,7 0,7 4,2 0,2 	" />
	<polygon fill="#BDBDBD" points="11,0 11,11 9,11 12,16 15,11 13,11 13,0 	" />
	<path fill="#757575" d="M6,16h2L5,8H3l-3,8h2l0.7-2h2.7L6,16z M3.3,12L4,10l0.7,2H3.3z" />
</g>
</g>
<g transform="translate(162, 48)">
<g xmlns="http://www.w3.org/2000/svg">
	<polygon fill="#BDBDBD" points="0,0 8,0 4,5 8,5 8,7 0,7 4,2 0,2 	" />
	<polygon fill="#BDBDBD" points="11,0 11,11 9,11 11.9,16 15,11 13,11 13,0 	" />
	<path fill="#BDBDBD" d="M6,16h2L5,8H3l-3,8h2l0.7-2h2.7L6,16z M3.3,12L4,10l0.7,2H3.3z" />
</g>
</g>
<g transform="translate(234, 48)">
<polygon fill="#757575" points="6,3 6,2 2,2 2,3 4,5 2,7 2,8 6,8 6,7 3,7 5,5 3,3 5,3 " xmlns="http://www.w3.org/2000/svg" />
<path fill="#757575" d="M13.7,8.5C13.5,8.3,13.1,8,12.5,8H10l-1,6h1l0.8-5h1.7c0.2,0,0.3,0.1,0.4,0.1C13,9.2,13,9.4,13,9.4L12.2,14h1&#xD;&#xA;	L14,9.6C14,9.2,14,8.8,13.7,8.5z" xmlns="http://www.w3.org/2000/svg" />
<rect x="0.2" y="7.3" transform="matrix(0.7071 -0.7071 0.7071 0.7071 -3.3137 7.9999)" fill="#757575" width="15.6" height="1.4" xmlns="http://www.w3.org/2000/svg" />
</g>
<g transform="translate(126, 48)">
<polygon fill="#bdbdbd" points="6,3 6,2 2,2 2,3 4,5 2,7 2,8 6,8 6,7 3,7 5,5 3,3 5,3 " xmlns="http://www.w3.org/2000/svg" />
<path fill="#bdbdbd" d="M13.7,8.5C13.5,8.3,13.1,8,12.5,8H10l-1,6h1l0.8-5h1.7c0.2,0,0.3,0.1,0.4,0.1C13,9.2,13,9.4,13,9.4L12.2,14h1&#xD;&#xA;	L14,9.6C14,9.2,14,8.8,13.7,8.5z" xmlns="http://www.w3.org/2000/svg" />
<rect x="0.2" y="7.3" transform="matrix(0.7071 -0.7071 0.7071 0.7071 -3.3137 7.9999)" fill="#bdbdbd" width="15.6" height="1.4" xmlns="http://www.w3.org/2000/svg" />
</g>
<g transform="translate(396, 48)">
<polygon fill="#757575" points="3,13 6,3 7.5,3 10,11.3 12.5,3 14,3 11,13 9.5,13 6.8,5 4.5,13 " xmlns="http://www.w3.org/2000/svg" />
</g>
<g transform="translate(378, 48)">
<polygon fill="#bdbdbd" points="3,13 6,3 7.5,3 10,11.3 12.5,3 14,3 11,13 9.5,13 6.8,5 4.5,13 " xmlns="http://www.w3.org/2000/svg" />
</g>
<g transform="translate(36, 66)">
<g xmlns="http://www.w3.org/2000/svg">
	<circle fill="#BDBDBD" cx="10.5" cy="4.5" r="3" />
	<path fill="#757575" d="M10.5,2C11.9,2,13,3.1,13,4.5S11.9,7,10.5,7S8,5.9,8,4.5S9.1,2,10.5,2 M10.5,1C8.5,1,7,2.6,7,4.5S8.5,8,10.5,8&#xD;&#xA;		S14,6.4,14,4.5S12.4,1,10.5,1L10.5,1z" />
</g>
<g xmlns="http://www.w3.org/2000/svg">
	<path fill="#757575" d="M8,15c1.7,0,3.3-0.5,4.5-1.5L14,15v-3.3V10h-1.3H9l2.1,2.1c-0.8,0.6-1.9,1.1-3.1,1.1c-3.9,0-6.5-1.8-7-4.1&#xD;&#xA;		C1.5,12.4,4.4,15,8,15z" />
</g>
</g>
<g transform="translate(414, 48)">
<g xmlns="http://www.w3.org/2000/svg">
	<circle fill="#bdbdbd" cx="10.5" cy="4.5" r="3" />
	<path fill="#bdbdbd" d="M10.5,2C11.9,2,13,3.1,13,4.5S11.9,7,10.5,7S8,5.9,8,4.5S9.1,2,10.5,2 M10.5,1C8.5,1,7,2.6,7,4.5S8.5,8,10.5,8&#xD;&#xA;		S14,6.4,14,4.5S12.4,1,10.5,1L10.5,1z" />
</g>
<g xmlns="http://www.w3.org/2000/svg">
	<path fill="#bdbdbd" d="M8,15c1.7,0,3.3-0.5,4.5-1.5L14,15v-3.3V10h-1.3H9l2.1,2.1c-0.8,0.6-1.9,1.1-3.1,1.1c-3.9,0-6.5-1.8-7-4.1&#xD;&#xA;		C1.5,12.4,4.4,15,8,15z" />
</g>
</g>
<g transform="translate(270, 102)">
<g xmlns="http://www.w3.org/2000/svg">
	<circle fill="#BDBDBD" cx="4.5" cy="11.5" r="2" />
	<path fill="#757575" d="M4.5,10C5.4,10,6,10.7,6,11.5S5.4,13,4.5,13S3,12.3,3,11.5S3.7,10,4.5,10 M4.5,9C3.2,9,2,10.1,2,11.5&#xD;&#xA;		S3.2,14,4.5,14S7,12.9,7,11.5S5.9,9,4.5,9L4.5,9z" />
</g>
<g xmlns="http://www.w3.org/2000/svg">
	<path fill="#757575" d="M8,2C6.3,2,4.7,2.5,3.5,3.5L2,2v3.3V7h1.3H7L4.9,4.9c0.9-0.6,2-1,3.1-1c3.9,0,6.5,1.8,7,4.1&#xD;&#xA;		C14.5,4.6,11.6,2,8,2z" />
</g>
</g>
<g transform="translate(414, 66)">
<g xmlns="http://www.w3.org/2000/svg">
	<circle fill="#bdbdbd" cx="4.5" cy="11.5" r="2" />
	<path fill="#bdbdbd" d="M4.5,10C5.4,10,6,10.7,6,11.5S5.4,13,4.5,13S3,12.3,3,11.5S3.7,10,4.5,10 M4.5,9C3.2,9,2,10.1,2,11.5&#xD;&#xA;		S3.2,14,4.5,14S7,12.9,7,11.5S5.9,9,4.5,9L4.5,9z" />
</g>
<g xmlns="http://www.w3.org/2000/svg">
	<path fill="#bdbdbd" d="M8,2C6.3,2,4.7,2.5,3.5,3.5L2,2v3.3V7h1.3H7L4.9,4.9c0.9-0.6,2-1,3.1-1c3.9,0,6.5,1.8,7,4.1&#xD;&#xA;		C14.5,4.6,11.6,2,8,2z" />
</g>
</g>
<g transform="translate(234, 102)">
<polygon fill="#757575" points="13,2 4,2 3,2 8,8 3,14 4,14 13,14 13,12 6.5,12 10,8 6.5,4 13,4 " xmlns="http://www.w3.org/2000/svg" />
<rect x="12" y="3.5" fill="#757575" width="1" height="1.5" xmlns="http://www.w3.org/2000/svg" />
<rect x="12" y="11" fill="#757575" width="1" height="1.5" xmlns="http://www.w3.org/2000/svg" />
</g>
<g transform="translate(396, 66)">
<polygon fill="#bdbdbd" points="13,2 4,2 3,2 8,8 3,14 4,14 13,14 13,12 6.5,12 10,8 6.5,4 13,4 " xmlns="http://www.w3.org/2000/svg" />
<rect x="12" y="3.5" fill="#bdbdbd" width="1" height="1.5" xmlns="http://www.w3.org/2000/svg" />
<rect x="12" y="11" fill="#bdbdbd" width="1" height="1.5" xmlns="http://www.w3.org/2000/svg" />
</g>
<g transform="translate(360, 66)">
<rect x="0" y="3" fill="#757575" width="12" height="4" xmlns="http://www.w3.org/2000/svg" />
<rect x="4" y="9" fill="#757575" width="12" height="4" xmlns="http://www.w3.org/2000/svg" />
</g>
<g transform="translate(0, 24)">
<style type="text/css" xmlns="http://www.w3.org/2000/svg">
	.st11117 {fill:#FFFFFF;}
</style>
<path class="st11117" d="M7.6,16.2l-5.7-5.6L0,12.5L7.6,20L22,4l-2-2L7.6,16.2z" xmlns="http://www.w3.org/2000/svg" />
</g>
<g transform="translate(48, 24)">
<style type="text/css" xmlns="http://www.w3.org/2000/svg">
	.st19118 {opacity:0.4;fill:#FFFFFF;}
</style>
<path class="st19118" d="M7.6,16.2l-5.7-5.6L0,12.5L7.6,20L22,4l-2-2L7.6,16.2z" xmlns="http://www.w3.org/2000/svg" />
</g>
<g transform="translate(48, 0)">
<style type="text/css" xmlns="http://www.w3.org/2000/svg">
	.st53119 {fill:#999999;}
	.st54119 {fill:#F44336;}
</style>
<path class="st53119" d="M3,5l12,0l0,0l0,0v2l0,0l-5,4v8l-2-2v-6L3,7l0,0V5z" xmlns="http://www.w3.org/2000/svg" />
<path class="st54119" d="M12,17.7l2.7-2.7L12,12.3l1.3-1.3l2.7,2.7l2.7-2.7l1.3,1.3L17.3,15l2.6,2.7L18.6,19L16,16.3L13.3,19L12,17.7" xmlns="http://www.w3.org/2000/svg" />
</g>
<g transform="translate(24, 0)">
<style type="text/css" xmlns="http://www.w3.org/2000/svg">
	.st55120 {opacity:0.5;}
	.st56120 {fill:#999999;}
</style>
<g id="9038953a-a9f8-4841-9da6-847d249a612a_2" class="st55120" xmlns="http://www.w3.org/2000/svg">
	<path class="st56120" d="M3,5l12,0l0,0l0,0v2l0,0l-5,4v8l-2-2v-6L3,7l0,0V5z" />
	<path class="st56120" d="M12,17.7l2.7-2.7L12,12.3l1.3-1.3l2.7,2.7l2.7-2.7l1.3,1.3L17.3,15l2.6,2.7L18.6,19L16,16.3L13.3,19L12,17.7" />
</g>
</g>
<g transform="translate(72, 0)">
<style type="text/css" xmlns="http://www.w3.org/2000/svg">
	.st20121 {fill-rule:evenodd;clip-rule:evenodd;fill:#FFFFFF;}
</style>
<path class="st20121" d="M20,18l-2,2l-7-7l-7,7l-2-2l7-7L2,4l2-2l7,7l7-7l2,2l-7,7L20,18z" xmlns="http://www.w3.org/2000/svg" />
</g>
<g transform="translate(116, 24)">
<style type="text/css" xmlns="http://www.w3.org/2000/svg">
	.st21122 {fill-rule:evenodd;clip-rule:evenodd;fill:#999999;}
</style>
<g xmlns="http://www.w3.org/2000/svg">
	<g>
		<path class="st21122" d="M5,4v2h8V4H5z M5,10h8V8H5V10z M5,14h8v-2H5V14z" />
	</g>
</g>
</g>
<g transform="translate(96, 24)">
<style type="text/css" xmlns="http://www.w3.org/2000/svg">
	.st42123 {opacity:0.5;}
	.st43123 {fill:#999999;}
</style>
<g class="st42123" xmlns="http://www.w3.org/2000/svg">
	<g>
		<path class="st43123" d="M5,4v2h8V4H5z M5,10h8V8H5V10z M5,14h8v-2H5V14z" />
	</g>
</g>
</g>
<g transform="translate(72, 24)">
<style type="text/css" xmlns="http://www.w3.org/2000/svg">
	.st40124 {fill-rule:evenodd;clip-rule:evenodd;fill:#999999;}
	.st41124 {fill-rule:evenodd;clip-rule:evenodd;fill:#FFFFFF;}
</style>
<path class="st40124" d="M11,22C4.9,22,0,17.1,0,11S4.9,0,11,0s11,4.9,11,11S17.1,22,11,22z" xmlns="http://www.w3.org/2000/svg" />
<path class="st41124" d="M17.7,8.7L9,17l-4.7-4.3l1.4-1.4L9,14.6l7.3-7.3L17.7,8.7z" xmlns="http://www.w3.org/2000/svg" />
</g>
<g transform="translate(336, 0)">
<style type="text/css" xmlns="http://www.w3.org/2000/svg">
	.st31125 {opacity:0.5;fill:#999999;}
	.st32125 {opacity:0.5;fill:#FFFFFF;}
</style>
<path class="st31125" d="M11,22C4.9,22,0,17.1,0,11S4.9,0,11,0s11,4.9,11,11S17.1,22,11,22z" xmlns="http://www.w3.org/2000/svg" />
<path class="st32125" d="M17.7,8.7L9,17l-4.7-4.3l1.4-1.4L9,14.6l7.3-7.3L17.7,8.7z" xmlns="http://www.w3.org/2000/svg" />
</g>
<g transform="translate(504, 0)">
<style type="text/css" xmlns="http://www.w3.org/2000/svg">
	.st22126 {fill:#999999;}
</style>
<path class="st22126" d="M11,5.5c2.8,0,5,2.2,5,5c0,0.6-0.1,1.3-0.4,1.8l2.9,2.9c1.5-1.3,2.7-2.9,3.4-4.8C20.3,6.1,16,3,11,3&#xD;&#xA;	C9.6,3,8.3,3.2,7,3.7l2.2,2.2C9.7,5.6,10.4,5.5,11,5.5z M1,2.8L3.3,5l0.5,0.5c-1.7,1.3-3,3-3.7,5C1.7,14.9,6,18,11,18&#xD;&#xA;	c1.6,0,3-0.3,4.4-0.8l0.4,0.4l2.9,2.9l1.3-1.3L2.3,1.5L1,2.8z M6.5,8.3l1.6,1.5C8,10.1,8,10.3,8,10.5c0,1.7,1.3,3,3,3&#xD;&#xA;	c0.2,0,0.4,0,0.7-0.1l1.6,1.5c-0.7,0.3-1.4,0.5-2.2,0.5c-2.8,0-5-2.2-5-5C6,9.7,6.2,9,6.5,8.3z M10.8,7.5l3.2,3.2l0-0.2&#xD;&#xA;	c0-1.7-1.3-3-3-3L10.8,7.5z" xmlns="http://www.w3.org/2000/svg" />
</g>
<g transform="translate(24, 24)">
<style type="text/css" xmlns="http://www.w3.org/2000/svg">
	.st26127 {opacity:0.5;fill:#999999;}
</style>
<path class="st26127" d="M11,5.5c2.8,0,5,2.2,5,5c0,0.6-0.1,1.3-0.4,1.8l2.9,2.9c1.5-1.3,2.7-2.9,3.4-4.8C20.3,6.1,16,3,11,3&#xD;&#xA;	C9.6,3,8.3,3.2,7,3.7l2.2,2.2C9.7,5.6,10.4,5.5,11,5.5z M1,2.8L3.3,5l0.5,0.5c-1.7,1.3-3,3-3.7,5C1.7,14.9,6,18,11,18&#xD;&#xA;	c1.6,0,3-0.3,4.4-0.8l0.4,0.4l2.9,2.9l1.3-1.3L2.3,1.5L1,2.8z M6.5,8.3l1.6,1.5C8,10.1,8,10.3,8,10.5c0,1.7,1.3,3,3,3&#xD;&#xA;	c0.2,0,0.4,0,0.7-0.1l1.6,1.5c-0.7,0.3-1.4,0.5-2.2,0.5c-2.8,0-5-2.2-5-5C6,9.7,6.2,9,6.5,8.3z M10.8,7.5l3.2,3.2v-0.2&#xD;&#xA;	c0-1.7-1.3-3-3-3H10.8z" xmlns="http://www.w3.org/2000/svg" />
</g>
<g transform="translate(456, 0)">
<style type="text/css" xmlns="http://www.w3.org/2000/svg">
	.st23128 {fill-rule:evenodd;clip-rule:evenodd;fill:#F44336;}
</style>
<path class="st23128" d="M11,22C4.9,22,0,17.1,0,11C0,4.9,4.9,0,11,0c6.1,0,11,4.9,11,11C22,17.1,17.1,22,11,22z M17.4,6.1l-1.5-1.5&#xD;&#xA;	L11,9.5L6.1,4.6L4.6,6.1L9.5,11l-4.9,4.9l1.5,1.5l4.9-4.9l4.9,4.9l1.5-1.5L12.5,11L17.4,6.1z" xmlns="http://www.w3.org/2000/svg" />
</g>
<g transform="translate(480, 0)">
<style type="text/css" xmlns="http://www.w3.org/2000/svg">
	.st47129 {opacity:0.5;}
	.st25129 {fill:#999999;}
</style>
<g class="st47129" xmlns="http://www.w3.org/2000/svg">
<path class="st25129" d="M11,22C4.9,22,0,17.1,0,11S4.9,0,11,0s11,4.9,11,11S17.1,22,11,22z M17.4,6.1l-1.5-1.5L11,9.5L6.1,4.6L4.6,6.1&#xD;&#xA;	L9.5,11l-4.9,4.9l1.5,1.5l4.9-4.9l4.9,4.9l1.5-1.5L12.5,11L17.4,6.1z" />
</g>
</g>
<g transform="translate(408, 0)">
<style type="text/css" xmlns="http://www.w3.org/2000/svg">
	.st24130 {fill:#999999;}
</style>
<path class="st24130" d="M11,3C6,3,1.7,6.1,0,10.5C1.7,14.9,6,18,11,18s9.3-3.1,11-7.5C20.3,6.1,16,3,11,3z M11,15.5c-2.8,0-5-2.2-5-5&#xD;&#xA;	s2.2-5,5-5s5,2.2,5,5S13.8,15.5,11,15.5z M11,7.5c-1.7,0-3,1.3-3,3s1.3,3,3,3s3-1.3,3-3S12.7,7.5,11,7.5z" xmlns="http://www.w3.org/2000/svg" />
</g>
<g transform="translate(432, 0)">
<style type="text/css" xmlns="http://www.w3.org/2000/svg">
	.st27131 {opacity:0.5;fill:#999999;}
</style>
<path class="st27131" d="M11,3C6,3,1.7,6.1,0,10.5C1.7,14.9,6,18,11,18s9.3-3.1,11-7.5C20.3,6.1,16,3,11,3z M11,15.5c-2.8,0-5-2.2-5-5&#xD;&#xA;	s2.2-5,5-5s5,2.2,5,5S13.8,15.5,11,15.5z M11,7.5c-1.7,0-3,1.3-3,3s1.3,3,3,3s3-1.3,3-3S12.7,7.5,11,7.5z" xmlns="http://www.w3.org/2000/svg" />
</g>
<g transform="translate(264, 0)">
<style type="text/css" xmlns="http://www.w3.org/2000/svg">
	.st40132 {fill-rule:evenodd;clip-rule:evenodd;fill:#999999;}
	.st41132 {fill-rule:evenodd;clip-rule:evenodd;fill:#FFFFFF;}
</style>
<path class="st40132" d="M11,22C4.9,22,0,17.1,0,11S4.9,0,11,0s11,4.9,11,11S17.1,22,11,22z" xmlns="http://www.w3.org/2000/svg" />
<path class="st41132" d="M17.7,8.7L9,17l-4.7-4.3l1.4-1.4L9,14.6l7.3-7.3L17.7,8.7z" xmlns="http://www.w3.org/2000/svg" />
</g>
<g transform="translate(384, 0)">
<style type="text/css" xmlns="http://www.w3.org/2000/svg">
	.st31133 {opacity:0.5;fill:#999999;}
	.st32133 {opacity:0.5;fill:#FFFFFF;}
</style>
<path class="st31133" d="M11,22C4.9,22,0,17.1,0,11S4.9,0,11,0s11,4.9,11,11S17.1,22,11,22z" xmlns="http://www.w3.org/2000/svg" />
<path class="st32133" d="M17.7,8.7L9,17l-4.7-4.3l1.4-1.4L9,14.6l7.3-7.3L17.7,8.7z" xmlns="http://www.w3.org/2000/svg" />
</g>
<g transform="translate(0, 0)">
<style type="text/css" xmlns="http://www.w3.org/2000/svg">
	.st33134 {opacity:0.8;fill:#999999;}
	.st34134 {opacity:0.6;fill:#999999;}
	.st35134 {fill:#999999;}
</style>
<rect x="6" y="10" class="st33134" width="10" height="2" xmlns="http://www.w3.org/2000/svg" />
<rect x="6" y="14" class="st34134" width="6" height="2" xmlns="http://www.w3.org/2000/svg" />
<polygon class="st35134" points="4,2 2,2 2,18 0,18 3,22 6,18 4,18 " xmlns="http://www.w3.org/2000/svg" />
<rect x="6" y="6" class="st35134" width="14" height="2" xmlns="http://www.w3.org/2000/svg" />
</g>
<g transform="translate(360, 0)">
<style type="text/css" xmlns="http://www.w3.org/2000/svg">
	.st45135 {opacity:0.5;}
    .st17135 {fill:#999999;}
</style>
<g class="st45135" xmlns="http://www.w3.org/2000/svg">
<rect x="6" y="10" class="st17135" width="10" height="2" />
<rect x="6" y="14" class="st17135" width="6" height="2" />
<polygon class="st17135" points="4,2 2,2 2,18 0,18 3,22 6,18 4,18 " />
<rect x="6" y="6" class="st17135" width="14" height="2" />
</g>
</g>
<g transform="translate(288, 0)">
<style type="text/css" xmlns="http://www.w3.org/2000/svg">
	.st28136 {opacity:0.8;fill:#999999;}
	.st29136 {opacity:0.6;fill:#999999;}
	.st30136 {fill:#999999;}
</style>
<rect x="6" y="10" class="st28136" width="10" height="2" xmlns="http://www.w3.org/2000/svg" />
<rect x="6" y="6" class="st29136" width="6" height="2" xmlns="http://www.w3.org/2000/svg" />
<polygon class="st30136" points="4,4 6,4 3,0 0,4 2,4 2,20 4,20 " xmlns="http://www.w3.org/2000/svg" />
<rect x="6" y="14" class="st30136" width="14" height="2" xmlns="http://www.w3.org/2000/svg" />
</g>
<g transform="translate(312, 0)">
<style type="text/css" xmlns="http://www.w3.org/2000/svg">
	.st46137 {opacity:0.5;}
	.st38137 {fill:#999999;enable-background:new    ;}
	.st39137 {fill:#999999;}
</style>
<g class="st46137" xmlns="http://www.w3.org/2000/svg">
<rect x="6" y="10" class="st38137" width="10" height="2" />
<rect x="6" y="6" class="st38137" width="6" height="2" />
<polygon class="st39137" points="4,4 6,4 3,0 0,4 2,4 2,20 4,20 " />
<rect x="6" y="14" class="st39137" width="14" height="2" />
</g>
</g>
<g transform="translate(216, 0)">
<style type="text/css" xmlns="http://www.w3.org/2000/svg">
	.st16138 {fill-rule:evenodd;clip-rule:evenodd;fill:#999999;}
</style>
<path class="st16138" d="M11,22C4.9,22,0,17.1,0,11S4.9,0,11,0s11,4.9,11,11S17.1,22,11,22z M11,2c-5,0-9,4-9,9s4,9,9,9s9-4,9-9&#xD;&#xA;	S16,2,11,2z" xmlns="http://www.w3.org/2000/svg" />
</g>
<g transform="translate(240, 0)">
<style type="text/css" xmlns="http://www.w3.org/2000/svg">
	.st44139 {opacity:0.5;}
	.st13139 {fill:#999999;}
</style>
<g class="st44139" xmlns="http://www.w3.org/2000/svg">
<path class="st13139" d="M11,22C4.9,22,0,17.1,0,11S4.9,0,11,0s11,4.9,11,11S17.1,22,11,22z M11,2c-5,0-9,4-9,9s4,9,9,9s9-4,9-9&#xD;&#xA;	S16,2,11,2z" />
</g>
</g>
<g transform="translate(168, 0)">
<style type="text/css" xmlns="http://www.w3.org/2000/svg">
	.st16140 {fill-rule:evenodd;clip-rule:evenodd;fill:#999999;}
</style>
<path class="st16140" d="M11,22C4.9,22,0,17.1,0,11S4.9,0,11,0s11,4.9,11,11S17.1,22,11,22z M11,2c-5,0-9,4-9,9s4,9,9,9s9-4,9-9&#xD;&#xA;	S16,2,11,2z" xmlns="http://www.w3.org/2000/svg" />
</g>
<g transform="translate(192, 0)">
<style type="text/css" xmlns="http://www.w3.org/2000/svg">
	.st44141 {opacity:0.5;}
	.st13141 {fill:#999999;}
</style>
<g class="st44141" xmlns="http://www.w3.org/2000/svg">
<path class="st13141" d="M11,22C4.9,22,0,17.1,0,11S4.9,0,11,0s11,4.9,11,11S17.1,22,11,22z M11,2c-5,0-9,4-9,9s4,9,9,9s9-4,9-9&#xD;&#xA;	S16,2,11,2z" />
</g>
</g>
<g transform="translate(319, 120)">
<style type="text/css" xmlns="http://www.w3.org/2000/svg">
	.st12142 {fill-rule:evenodd;clip-rule:evenodd;fill:#666666;}
</style>
<path class="st12142" d="M13,9L6.5,3L0,9H13z" xmlns="http://www.w3.org/2000/svg" />
</g>
<g transform="translate(304, 120)">
<style type="text/css" xmlns="http://www.w3.org/2000/svg">
	.st14143 {fill-rule:evenodd;clip-rule:evenodd;fill:#666666;}
</style>
<path class="st14143" d="M0,3l6.5,6L13,3H0z" xmlns="http://www.w3.org/2000/svg" />
</g>
<g transform="translate(144, 0)">
<style type="text/css" xmlns="http://www.w3.org/2000/svg">
	.st15144 {fill:#999999;}
</style>
<path class="st15144" d="M4,8.5l7,6.5l7-6.5L16.4,7L11,11.9L5.6,7L4,8.5z" xmlns="http://www.w3.org/2000/svg" />
</g>
<g transform="translate(120, 0)">
<style type="text/css" xmlns="http://www.w3.org/2000/svg">
	.st10145 {fill:#999999;}
</style>
<path class="st10145" d="M5.6,15l5.4-4.9l5.4,4.9l1.6-1.5L11,7l-7,6.5L5.6,15z" xmlns="http://www.w3.org/2000/svg" />
</g>
<g transform="translate(334, 120)">
<path fill="#757575" d="M0,10.5L1.5,12l6-6l-6-6L0,1.4L4.5,6L0,10.5z" xmlns="http://www.w3.org/2000/svg" />
</g>
<g transform="translate(404, 120)">
<style type="text/css" xmlns="http://www.w3.org/2000/svg">
	.st0147 {fill:#757575;}
</style>
<path id="_x32_" class="st0147" d="M3,6l4.5-4.6L6,0L0,6l6,6l1.5-1.5L3,6z" xmlns="http://www.w3.org/2000/svg" />
</g>
<g transform="translate(362, 120)">
<path fill="#757575" d="M0,10.5L1.5,12l6-6l-6-6L0,1.4L4.5,6L0,10.5z" xmlns="http://www.w3.org/2000/svg" />
</g>
<g transform="translate(446, 120)">
<style type="text/css" xmlns="http://www.w3.org/2000/svg">
	.st0149 {fill:#757575;}
</style>
<path id="_x32_" class="st0149" d="M3,6l4.5-4.6L6,0L0,6l6,6l1.5-1.5L3,6z" xmlns="http://www.w3.org/2000/svg" />
</g>
<g transform="translate(0, 138)">
<path fill="#757575" d="M1.5,2.5L0,4l6,6l6-6l-1.5-1.5L6,7L1.5,2.5z" xmlns="http://www.w3.org/2000/svg" />
</g>
<g transform="translate(348, 120)">
<path fill="#757575" d="M1.5,2.5L0,4l6,6l6-6l-1.5-1.5L6,7L1.5,2.5z" xmlns="http://www.w3.org/2000/svg" />
</g>
<g transform="translate(147, 138)">
<polygon fill="#BDBDBD" points="4,0 4,4 1,4 6,9 11,4 8,4 8,0 " xmlns="http://www.w3.org/2000/svg" />
</g>
<g transform="translate(123, 138)">
<polygon fill="#BDBDBD" points="9,3 5,3 5,0 0,5 5,10 5,7 9,7 " xmlns="http://www.w3.org/2000/svg" />
</g>
<g transform="translate(112, 138)">
<polygon fill="#BDBDBD" points="0,7 4,7 4,10 9,5 4,0 4,3 0,3 " xmlns="http://www.w3.org/2000/svg" />
</g>
<g transform="translate(134, 138)">
<polygon fill="#BDBDBD" points="8,9 8,5 11,5 6,0 1,5 4,5 4,9 " xmlns="http://www.w3.org/2000/svg" />
</g>
<g transform="translate(54, 66)">
<path fill="#EF5551" d="M8,2C4.7,2,2,4.7,2,8s2.7,6,6,6s6-2.7,6-6S11.3,2,8,2z M11,10l-1,1L8,9l-2,2l-1-1l2-2L5,6l1-1l2,2&#xD;&#xA;	l2-2l1,1L9,8L11,10z" xmlns="http://www.w3.org/2000/svg" />
</g>
<g transform="translate(98, 138)">
<path fill="#757575" d="M1.5,2.5L0,4l6,6l6-6l-1.5-1.5L6,7L1.5,2.5z" xmlns="http://www.w3.org/2000/svg" />
</g>
<g transform="translate(474, 120)">
<path fill="#757575" d="M1.5,2.5L0,4l6,6l6-6l-1.5-1.5L6,7L1.5,2.5z" xmlns="http://www.w3.org/2000/svg" />
</g>
<g transform="translate(522, 84)">
<polygon fill="#BDBDBD" points="2,1 12,1 12,3 8,6 8,11 6,13 6,6 2,3 " xmlns="http://www.w3.org/2000/svg" />
</g>
<g transform="translate(72, 120)">
<g xmlns="http://www.w3.org/2000/svg">
	<rect y="8" fill="#084298" width="14" height="6" />
	<polygon fill="#084298" points="4,6 16,6 16,10 18,10 18,4 4,4 	" />
	<polygon fill="#084298" points="8,0 8,2 20,2 20,6 22,6 22,0 	" />
</g>
</g>
<g transform="translate(240, 120)">
<polygon fill="#BDBDBD" points="2,1 12,1 12,3 8,6 8,11 6,13 6,6 2,3 " xmlns="http://www.w3.org/2000/svg" />
</g>
<g transform="translate(128, 120)">
<polygon fill="#084298" points="2,1 12,1 12,3 8,6 8,11 6,13 6,6 2,3 " xmlns="http://www.w3.org/2000/svg" />
</g>
<g transform="translate(418, 120)">
<polygon fill="#BDBDBD" points="7,0 7,9 8.5,7 9.5,8 6,12 2.5,8 3.5,7 5,9 5,0 " xmlns="http://www.w3.org/2000/svg" />
</g>
<g transform="translate(390, 120)">
<polygon fill="#BDBDBD" points="5,12 5,3 3.5,5 2.5,4 6,0 9.5,4 8.5,5 7,3 7,12 " xmlns="http://www.w3.org/2000/svg" />
</g>
<g transform="translate(36, 48)">
<polygon points="4,13 3,12 7,8 3,4 4,3 8,7 12,3 13,4 9,8 13,12 12,13 8,9 " xmlns="http://www.w3.org/2000/svg" />
</g>
<g transform="translate(96, 0)">
<g xmlns="http://www.w3.org/2000/svg">
	<rect x="6" y="3" fill="#BDBDBD" width="12" height="2" />
	<rect x="10" y="10" fill="#BDBDBD" width="12" height="2" />
	<rect x="10" y="17" fill="#BDBDBD" width="12" height="2" />
	<circle fill="#BDBDBD" cx="2" cy="4" r="2" />
	<circle fill="#BDBDBD" cx="6" cy="11" r="2" />
	<circle fill="#BDBDBD" cx="6" cy="18" r="2" />
</g>
</g>
<g transform="translate(414, 84)">
<circle fill="#757575" cx="2" cy="8" r="2" xmlns="http://www.w3.org/2000/svg" />
<circle fill="#757575" cx="8" cy="8" r="2" xmlns="http://www.w3.org/2000/svg" />
<circle fill="#757575" cx="14" cy="8" r="2" xmlns="http://www.w3.org/2000/svg" />
</g>
<g transform="translate(72, 102)">
<g xmlns="http://www.w3.org/2000/svg">
	<path fill="#757575" d="M13.6,3.9C12.4,2.1,10.3,1,8,1C4.8,1,2.2,3.1,1.3,6h1.9C3.9,4.1,5.8,2.8,8,2.8c1.8,0,3.4,1,4.4,2.4L10.5,7h2.6&#xD;&#xA;		h1.8H15V2.5L13.6,3.9z" />
	<path fill="#757575" d="M8.2,13.3c-1.7,0-3.2-1-4.2-2.3l2-2H3.1H1.3H1v5l1.8-1.8C4.1,13.8,6,15,8.2,15c3.2,0,5.8-2.1,6.7-5H13&#xD;&#xA;		C12.3,11.9,10.4,13.3,8.2,13.3z" />
</g>
</g>
<g transform="translate(160, 120)">
<g xmlns="http://www.w3.org/2000/svg">
	<g>
		<rect x="12" y="12" fill="#BDBDBD" width="2" height="2" />
		<rect x="12" y="8" fill="#BDBDBD" width="2" height="2" />
		<rect x="12" y="4" fill="#BDBDBD" width="2" height="2" />
		<rect x="12" fill="#BDBDBD" width="2" height="2" />
		<rect x="8" y="12" fill="#BDBDBD" width="2" height="2" />
		<rect x="8" y="8" fill="#BDBDBD" width="2" height="2" />
		<rect x="8" y="4" fill="#BDBDBD" width="2" height="2" />
		<rect x="4" y="12" fill="#BDBDBD" width="2" height="2" />
		<rect x="4" y="8" fill="#BDBDBD" width="2" height="2" />
		<rect y="12" fill="#BDBDBD" width="2" height="2" />
	</g>
</g>
</g>
<g transform="translate(96, 120)">
<g xmlns="http://www.w3.org/2000/svg">
	<g>
		<rect x="0" y="12" fill="#BDBDBD" width="2" height="2" />
		<rect x="0" y="8" fill="#BDBDBD" width="2" height="2" />
		<rect x="0" y="4" fill="#BDBDBD" width="2" height="2" />
		<rect x="0" y="0" fill="#BDBDBD" width="2" height="2" />
		<rect x="4" y="12" fill="#BDBDBD" width="2" height="2" />
		<rect x="4" y="8" fill="#BDBDBD" width="2" height="2" />
		<rect x="4" y="4" fill="#BDBDBD" width="2" height="2" />
		<rect x="8" y="12" fill="#BDBDBD" width="2" height="2" />
		<rect x="8" y="8" fill="#BDBDBD" width="2" height="2" />
		<rect x="12" y="12" fill="#BDBDBD" width="2" height="2" />
	</g>
</g>
</g>
<g transform="translate(198, 102)">
<circle fill="#FFF" cx="2" cy="8" r="2" xmlns="http://www.w3.org/2000/svg" />
<circle fill="#FFF" cx="8" cy="8" r="2" xmlns="http://www.w3.org/2000/svg" />
<circle fill="#FFF" cx="14" cy="8" r="2" xmlns="http://www.w3.org/2000/svg" />
</g>
<g transform="translate(460, 120)">
<path fill="#FFFFFF" d="M0,10.5L1.5,12l6-6l-6-6L0,1.4L4.5,6L0,10.5z" xmlns="http://www.w3.org/2000/svg" />
</g>
<g transform="translate(502, 120)">
<style type="text/css" xmlns="http://www.w3.org/2000/svg">
	.st0173 {fill:#FFFFFF;}
</style>
<path id="_x32_" class="st0173" d="M3,6l4.5-4.6L6,0L0,6l6,6l1.5-1.5L3,6z" xmlns="http://www.w3.org/2000/svg" />
</g>
<g transform="translate(56, 138)">
<path fill="#FFFFFF" d="M0,10.5L1.5,12l6-6l-6-6L0,1.4L4.5,6L0,10.5z" xmlns="http://www.w3.org/2000/svg" />
</g>
<g transform="translate(516, 120)">
<style type="text/css" xmlns="http://www.w3.org/2000/svg">
	.st0175 {fill:#FFFFFF;}
</style>
<path id="_x32_" class="st0175" d="M3,6l4.5-4.6L6,0L0,6l6,6l1.5-1.5L3,6z" xmlns="http://www.w3.org/2000/svg" />
</g>
<g transform="translate(488, 120)">
<path fill="#FFFFFF" d="M1.5,2.5L0,4l6,6l6-6l-1.5-1.5L6,7L1.5,2.5z" xmlns="http://www.w3.org/2000/svg" />
</g>
<g transform="translate(70, 138)">
<path fill="#FFFFFF" d="M1.5,2.5L0,4l6,6l6-6l-1.5-1.5L6,7L1.5,2.5z" xmlns="http://www.w3.org/2000/svg" />
</g>
<g transform="translate(84, 138)">
<path fill="#FFFFFF" d="M1.5,2.5L0,4l6,6l6-6l-1.5-1.5L6,7L1.5,2.5z" xmlns="http://www.w3.org/2000/svg" />
</g>
<g transform="translate(14, 138)">
<path fill="#FFFFFF" d="M1.5,2.5L0,4l6,6l6-6l-1.5-1.5L6,7L1.5,2.5z" xmlns="http://www.w3.org/2000/svg" />
</g>
<g transform="translate(42, 138)">
<path fill="#FFFFFF" d="M0,10.5L1.5,12l6-6l-6-6L0,1.4L4.5,6L0,10.5z" xmlns="http://www.w3.org/2000/svg" />
</g>
<g transform="translate(28, 138)">
<style type="text/css" xmlns="http://www.w3.org/2000/svg">
	.st0181 {fill:#FFFFFF;}
</style>
<path id="_x32_" class="st0181" d="M3,6l4.5-4.6L6,0L0,6l6,6l1.5-1.5L3,6z" xmlns="http://www.w3.org/2000/svg" />
</g>
<g transform="translate(376, 120)">
<path fill="#FFFFFF" d="M1.5,2.5L0,4l6,6l6-6l-1.5-1.5L6,7L1.5,2.5z" xmlns="http://www.w3.org/2000/svg" />
</g>
<g transform="translate(432, 120)">
<path fill="#FFFFFF" d="M1.5,2.5L0,4l6,6l6-6l-1.5-1.5L6,7L1.5,2.5z" xmlns="http://www.w3.org/2000/svg" />
</g>
<g transform="translate(108, 102)">
<circle fill="#FFFFFF" cx="2" cy="8" r="2" xmlns="http://www.w3.org/2000/svg" />
<circle fill="#FFFFFF" cx="8" cy="8" r="2" xmlns="http://www.w3.org/2000/svg" />
<circle fill="#FFFFFF" cx="14" cy="8" r="2" xmlns="http://www.w3.org/2000/svg" />
</g>
<g transform="translate(54, 84)">
<circle fill="#757575" cx="2" cy="8" r="2" xmlns="http://www.w3.org/2000/svg" />
<circle fill="#757575" cx="8" cy="8" r="2" xmlns="http://www.w3.org/2000/svg" />
<circle fill="#757575" cx="14" cy="8" r="2" xmlns="http://www.w3.org/2000/svg" />
</g>
<g transform="translate(36, 84)">
<path fill="#FFFFFF" d="M12,0H0v10h4h1l0,0V9l0,0V7l0,0V6l0,0V4h8V3V0H12z M1,1h3v2H1V1z M4,9H1V7h3V9z M4,6H1V4h3V6z M5,3V1h3v2H5z&#xD;&#xA;	 M9,3V1h3v2H9z" xmlns="http://www.w3.org/2000/svg" />
<g xmlns="http://www.w3.org/2000/svg">
	<path fill="#FFFFFF" d="M4,3v13h12V3H4z M15,15H5V4h10V15z" />
	<rect x="6" y="8" fill="#FFFFFF" width="8" height="1" />
	<rect x="6" y="10" fill="#FFFFFF" width="8" height="1" />
	<rect x="6" y="12" fill="#FFFFFF" width="8" height="1" />
	<rect x="6" y="6" fill="#FFFFFF" width="8" height="1" />
</g>
</g>
<g transform="translate(18, 84)">
<g xmlns="http://www.w3.org/2000/svg">
	<path fill="#FFFFFF" d="M11.5,15C9,15,7,13.4,7,11.5S9,8,11.5,8S16,9.6,16,11.5S14,15,11.5,15z M11.5,9C10.1,9,9,10.1,9,11.5&#xD;&#xA;		s1.1,2.5,2.5,2.5s2.5-1.1,2.5-2.5S12.9,9,11.5,9z M11.5,13c-0.8,0-1.5-0.7-1.5-1.5s0.7-1.5,1.5-1.5s1.5,0.7,1.5,1.5&#xD;&#xA;		S12.3,13,11.5,13z M6,12l-2,2V7L0,4V2h10v2L6,7V12z" />
</g>
</g>
<g transform="translate(252, 84)">
<g xmlns="http://www.w3.org/2000/svg">
	<path fill="#FFFFFF" d="M15,6v2h-4V6h-1v2H6V6H5v2H1V6H0v2v1v2v1v2v1h16v-1v-2v-1V9V8V6H15z M10,9v2H6V9H10z M1,9h4v2H1V9z M1,14v-2h4&#xD;&#xA;		v2H1z M6,14v-2h4v2H6z M15,14h-4v-2h4V14z M15,11h-4V9h4V11z" />
	<path fill="#FFFFFF" d="M0,1v5h16V1H0z M5,4H1V3h4V4z M10,4H6V3h4V4z" />
</g>
</g>
<g transform="translate(288, 120)">
<g xmlns="http://www.w3.org/2000/svg">
	<path fill="#FFFFFF" d="M9.9,9.3h0.7l3.4,3.4L12.7,14l-3.4-3.4V9.9L9.1,9.7c-1,0.8-2.2,1.3-3.6,1.3C2.5,11,0,8.6,0,5.5&#xD;&#xA;		C0,2.5,2.5,0,5.5,0C8.6,0,11,2.5,11,5.5c0,1.4-0.5,2.6-1.3,3.6L9.9,9.3z M5.5,2C3.6,2,2,3.6,2,5.5S3.6,9,5.5,9S9,7.4,9,5.5&#xD;&#xA;		S7.4,2,5.5,2z" />
</g>
</g>
<g transform="translate(324, 102)">
<g xmlns="http://www.w3.org/2000/svg">
	<polygon fill="#FFFFFF" points="14,14 15,13 13,11 15,9 14,8 12,10 10,8 9,9 11,11 9,13 10,14 12,12 	" />
</g>
<polygon fill="#FFFFFF" points="0,2 10,2 10,4 6,7 6,12 4,14 4,7 0,4 " xmlns="http://www.w3.org/2000/svg" />
</g>
<g transform="translate(72, 84)">
<g xmlns="http://www.w3.org/2000/svg">
	<polygon fill="#FFFFFF" points="11,2 10,3 12,5 10,7 11,8 13,6 15,8 16,7 14,5 16,3 15,2 13,4 	" />
</g>
<rect y="3" fill="#FFFFFF" width="8" height="4" xmlns="http://www.w3.org/2000/svg" />
<rect x="4" y="10" fill="#FFFFFF" width="12" height="4" xmlns="http://www.w3.org/2000/svg" />
</g>
<g transform="translate(360, 102)">
<path fill="#FFFFFF" d="M1,1v14h14V1H1z M12,9H9v3H7V9H4V7h3V4h2v3h3V9z" xmlns="http://www.w3.org/2000/svg" />
</g>
<g transform="translate(108, 84)">
<path fill="#FFFFFF" d="M1,1v14h14V1H1z M12,9H9v3H7V9H4V7h3V4h2v3h3V9z" xmlns="http://www.w3.org/2000/svg" />
</g>
<g transform="translate(288, 102)">
<polygon fill="#FFFFFF" points="14,4 12,2 8,6 4,2 2,4 6,8 2,12 4,14 8,10 12,14 14,12 10,8 " xmlns="http://www.w3.org/2000/svg" />
</g>
<g transform="translate(90, 102)">
<g xmlns="http://www.w3.org/2000/svg">
	<path fill="#FFFFFF" d="M10,2l-8,8v4h3.9L14,6L10,2z M5,13l-2-2l6-6l2,2L5,13z" />
	<rect x="9" y="13" fill="#FFFFFF" width="5" height="1" />
</g>
</g>
<g transform="translate(36, 120)">
<path fill="#FFFFFF" d="M1,1v14h14V1H1z M12,9H4V7h8V9z" xmlns="http://www.w3.org/2000/svg" />
</g>
<g transform="translate(162, 102)">
<path fill="#FFFFFF" d="M1,1v14h14V1H1z M12,9H4V7h8V9z" xmlns="http://www.w3.org/2000/svg" />
</g>
<g transform="translate(144, 102)">
<path fill="#FFFFFF" d="M7,0v9h9V0H7z M14,5h-2v2h-1V5H9V4h2V2h1v2h2V5z" xmlns="http://www.w3.org/2000/svg" />
<path fill="#FFFFFF" d="M0,7v9h9V7H0z M7,12H5v2H4v-2H2v-1h2V9h1v2h2V12z" xmlns="http://www.w3.org/2000/svg" />
</g>
<g transform="translate(18, 102)">
<g xmlns="http://www.w3.org/2000/svg">
	<path fill="#FFFFFF" d="M7,0v9h9V0H7z M14,5H9V4h5V5z" />
	<path fill="#FFFFFF" d="M0,7v9h9V7H0z M7,12H2v-1h5V12z" />
</g>
</g>
<g transform="translate(54, 48)">
<circle fill="#FFFFFF" cx="0.2" cy="3" r="0" xmlns="http://www.w3.org/2000/svg" />
<rect y="3" fill="#FFFFFF" width="12" height="4" xmlns="http://www.w3.org/2000/svg" />
<rect x="4" y="9" fill="#FFFFFF" width="12" height="4" xmlns="http://www.w3.org/2000/svg" />
</g>
<g transform="translate(216, 102)">
<path fill="#FFFFFF" d="M8,1C4.1,1,1,4.1,1,8s3.1,7,7,7s7-3.1,7-7S11.9,1,8,1z M12,9H9v3H7V9H4V7h3V4h2v3h3V9z" xmlns="http://www.w3.org/2000/svg" />
</g>
<g transform="translate(90, 48)">
<g xmlns="http://www.w3.org/2000/svg">
	<path fill="#FFFFFF" d="M13.6,3.9C12.4,2.1,10.3,1,8,1C4.8,1,2.2,3.1,1.3,6h1.9C3.9,4.1,5.8,2.8,8,2.8c1.8,0,3.4,1,4.4,2.4L10.5,7h2.6&#xD;&#xA;		h1.8H15V2.5L13.6,3.9z" />
	<path fill="#FFFFFF" d="M8.2,13.3c-1.7,0-3.2-1-4.2-2.3l2-2H3.1H1.3H1v5l1.8-1.8C4.1,13.8,6,15,8.2,15c3.2,0,5.8-2.1,6.7-5H13&#xD;&#xA;		C12.3,11.9,10.4,13.3,8.2,13.3z" />
</g>
</g>
<g transform="translate(522, 102)">
<g xmlns="http://www.w3.org/2000/svg">
	<path fill="#FFFFFF" d="M9.9,9.3h0.7l3.4,3.4L12.7,14l-3.4-3.4V9.9L9.1,9.7c-1,0.8-2.2,1.3-3.6,1.3C2.5,11,0,8.6,0,5.5&#xD;&#xA;		C0,2.5,2.5,0,5.5,0C8.6,0,11,2.5,11,5.5c0,1.4-0.5,2.6-1.3,3.6L9.9,9.3z M5.5,2C3.6,2,2,3.6,2,5.5S3.6,9,5.5,9S9,7.4,9,5.5&#xD;&#xA;		S7.4,2,5.5,2z" />
</g>
</g>
<g transform="translate(108, 48)">
<path fill="#FFFFFF" d="M12,0H0v10h4h1l0,0V9l0,0V7l0,0V6l0,0V4h8V3V0H12z M1,1h3v2H1V1z M4,9H1V7h3V9z M4,6H1V4h3V6z M5,3V1h3v2H5z&#xD;&#xA;	 M9,3V1h3v2H9z" xmlns="http://www.w3.org/2000/svg" />
<g xmlns="http://www.w3.org/2000/svg">
	<path fill="#FFFFFF" d="M4,3v13h12V3H4z M15,15H5V4h10V15z" />
	<rect x="6" y="8" fill="#FFFFFF" width="8" height="1" />
	<rect x="6" y="10" fill="#FFFFFF" width="8" height="1" />
	<rect x="6" y="12" fill="#FFFFFF" width="8" height="1" />
	<rect x="6" y="6" fill="#FFFFFF" width="8" height="1" />
</g>
</g>
<g transform="translate(522, 48)">
<polygon fill="#FFFFFF" points="2,1 12,1 12,3 8,6 8,11 6,13 6,6 2,3 " xmlns="http://www.w3.org/2000/svg" />
</g>
<g transform="translate(450, 48)">
<g xmlns="http://www.w3.org/2000/svg">
	<path fill="#FFFFFF" d="M15,6v2h-4V6h-1v2H6V6H5v2H1V6H0v2v1v2v1v2v1h16v-1v-2v-1V9V8V6H15z M10,9v2H6V9H10z M1,9h4v2H1V9z M1,14v-2h4&#xD;&#xA;		v2H1z M6,14v-2h4v2H6z M15,14h-4v-2h4V14z M15,11h-4V9h4V11z" />
	<path fill="#FFFFFF" d="M0,1v5h16V1H0z M5,4H1V3h4V4z M10,4H6V3h4V4z" />
</g>
</g>
<g transform="translate(272, 120)">
<g xmlns="http://www.w3.org/2000/svg">
	<path fill="#FFFFFF" d="M9.9,9.3h0.7l3.4,3.4L12.7,14l-3.4-3.4V9.9L9.1,9.7c-1,0.8-2.2,1.3-3.6,1.3C2.5,11,0,8.6,0,5.5&#xD;&#xA;		C0,2.5,2.5,0,5.5,0C8.6,0,11,2.5,11,5.5c0,1.4-0.5,2.6-1.3,3.6L9.9,9.3z M5.5,2C3.6,2,2,3.6,2,5.5S3.6,9,5.5,9S9,7.4,9,5.5&#xD;&#xA;		S7.4,2,5.5,2z" />
</g>
</g>
<g transform="translate(468, 48)">
<g xmlns="http://www.w3.org/2000/svg">
	<polygon fill="#FFFFFF" points="0,9 8,9 4,14 8,14 8,16 0,16 4,11 0,11 	" />
	<polygon fill="#FFFFFF" points="11,0 11,11 9,11 12,16 15,11 13,11 13,0 	" />
	<path fill="#FFFFFF" d="M6,8h2L5,0H3L0,8h2l0.7-2h2.7L6,8z M3.3,4L4,2l0.7,2H3.3z" />
</g>
</g>
<g transform="translate(396, 84)">
<g xmlns="http://www.w3.org/2000/svg">
	<polygon fill="#FFFFFF" points="0,0 8,0 4,5 8,5 8,7 0,7 4,2 0,2 	" />
	<polygon fill="#FFFFFF" points="11,0 11,11 9,11 12,16 15,11 13,11 13,0 	" />
	<path fill="#FFFFFF" d="M6,16h2L5,8H3l-3,8h2l0.7-2h2.7L6,16z M3.3,12L4,10l0.7,2H3.3z" />
</g>
</g>
<g transform="translate(378, 84)">
<polygon fill="#FFFFFF" points="6,3 6,2 2,2 2,3 4,5 2,7 2,8 6,8 6,7 3,7 5,5 3,3 5,3 " xmlns="http://www.w3.org/2000/svg" />
<path fill="#FFFFFF" d="M13.7,8.5C13.5,8.3,13.1,8,12.5,8H10l-1,6h1l0.8-5h1.7c0.2,0,0.3,0.1,0.4,0.1C13,9.2,13,9.4,13,9.4L12.2,14h1&#xD;&#xA;	L14,9.6C14,9.2,14,8.8,13.7,8.5z" xmlns="http://www.w3.org/2000/svg" />
<rect x="0.2" y="7.3" transform="matrix(0.7071 -0.7071 0.7071 0.7071 -3.3137 7.9999)" fill="#FFFFFF" width="15.6" height="1.4" xmlns="http://www.w3.org/2000/svg" />
</g>
<g transform="translate(252, 66)">
<polygon fill="#FFFFFF" points="3,13 6,3 7.5,3 10,11.3 12.5,3 14,3 11,13 9.5,13 6.8,5 4.5,13 " xmlns="http://www.w3.org/2000/svg" />
</g>
<g transform="translate(342, 102)">
<g xmlns="http://www.w3.org/2000/svg">
	<circle fill="#FFFFFF" cx="10.5" cy="4.5" r="3" />
	<path fill="#FFFFFF" d="M10.5,2C11.9,2,13,3.1,13,4.5S11.9,7,10.5,7S8,5.9,8,4.5S9.1,2,10.5,2 M10.5,1C8.5,1,7,2.6,7,4.5S8.5,8,10.5,8&#xD;&#xA;		S14,6.4,14,4.5S12.4,1,10.5,1L10.5,1z" />
</g>
<g xmlns="http://www.w3.org/2000/svg">
	<path fill="#FFFFFF" d="M8,15c1.7,0,3.3-0.5,4.5-1.5L14,15v-3.3V10h-1.3H9l2.1,2.1c-0.8,0.6-1.9,1.1-3.1,1.1c-3.9,0-6.5-1.8-7-4.1&#xD;&#xA;		C1.5,12.4,4.4,15,8,15z" />
</g>
</g>
<g transform="translate(432, 48)">
<g xmlns="http://www.w3.org/2000/svg">
	<circle fill="#FFFFFF" cx="4.5" cy="11.5" r="2" />
	<path fill="#FFFFFF" d="M4.5,10C5.4,10,6,10.7,6,11.5S5.4,13,4.5,13S3,12.3,3,11.5S3.7,10,4.5,10 M4.5,9C3.2,9,2,10.1,2,11.5&#xD;&#xA;		S3.2,14,4.5,14S7,12.9,7,11.5S5.9,9,4.5,9L4.5,9z" />
</g>
<g xmlns="http://www.w3.org/2000/svg">
	<path fill="#FFFFFF" d="M8,2C6.3,2,4.7,2.5,3.5,3.5L2,2v3.3V7h1.3H7L4.9,4.9c0.9-0.6,2-1,3.1-1c3.9,0,6.5,1.8,7,4.1&#xD;&#xA;		C14.5,4.6,11.6,2,8,2z" />
</g>
</g>
<g transform="translate(360, 84)">
<polygon fill="#FFFFFF" points="13,2 4,2 3,2 8,8 3,14 4,14 13,14 13,12 6.5,12 10,8 6.5,4 13,4 " xmlns="http://www.w3.org/2000/svg" />
<rect x="12" y="3.5" fill="#FFFFFF" width="1" height="1.5" xmlns="http://www.w3.org/2000/svg" />
<rect x="12" y="11" fill="#FFFFFF" width="1" height="1.5" xmlns="http://www.w3.org/2000/svg" />
</g>
<g transform="translate(334, 24)">
<rect x="0" y="3" fill="#FFFFFF" width="12" height="4" xmlns="http://www.w3.org/2000/svg" />
<rect x="4" y="9" fill="#FFFFFF" width="12" height="4" xmlns="http://www.w3.org/2000/svg" />
</g>

</svg>

