<?xml version="1.0" encoding="utf-8"?>
<!-- Generator: Adobe Illustrator 19.2.1, SVG Export Plug-In . SVG Version: 6.00 Build 0)  -->
<svg version="1.1" id="Layer_1" xmlns="http://www.w3.org/2000/svg" xmlns:xlink="http://www.w3.org/1999/xlink" x="0px" y="0px"
	 viewBox="0 0 36 136" style="enable-background:new 0 0 36 136;" xml:space="preserve" width="36px" height="136px">
<path fill="#C2C2C1" d="M18,27.3L29.1,34l-3-12.6L36,13l-12.9-1.1L18,0l-5.1,11.9L0,13l9.8,8.5L6.9,34L18,27.3z"/>
<path fill="#062F6C" d="M18,61.3L29.1,68l-3-12.6L36,47l-12.9-1.1L18,34l-5.1,11.9L0,47l9.8,8.5L6.9,68L18,61.3z"/>
<path fill="#084298" d="M18,95.3l11.1,6.7l-3-12.6L36,81l-12.9-1.1L18,68l-5.1,11.9L0,81l9.8,8.5L6.9,102L18,95.3z"/>
<path fill="#084298" d="M18,129.3l11.1,6.7l-3-12.6L36,115l-12.9-1.1L18,102l-5.1,11.9L0,115l9.8,8.5L6.9,136L18,129.3z"/>
</svg>

