<?xml version="1.0" encoding="utf-8"?>

<svg version="1.1" xmlns="http://www.w3.org/2000/svg" xmlns:xlink="http://www.w3.org/1999/xlink" width="538" height="396">
<g transform="translate(522, 364)">
<polygon fill="#666666" points="3,1 4,0 10,6 10,6 10,6 4,12 3,11 8,6 " xmlns="http://www.w3.org/2000/svg" />
</g>
<g transform="translate(446, 224)">
<polygon fill="#666666" points="9,1 8,0 2,6 2,6 2,6 8,12 9,11 4,6 " xmlns="http://www.w3.org/2000/svg" />
</g>
<g transform="translate(518, 310)">
<polygon fill="#666666" points="3,1 4,0 10,6 10,6 10,6 4,12 3,11 8,6 " xmlns="http://www.w3.org/2000/svg" />
</g>
<g transform="translate(474, 238)">
<polygon fill="#666666" points="5,1 6,0 12,6 12,6 12,6 6,12 5,11 10,6 " xmlns="http://www.w3.org/2000/svg" />
<polygon fill="#666666" points="1,1 2,0 8,6 8,6 8,6 2,12 1,11 6,6 " xmlns="http://www.w3.org/2000/svg" />
</g>
<g transform="translate(410, 220)">
<polygon fill="#666666" points="9,1 8,0 2,6 2,6 2,6 8,12 9,11 4,6 " xmlns="http://www.w3.org/2000/svg" />
</g>
<g transform="translate(496, 256)">
<polygon fill="#666666" points="7,1 6,0 0,6 0,6 0,6 6,12 7,11 2,6 " xmlns="http://www.w3.org/2000/svg" />
<polygon fill="#666666" points="11,1 10,0 4,6 4,6 4,6 10,12 11,11 6,6 " xmlns="http://www.w3.org/2000/svg" />
</g>
<g transform="translate(432, 224)">
<polygon fill="#666666" points="3,1 4,0 10,6 10,6 10,6 4,12 3,11 8,6 " xmlns="http://www.w3.org/2000/svg" />
</g>
<g transform="translate(522, 350)">
<polygon fill="#666666" points="9,1 8,0 2,6 2,6 2,6 8,12 9,11 4,6 " xmlns="http://www.w3.org/2000/svg" />
</g>
<g transform="translate(482, 256)">
<polygon fill="#666666" points="3,1 4,0 10,6 10,6 10,6 4,12 3,11 8,6 " xmlns="http://www.w3.org/2000/svg" />
</g>
<g transform="translate(500, 274)">
<polygon fill="#666666" points="5,1 6,0 12,6 12,6 12,6 6,12 5,11 10,6 " xmlns="http://www.w3.org/2000/svg" />
<polygon fill="#666666" points="1,1 2,0 8,6 8,6 8,6 2,12 1,11 6,6 " xmlns="http://www.w3.org/2000/svg" />
</g>
<g transform="translate(522, 336)">
<polygon fill="#666666" points="9,1 8,0 2,6 2,6 2,6 8,12 9,11 4,6 " xmlns="http://www.w3.org/2000/svg" />
</g>
<g transform="translate(488, 238)">
<polygon fill="#666666" points="7,1 6,0 0,6 0,6 0,6 6,12 7,11 2,6 " xmlns="http://www.w3.org/2000/svg" />
<polygon fill="#666666" points="11,1 10,0 4,6 4,6 4,6 10,12 11,11 6,6 " xmlns="http://www.w3.org/2000/svg" />
</g>
<g transform="translate(426, 122)">
<path fill="#084298" d="M10,0C4.5,0,0,4.5,0,10s4.5,10,10,10s10-4.5,10-10S15.5,0,10,0z M15,13.6L13.6,15L10,11.4L6.4,15L5,13.6L8.6,10L5,6.4L6.4,5&#xD;&#xA;	L10,8.6L13.6,5L15,6.4L11.4,10L15,13.6z" xmlns="http://www.w3.org/2000/svg" />
</g>
<g transform="translate(526, 132)">
<polygon fill="#FFFFFF" points="10,3 5,8 0,3 " xmlns="http://www.w3.org/2000/svg" />
</g>
<g transform="translate(432, 198)">
<circle fill="#FFFFFF" cx="2" cy="8" r="2" xmlns="http://www.w3.org/2000/svg" />
<circle fill="#FFFFFF" cx="8" cy="8" r="2" xmlns="http://www.w3.org/2000/svg" />
<circle fill="#FFFFFF" cx="14" cy="8" r="2" xmlns="http://www.w3.org/2000/svg" />
</g>
<g transform="translate(414, 30)">
<polygon fill="#FFFFFF" points="10,3 5,8 0,3 " xmlns="http://www.w3.org/2000/svg" />
</g>
<g transform="translate(450, 198)">
<circle fill="#FFFFFF" cx="2" cy="8" r="2" xmlns="http://www.w3.org/2000/svg" />
<circle fill="#FFFFFF" cx="8" cy="8" r="2" xmlns="http://www.w3.org/2000/svg" />
<circle fill="#FFFFFF" cx="14" cy="8" r="2" xmlns="http://www.w3.org/2000/svg" />
</g>
<g transform="translate(478, 168)">
<path fill="#FFFFFF" clip-rule="evenodd" fill-rule="evenodd" d="M14,0c7.7,0,14,6.3,14,14c0,7.7-6.3,14-14,14S0,21.7,0,14C0,6.3,6.3,0,14,0z" xmlns="http://www.w3.org/2000/svg" />
<path fill="#757575" d="M19.6,8.4C18.1,6.9,16.1,6,13.9,6c-4.4,0-8,3.6-8,8c0,4.4,3.6,8,8,8c3.7,0,6.8-2.6,7.7-6h-2.1&#xD;&#xA;	c-0.8,2.3-3,4-5.7,4c-3.3,0-6-2.7-6-6c0-3.3,2.7-6,6-6c1.7,0,3.1,0.7,4.2,1.8L14.9,13h7V6L19.6,8.4z" xmlns="http://www.w3.org/2000/svg" />
</g>
<g transform="translate(396, 114)">
<g xmlns="http://www.w3.org/2000/svg">
	<path fill="#666666" d="M7.7,14.7l-4.3-4.1L2,12l5.7,5.5L20,5.8l-1.4-1.4L7.7,14.7z" />
</g>
</g>
<g transform="translate(426, 144)">
<g xmlns="http://www.w3.org/2000/svg">
	<path fill="#666666" d="M18,5.4L16.6,4L11,9.6L5.4,4L4,5.4L9.6,11L4,16.6L5.4,18l5.6-5.6l5.6,5.6l1.4-1.4L12.4,11L18,5.4z" />
</g>
</g>
<g transform="translate(486, 198)">
<polygon fill="#FFFFFF" points="4,13 3,12 7,8 3,4 4,3 8,7 12,3 13,4 9,8 13,12 12,13 8,9 " xmlns="http://www.w3.org/2000/svg" />
</g>
<g transform="translate(396, 176)">
<g xmlns="http://www.w3.org/2000/svg">
	<path fill="#FFFFFF" fill-rule="evenodd" clip-rule="evenodd" d="M19,18H1l-1-1V2l1-1h5l1,2h12l1,1v13L19,18z M18,7H2v9h16V7z" />
</g>
</g>
<g transform="translate(418, 80)">
<style type="text/css" xmlns="http://www.w3.org/2000/svg">
	.st022 {fill:#757575;}
</style>
<path fill="#757575" d="M1,9l8,8l1.4-1.4L4.8,10H17V8H4.8l5.6-5.6L9,1L1,9z" xmlns="http://www.w3.org/2000/svg" />
</g>
<g transform="translate(418, 60)">
<style type="text/css" xmlns="http://www.w3.org/2000/svg">
	.st023 {fill:#757575;}
</style>
<path fill="#757575" d="M9,1L7.6,2.4L13.2,8H1v2h12.2l-5.6,5.6L9,17l8-8L9,1z" xmlns="http://www.w3.org/2000/svg" />
</g>
<g transform="translate(518, 296)">
<polygon fill="#FFFFFF" points="3,1 4,0 10,6 10,6 10,6 4,12 3,11 8,6 " xmlns="http://www.w3.org/2000/svg" />
</g>
<g transform="translate(398, 382)">
<polygon fill="#084298" points="3,1 4,0 10,6 10,6 10,6 4,12 3,11 8,6 " xmlns="http://www.w3.org/2000/svg" />
</g>
<g transform="translate(446, 238)">
<polygon fill="#FFFFFF" points="9,1 8,0 2,6 2,6 2,6 8,12 9,11 4,6 " xmlns="http://www.w3.org/2000/svg" />
</g>
<g transform="translate(486, 274)">
<polygon fill="#084298" points="9,1 8,0 2,6 2,6 2,6 8,12 9,11 4,6 " xmlns="http://www.w3.org/2000/svg" />
</g>
<g transform="translate(396, 220)">
<polygon fill="#FFFFFF" points="3,1 4,0 10,6 10,6 10,6 4,12 3,11 8,6 " xmlns="http://www.w3.org/2000/svg" />
</g>
<g transform="translate(468, 256)">
<polygon fill="#bbbbbb" points="3,1 4,0 10,6 10,6 10,6 4,12 3,11 8,6 " xmlns="http://www.w3.org/2000/svg" />
</g>
<g transform="translate(522, 198)">
<polygon fill="#FFFFFF" points="5,1 6,0 12,6 12,6 12,6 6,12 5,11 10,6 " xmlns="http://www.w3.org/2000/svg" />
<polygon fill="#FFFFFF" points="1,1 2,0 8,6 8,6 8,6 2,12 1,11 6,6 " xmlns="http://www.w3.org/2000/svg" />
</g>
<g transform="translate(504, 296)">
<polygon fill="#bbbbbb" points="5,1 6,0 12,6 12,6 12,6 6,12 5,11 10,6 " xmlns="http://www.w3.org/2000/svg" />
<polygon fill="#bbbbbb" points="1,1 2,0 8,6 8,6 8,6 2,12 1,11 6,6 " xmlns="http://www.w3.org/2000/svg" />
</g>
<g transform="translate(514, 274)">
<polygon fill="#FFFFFF" points="9,1 8,0 2,6 2,6 2,6 8,12 9,11 4,6 " xmlns="http://www.w3.org/2000/svg" />
</g>
<g transform="translate(432, 238)">
<polygon fill="#bbbbbb" points="9,1 8,0 2,6 2,6 2,6 8,12 9,11 4,6 " xmlns="http://www.w3.org/2000/svg" />
</g>
<g transform="translate(504, 310)">
<polygon fill="#FFFFFF" points="7,1 6,0 0,6 0,6 0,6 6,12 7,11 2,6 " xmlns="http://www.w3.org/2000/svg" />
<polygon fill="#FFFFFF" points="11,1 10,0 4,6 4,6 4,6 10,12 11,11 6,6 " xmlns="http://www.w3.org/2000/svg" />
</g>
<g transform="translate(460, 238)">
<polygon fill="#bbbbbb" points="7,1 6,0 0,6 0,6 0,6 6,12 7,11 2,6 " xmlns="http://www.w3.org/2000/svg" />
<polygon fill="#bbbbbb" points="11,1 10,0 4,6 4,6 4,6 10,12 11,11 6,6 " xmlns="http://www.w3.org/2000/svg" />
</g>
<g transform="translate(396, 70)">
<path fill="#BBBBBB" d="M10,0C4.5,0,0,4.5,0,10s4.5,10,10,10s10-4.5,10-10S15.5,0,10,0z M15,13.6L13.6,15L10,11.4L6.4,15L5,13.6L8.6,10L5,6.4L6.4,5&#xD;&#xA;	L10,8.6L13.6,5L15,6.4L11.4,10L15,13.6z" xmlns="http://www.w3.org/2000/svg" />
</g>
<g transform="translate(198, 198)">
<circle fill="#F1F1F1" cx="98" cy="98" r="98" xmlns="http://www.w3.org/2000/svg" />
<g xmlns="http://www.w3.org/2000/svg">
	<path fill="#8D8D8D" d="M95.7,22h-1.4v-6.9l-2.1,0.7v-1.2l3.3-1.2h0.2V22z" />
	<path fill="#8D8D8D" d="M104.4,22h-5.7v-1l2.8-3.1c0.4-0.5,0.7-0.8,0.9-1.1s0.3-0.6,0.3-0.9c0-0.4-0.1-0.7-0.3-1s-0.5-0.4-0.9-0.4&#xD;&#xA;		c-0.5,0-0.8,0.1-1.1,0.4s-0.4,0.7-0.4,1.2h-1.4c0-0.5,0.1-1,0.4-1.4s0.6-0.7,1-1s0.9-0.3,1.5-0.3c0.8,0,1.5,0.2,2,0.6&#xD;&#xA;		s0.7,1,0.7,1.7c0,0.4-0.1,0.9-0.4,1.3s-0.6,1-1.2,1.6l-2.1,2.2h4V22z" />
</g>
<g xmlns="http://www.w3.org/2000/svg">
	<path fill="#8D8D8D" d="M99.7,173.3v1.2h-0.2c-0.8,0-1.4,0.2-1.9,0.7s-0.8,1-0.8,1.8c0.5-0.5,1-0.7,1.8-0.7c0.8,0,1.3,0.3,1.8,0.8&#xD;&#xA;		s0.7,1.2,0.7,2.1c0,0.9-0.3,1.6-0.8,2.1s-1.2,0.8-2,0.8c-0.9,0-1.5-0.3-2.1-0.9s-0.8-1.5-0.8-2.5v-0.5c0-1.5,0.4-2.7,1.1-3.5&#xD;&#xA;		s1.8-1.3,3.1-1.3H99.7z M98.2,177.4c-0.3,0-0.6,0.1-0.9,0.3s-0.5,0.4-0.6,0.7v0.4c0,0.6,0.1,1.1,0.4,1.5s0.6,0.6,1,0.6&#xD;&#xA;		s0.8-0.2,1-0.5s0.4-0.7,0.4-1.2s-0.1-0.9-0.4-1.3S98.6,177.4,98.2,177.4z" />
</g>
<g xmlns="http://www.w3.org/2000/svg">
	<path fill="#8D8D8D" d="M54.7,35h-1.4v-6.9l-2.1,0.7v-1.2l3.3-1.2h0.2V35z" />
	<path fill="#8D8D8D" d="M61.5,35h-1.4v-6.9L58,28.9v-1.2l3.3-1.2h0.2V35z" />
</g>
<g xmlns="http://www.w3.org/2000/svg">
	<path fill="#8D8D8D" d="M137.1,35h-1.4v-6.9l-2.1,0.7v-1.2l3.3-1.2h0.2V35z" />
</g>
<g xmlns="http://www.w3.org/2000/svg">
	<path fill="#8D8D8D" d="M166,63h-5.7v-1l2.8-3.1c0.4-0.5,0.7-0.8,0.9-1.1s0.3-0.6,0.3-0.9c0-0.4-0.1-0.7-0.3-1s-0.5-0.4-0.9-0.4&#xD;&#xA;		c-0.5,0-0.8,0.1-1.1,0.4s-0.4,0.7-0.4,1.2h-1.4c0-0.5,0.1-1,0.4-1.4s0.6-0.7,1-1s0.9-0.3,1.5-0.3c0.8,0,1.5,0.2,2,0.6&#xD;&#xA;		s0.7,1,0.7,1.7c0,0.4-0.1,0.9-0.4,1.3s-0.6,1-1.2,1.6l-2.1,2.2h4V63z" />
</g>
<g xmlns="http://www.w3.org/2000/svg">
	<path fill="#8D8D8D" d="M167.2,133h1.1v1.1h-1.1v1.9h-1.4v-1.9h-3.7l0-0.9l3.7-5.8h1.5V133z M163.5,133h2.2v-3.6l-0.1,0.2&#xD;&#xA;		L163.5,133z" />
</g>
<g xmlns="http://www.w3.org/2000/svg">
	<path fill="#8D8D8D" d="M177.8,97h0.9c0.4,0,0.8-0.1,1-0.3s0.4-0.5,0.4-1c0-0.4-0.1-0.7-0.3-0.9s-0.5-0.3-1-0.3&#xD;&#xA;		c-0.4,0-0.7,0.1-0.9,0.3s-0.4,0.5-0.4,0.9h-1.4c0-0.4,0.1-0.8,0.3-1.2s0.6-0.6,1-0.8s0.9-0.3,1.4-0.3c0.9,0,1.5,0.2,2,0.6&#xD;&#xA;		s0.7,1,0.7,1.8c0,0.4-0.1,0.7-0.4,1.1s-0.6,0.6-0.9,0.8c0.5,0.2,0.8,0.4,1.1,0.8s0.4,0.8,0.4,1.2c0,0.8-0.3,1.4-0.8,1.8&#xD;&#xA;		s-1.2,0.7-2.1,0.7c-0.8,0-1.5-0.2-2-0.7s-0.8-1-0.8-1.7h1.4c0,0.4,0.1,0.7,0.4,0.9s0.6,0.4,1,0.4c0.4,0,0.8-0.1,1-0.4&#xD;&#xA;		s0.4-0.6,0.4-1c0-0.4-0.1-0.8-0.4-1s-0.7-0.4-1.2-0.4h-0.8V97z" />
</g>
<g xmlns="http://www.w3.org/2000/svg">
	<path fill="#8D8D8D" d="M133.7,165.2l0.5-4.3h4.6v1.2h-3.4l-0.2,2c0.4-0.2,0.8-0.3,1.3-0.3c0.8,0,1.4,0.3,1.9,0.8s0.7,1.2,0.7,2.1&#xD;&#xA;		c0,0.9-0.3,1.6-0.8,2.1s-1.2,0.8-2.1,0.8c-0.8,0-1.4-0.2-1.9-0.7s-0.8-1-0.8-1.8h1.4c0.1,0.4,0.2,0.7,0.4,1s0.6,0.3,0.9,0.3&#xD;&#xA;		c0.4,0,0.8-0.2,1-0.5s0.4-0.7,0.4-1.3c0-0.5-0.1-0.9-0.4-1.2s-0.6-0.5-1.1-0.5c-0.3,0-0.5,0-0.7,0.1s-0.4,0.2-0.6,0.4L133.7,165.2z&#xD;&#xA;		" />
</g>
<g xmlns="http://www.w3.org/2000/svg">
	<path fill="#8D8D8D" d="M59.9,161.8l-3.4,7.7H55l3.4-7.4H54V161h5.9V161.8z" />
</g>
<g xmlns="http://www.w3.org/2000/svg">
	<path fill="#8D8D8D" d="M28.5,63.1h-1.4v-6.9L25,56.9v-1.2l3.3-1.2h0.2V63.1z" />
	<path fill="#8D8D8D" d="M37.3,59.3c0,1.2-0.2,2.2-0.7,2.8S35.4,63,34.5,63c-0.9,0-1.6-0.3-2.1-0.9s-0.7-1.5-0.7-2.7v-1.5&#xD;&#xA;		c0-1.2,0.2-2.1,0.7-2.8s1.2-0.9,2.1-0.9c0.9,0,1.6,0.3,2.1,0.9s0.7,1.5,0.7,2.7V59.3z M35.8,57.7c0-0.8-0.1-1.4-0.3-1.8&#xD;&#xA;		s-0.6-0.6-1-0.6c-0.5,0-0.8,0.2-1,0.5s-0.3,0.9-0.3,1.7v1.9c0,0.8,0.1,1.4,0.3,1.8s0.6,0.6,1,0.6c0.5,0,0.8-0.2,1-0.5&#xD;&#xA;		s0.3-0.9,0.3-1.7V57.7z" />
</g>
<g xmlns="http://www.w3.org/2000/svg">
	<path fill="#8D8D8D" d="M33.6,129.6c0,0.4-0.1,0.8-0.3,1.1s-0.5,0.6-0.9,0.8c0.4,0.2,0.8,0.5,1,0.8s0.4,0.8,0.4,1.2&#xD;&#xA;		c0,0.8-0.3,1.3-0.8,1.8s-1.2,0.7-2,0.7c-0.8,0-1.5-0.2-2-0.7s-0.8-1-0.8-1.8c0-0.5,0.1-0.9,0.4-1.2s0.6-0.6,1-0.8&#xD;&#xA;		c-0.4-0.2-0.7-0.4-0.9-0.8s-0.3-0.7-0.3-1.1c0-0.7,0.2-1.3,0.7-1.7s1.1-0.6,1.9-0.6c0.8,0,1.4,0.2,1.9,0.6S33.6,128.9,33.6,129.6z&#xD;&#xA;		 M32.3,133.5c0-0.4-0.1-0.8-0.4-1s-0.6-0.4-1-0.4s-0.7,0.1-1,0.4s-0.4,0.6-0.4,1c0,0.4,0.1,0.8,0.4,1s0.6,0.4,1,0.4s0.8-0.1,1-0.4&#xD;&#xA;		S32.3,133.9,32.3,133.5z M32.1,129.7c0-0.4-0.1-0.7-0.3-0.9s-0.5-0.4-0.9-0.4s-0.7,0.1-0.9,0.3s-0.3,0.5-0.3,0.9&#xD;&#xA;		c0,0.4,0.1,0.7,0.3,0.9s0.5,0.3,0.9,0.3s0.7-0.1,0.9-0.3S32.1,130.1,32.1,129.7z" />
</g>
<g xmlns="http://www.w3.org/2000/svg">
	<path fill="#8D8D8D" d="M18.1,98.4c-0.5,0.5-1,0.8-1.7,0.8c-0.8,0-1.3-0.3-1.8-0.8S14,97.1,14,96.3c0-0.6,0.1-1.1,0.3-1.5&#xD;&#xA;		s0.5-0.8,1-1.1s0.9-0.4,1.5-0.4c0.9,0,1.5,0.3,2,1s0.8,1.5,0.8,2.6v0.4c0,1.5-0.3,2.7-1,3.5s-1.7,1.2-3.1,1.2h-0.2v-1.2h0.2&#xD;&#xA;		c0.8,0,1.5-0.2,1.9-0.6S18.1,99.2,18.1,98.4z M16.8,98c0.3,0,0.6-0.1,0.8-0.2s0.4-0.4,0.6-0.7v-0.6c0-0.6-0.1-1.1-0.4-1.5&#xD;&#xA;		s-0.6-0.6-1-0.6s-0.7,0.2-1,0.5s-0.4,0.8-0.4,1.3c0,0.5,0.1,1,0.4,1.3S16.3,98,16.8,98z" />
</g>
</g>
<g transform="translate(0, 0)">
<path fill="#07367C" d="M100,93.4V49c0-1.1-0.9-2-2-2s-2,0.9-2,2v44.4c-1.8,0.8-3,2.5-3,4.6c0,2.8,2.2,5,5,5s5-2.2,5-5&#xD;&#xA;	C103,96,101.8,94.2,100,93.4z" xmlns="http://www.w3.org/2000/svg" />
</g>
<g transform="translate(0, 198)">
<path fill="#C2C2C1" d="M99,33c0-0.6-0.4-1-1-1s-1,0.4-1,1v65h2" xmlns="http://www.w3.org/2000/svg" />
</g>
<g transform="translate(198, 0)">
<path fill="#404040" d="M97,26v72h2V26c0-0.6-0.4-1-1-1S97,25.4,97,26z" xmlns="http://www.w3.org/2000/svg" />
</g>
<g transform="translate(438, 30)">
<polygon fill="#757575" points="10,3 5,8 0,3 " xmlns="http://www.w3.org/2000/svg" />
</g>
<g transform="translate(426, 30)">
<polygon fill="#bbbbbb" points="10,3 5,8 0,3 " xmlns="http://www.w3.org/2000/svg" />
</g>
<g transform="translate(396, 342)">
<circle fill="#757575" cx="2" cy="8" r="2" xmlns="http://www.w3.org/2000/svg" />
<circle fill="#757575" cx="8" cy="8" r="2" xmlns="http://www.w3.org/2000/svg" />
<circle fill="#757575" cx="14" cy="8" r="2" xmlns="http://www.w3.org/2000/svg" />
</g>
<g transform="translate(486, 360)">
<circle fill="#bbbbbb" cx="2" cy="8" r="2" xmlns="http://www.w3.org/2000/svg" />
<circle fill="#bbbbbb" cx="8" cy="8" r="2" xmlns="http://www.w3.org/2000/svg" />
<circle fill="#bbbbbb" cx="14" cy="8" r="2" xmlns="http://www.w3.org/2000/svg" />
</g>
<g transform="translate(414, 198)">
<path fill="#F34235" d="M0,14h15L7.5,2L0,14z M8,12H7v-1h1V12z M8,10H7V6h1V10z" xmlns="http://www.w3.org/2000/svg" />
</g>
<g transform="translate(458, 80)">
<style type="text/css" xmlns="http://www.w3.org/2000/svg">
	.st046 {fill:#757575;}
</style>
<path fill="#757575" d="M12.5,11h-0.8l-0.3-0.3c1-1.1,1.6-2.6,1.6-4.2C13,2.9,10.1,0,6.5,0C2.9,0,0,2.9,0,6.5C0,10.1,2.9,13,6.5,13&#xD;&#xA;	c1.6,0,3.1-0.6,4.2-1.6l0.3,0.3v0.8l5,5l1.5-1.5L12.5,11z M6.5,11C4,11,2,9,2,6.5C2,4,4,2,6.5,2C9,2,11,4,11,6.5C11,9,9,11,6.5,11z" xmlns="http://www.w3.org/2000/svg" />
</g>
<g transform="translate(464, 102)">
<style type="text/css" xmlns="http://www.w3.org/2000/svg">
	.st047 {fill:#757575;}
</style>
<path opacity="0.5" fill-rule="evenodd" clip-rule="evenodd" fill="#757575" d="M12.5,11h-0.8l-0.3-0.3c1-1.1,1.6-2.6,1.6-4.2C13,2.9,10.1,0,6.5,0C2.9,0,0,2.9,0,6.5C0,10.1,2.9,13,6.5,13&#xD;&#xA;	c1.6,0,3.1-0.6,4.2-1.6l0.3,0.3v0.8l5,5l1.5-1.5L12.5,11z M6.5,11C4,11,2,9,2,6.5C2,4,4,2,6.5,2C9,2,11,4,11,6.5C11,9,9,11,6.5,11z" xmlns="http://www.w3.org/2000/svg" />
</g>
<g transform="translate(396, 50)">
<style type="text/css" xmlns="http://www.w3.org/2000/svg">
	.st048 {fill:#757575;}
</style>
<path fill="#757575" d="M1,9l8,8l1.4-1.4L4.8,10H17V8H4.8l5.6-5.6L9,1L1,9z" xmlns="http://www.w3.org/2000/svg" />
</g>
<g transform="translate(470, 124)">
<style type="text/css" xmlns="http://www.w3.org/2000/svg">
	.st049 {fill:#757575;}
</style>
<path opacity="0.5" fill-rule="evenodd" clip-rule="evenodd" fill="#757575" d="M1,9l8,8l1.4-1.4L4.8,10H17V8H4.8l5.6-5.6L9,1L1,9z" xmlns="http://www.w3.org/2000/svg" />
</g>
<g transform="translate(494, 148)">
<style type="text/css" xmlns="http://www.w3.org/2000/svg">
	.st050 {fill:#757575;}
</style>
<path fill="#757575" d="M9,1L7.6,2.4L13.2,8H1v2h12.2l-5.6,5.6L9,17l8-8L9,1z" xmlns="http://www.w3.org/2000/svg" />
</g>
<g transform="translate(438, 80)">
<style type="text/css" xmlns="http://www.w3.org/2000/svg">
	.st051 {fill:#757575;}
</style>
<path opacity="0.5" fill-rule="evenodd" clip-rule="evenodd" fill="#757575" d="M9,1L7.6,2.4L13.2,8H1v2h12.2l-5.6,5.6L9,17l8-8L9,1z" xmlns="http://www.w3.org/2000/svg" />
</g>
<g transform="translate(448, 122)">
<path fill="#084298" d="M10,5c-2.8,0-5,2.2-5,5s2.2,5,5,5s5-2.2,5-5S12.8,5,10,5z M10,0C4.5,0,0,4.5,0,10s4.5,10,10,10s10-4.5,10-10&#xD;&#xA;	S15.5,0,10,0z M10,18c-4.4,0-8-3.6-8-8s3.6-8,8-8s8,3.6,8,8S14.4,18,10,18z" xmlns="http://www.w3.org/2000/svg" />
</g>
<g transform="translate(472, 146)">
<path fill="#bbbbbb" d="M10,5c-2.8,0-5,2.2-5,5s2.2,5,5,5s5-2.2,5-5S12.8,5,10,5z M10,0C4.5,0,0,4.5,0,10s4.5,10,10,10s10-4.5,10-10&#xD;&#xA;	S15.5,0,10,0z M10,18c-4.4,0-8-3.6-8-8s3.6-8,8-8s8,3.6,8,8S14.4,18,10,18z" xmlns="http://www.w3.org/2000/svg" />
</g>
<g transform="translate(450, 146)">
<path fill="#757575" d="M10,0C4.5,0,0,4.5,0,10s4.5,10,10,10s10-4.5,10-10S15.5,0,10,0z M10,18c-4.4,0-8-3.6-8-8s3.6-8,8-8s8,3.6,8,8S14.4,18,10,18&#xD;&#xA;	z" xmlns="http://www.w3.org/2000/svg" />
</g>
<g transform="translate(396, 92)">
<path fill="#bbbbbb" d="M10,0C4.5,0,0,4.5,0,10s4.5,10,10,10s10-4.5,10-10S15.5,0,10,0z M10,18c-4.4,0-8-3.6-8-8s3.6-8,8-8s8,3.6,8,8S14.4,18,10,18&#xD;&#xA;	z" xmlns="http://www.w3.org/2000/svg" />
</g>
<g transform="translate(502, 241)">
<path fill="#757575" d="M1,2L0,3l4.5,5L9,3L8,2L4.5,5.8L1,2z" xmlns="http://www.w3.org/2000/svg" />
</g>
<g transform="translate(510, 259)">
<path fill="#bbbbbb" d="M1,2L0,3l4.5,5L9,3L8,2L4.5,5.8L1,2z" xmlns="http://www.w3.org/2000/svg" />
</g>
<g transform="translate(450, 31)">
<path fill="#757575" d="M8,7l1-1L4.5,1L0,6l1,1l3.5-3.8L8,7z" xmlns="http://www.w3.org/2000/svg" />
</g>
<g transform="translate(482, 227)">
<path fill="#bbbbbb" d="M8,7l1-1L4.5,1L0,6l1,1l3.5-3.8L8,7z" xmlns="http://www.w3.org/2000/svg" />
</g>
<g transform="translate(505, 31)">
<path fill="#757575" d="M6,1.1L4.8,0L0,4.5L4.8,9L6,7.9L2.4,4.5L6,1.1z" xmlns="http://www.w3.org/2000/svg" />
</g>
<g transform="translate(461, 31)">
<path fill="#bbbbbb" d="M6,1.1L4.8,0L0,4.5L4.8,9L6,7.9L2.4,4.5L6,1.1z" xmlns="http://www.w3.org/2000/svg" />
</g>
<g transform="translate(493, 227)">
<path fill="#757575" d="M2,8l1,1l5-4.5L3,0L2,1l3.8,3.5L2,8z" xmlns="http://www.w3.org/2000/svg" />
</g>
<g transform="translate(483, 31)">
<path fill="#bbbbbb" d="M2,8l1,1l5-4.5L3,0L2,1l3.8,3.5L2,8z" xmlns="http://www.w3.org/2000/svg" />
</g>
<g transform="translate(418, 168)">
<circle fill="#FFFFFF" cx="14" cy="14" r="14" xmlns="http://www.w3.org/2000/svg" />
<rect x="7" y="13" fill="#BDBDBD" width="14" height="2" xmlns="http://www.w3.org/2000/svg" />
</g>
<g transform="translate(396, 138)">
<circle fill="#FFFFFF" cx="14" cy="14" r="14" xmlns="http://www.w3.org/2000/svg" />
<rect x="7" y="13" fill="#BDBDBD" width="14" height="2" xmlns="http://www.w3.org/2000/svg" />
<rect x="7" y="13" transform="matrix(4.482554e-011 -1 1 4.482554e-011 -6.293757e-010 28)" fill="#BDBDBD" width="14" height="2" xmlns="http://www.w3.org/2000/svg" />
</g>
<g transform="translate(420, 100)">
<circle cx="10" cy="10" r="10" fill="#FFFFFF" xmlns="http://www.w3.org/2000/svg" />
<rect x="4.3" y="8.6" transform="matrix(0.7071 -0.7071 0.7071 0.7071 -4.1421 10)" fill="#084298" width="11.3" height="2.8" xmlns="http://www.w3.org/2000/svg" />
<rect x="4.3" y="8.6" transform="matrix(-0.7071 -0.7071 0.7071 -0.7071 10 24.1421)" fill="#084298" width="11.3" height="2.8" xmlns="http://www.w3.org/2000/svg" />
</g>
<g transform="translate(516, 0)">
<circle fill="#B9B9B9" cx="10" cy="10" r="10" xmlns="http://www.w3.org/2000/svg" />
<rect x="4.3" y="8.6" transform="matrix(0.7071 -0.7071 0.7071 0.7071 -4.1421 10)" fill="#EEEEEE" width="11.3" height="2.8" xmlns="http://www.w3.org/2000/svg" />
<rect x="4.3" y="8.6" transform="matrix(-0.7071 -0.7071 0.7071 -0.7071 10 24.1421)" fill="#EEEEEE" width="11.3" height="2.8" xmlns="http://www.w3.org/2000/svg" />
</g>
<g transform="translate(396, 288)">
<path style="fill:#bdbdbd;" d="M8,2C4.7,2,2,4.7,2,8s2.7,6,6,6s6-2.7,6-6S11.3,2,8,2z M11,8.8H8.8V11H7.3V8.8H5V7.3h2.3V5h1.5v2.3&#xD;&#xA;	H11V8.8z" xmlns="http://www.w3.org/2000/svg" />
</g>
<g transform="translate(450, 306)">
<path style="fill:#4CA579;" d="M8,2C4.7,2,2,4.7,2,8s2.7,6,6,6s6-2.7,6-6S11.3,2,8,2z M11,8.8H8.8V11H7.3V8.8H5V7.3h2.3V5h1.5v2.3&#xD;&#xA;	H11V8.8z" xmlns="http://www.w3.org/2000/svg" />
</g>
<g transform="translate(432, 288)">
<style type="text/css" xmlns="http://www.w3.org/2000/svg">
	.st070 {opacity:0.5;}
	.st170 {fill:#757575;}
	.st270 {fill-rule:evenodd;clip-rule:evenodd;fill:#757575;}
</style>
<g id="_x32_" class="st070" xmlns="http://www.w3.org/2000/svg">
	<g>
		<path class="st170" d="M2,6h2V4H2V6z M5,12h2v-2H5V12z M2,9h2V7H2V9z M2,12h2v-2H2V12z M8,6h2V4H8V6z M11,4v2h2V4H11z M5,6h2V4H5V6z&#xD;&#xA;			 M5,9h2V7H5V9z" />
	</g>
</g>
<path id="_x31_" class="st270" d="M16,12.3l-0.8,1.4c0,0.1-0.2,0.1-0.2,0.1l-1-0.4c-0.2,0.2-0.5,0.3-0.7,0.4L13,14.8&#xD;&#xA;	c0,0.1-0.1,0.2-0.2,0.2h-1.6c-0.1,0-0.2-0.1-0.2-0.2l-0.2-1.1c-0.2-0.1-0.5-0.2-0.7-0.4l-1,0.4c-0.1,0-0.2,0-0.2-0.1L8,12.3&#xD;&#xA;	c0-0.1,0-0.2,0-0.2l0.9-0.7l0-0.4l0-0.4L8.1,9.9C8,9.9,8,9.8,8,9.7l0.8-1.4C8.9,8.2,9,8.2,9.1,8.2l1,0.4c0.2-0.1,0.5-0.3,0.7-0.4&#xD;&#xA;	l0.2-1.1c0-0.1,0.1-0.2,0.2-0.2h1.6C12.9,7,13,7.1,13,7.1l0.2,1.1c0.2,0.1,0.5,0.2,0.7,0.4l1-0.4c0.1,0,0.2,0,0.2,0.1l0.8,1.4&#xD;&#xA;	c0,0.1,0,0.2,0,0.2L15,10.6l0,0.4l0,0.4l0.9,0.7C16,12.1,16,12.2,16,12.3z M12,9.7c-0.7,0-1.3,0.6-1.3,1.3c0,0.7,0.6,1.3,1.3,1.3&#xD;&#xA;	c0.7,0,1.3-0.6,1.3-1.3C13.4,10.3,12.8,9.7,12,9.7z M14,3H1v10h6v1H0.5C0.2,14,0,13.8,0,13.5v-12C0,1.2,0.2,1,0.5,1h14&#xD;&#xA;	C14.8,1,15,1.2,15,1.5V6h-1V3z" xmlns="http://www.w3.org/2000/svg" />
</g>
<g transform="translate(396, 324)">
<g xmlns="http://www.w3.org/2000/svg">
	<rect x="2" y="1" style="fill:#757575;" width="5" height="2" />
</g>
<g xmlns="http://www.w3.org/2000/svg">
	<g>
		<rect x="2" y="4" style="fill:#4CA579;" width="8" height="1" />
	</g>
	<g>
		<rect x="2" y="6" style="fill:#4CA579;" width="8" height="1" />
	</g>
	<g>
		<rect x="2" y="8" style="fill:#4CA579;" width="7" height="1" />
	</g>
	<polygon style="fill:#4CA579;" points="14,10 12,10 12,8 10,8 10,10 8,10 8,12 10,12 10,14 12,14 12,12 14,12 	" />
</g>
</g>
<g transform="translate(414, 360)">
<g xmlns="http://www.w3.org/2000/svg">
	<rect x="2" y="5" style="fill:#4CA579;" width="5" height="2" />
</g>
<g xmlns="http://www.w3.org/2000/svg">
	<g>
		<rect x="2" y="8" style="fill:#757575;" width="8" height="1" />
	</g>
	<g>
		<rect x="2" y="10" style="fill:#757575;" width="8" height="1" />
	</g>
	<g>
		<rect x="2" y="12" style="fill:#757575;" width="8" height="1" />
	</g>
</g>
<polygon style="fill:#4CA579;" points="14,3 12,3 12,1 10,1 10,3 8,3 8,5 10,5 10,7 12,7 12,5 14,5 " xmlns="http://www.w3.org/2000/svg" />
</g>
<g transform="translate(414, 324)">
<style type="text/css" xmlns="http://www.w3.org/2000/svg">
	.st073 {fill:#757575;}
	.st173 {fill:#378068;}
	.st273 {fill:#6EBF98;}
</style>
<path class="st073" d="M10.5,4C9.6,4,8.7,4.3,8,4.8C7.3,4.3,6.4,4,5.5,4C3,4,1,6,1,8.5S3,13,5.5,13c0.9,0,1.8-0.3,2.5-0.8&#xD;&#xA;	c0.7,0.5,1.6,0.8,2.5,0.8C13,13,15,11,15,8.5S13,4,10.5,4z M8,10.9c-0.6-0.6-1-1.5-1-2.4s0.4-1.8,1-2.4c0.6,0.6,1,1.5,1,2.4&#xD;&#xA;	S8.6,10.3,8,10.9z M2,8.5C2,6.6,3.6,5,5.5,5c0.6,0,1.2,0.2,1.7,0.5C6.5,6.3,6,7.3,6,8.5s0.5,2.2,1.2,3C6.7,11.8,6.1,12,5.5,12&#xD;&#xA;	C3.6,12,2,10.4,2,8.5z M10.5,12c-0.6,0-1.2-0.2-1.7-0.5c0.7-0.8,1.2-1.9,1.2-3s-0.5-2.2-1.2-3C9.3,5.2,9.9,5,10.5,5&#xD;&#xA;	C12.4,5,14,6.6,14,8.5S12.4,12,10.5,12z" xmlns="http://www.w3.org/2000/svg" />
<path class="st173" d="M8,4.8C7.7,5,6,6.2,6,8.5c0,2.4,1.7,3.6,2,3.8c0.3-0.2,2-1.4,2-3.8C10,6.2,8.3,5,8,4.8z" xmlns="http://www.w3.org/2000/svg" />
<path class="st273" d="M8,10.9c-0.6-0.6-1-1.5-1-2.4S7.4,6.6,8,6c0.6,0.6,1,1.5,1,2.4S8.6,10.3,8,10.9z" xmlns="http://www.w3.org/2000/svg" />
</g>
<g transform="translate(396, 306)">
<style type="text/css" xmlns="http://www.w3.org/2000/svg">
	.st074 {fill:#757575;}
	.st174 {fill:#B72025;}
	.st274 {fill:#EF5551;}
</style>
<path class="st074" d="M10.5,4C9.6,4,8.7,4.3,8,4.8C7.3,4.3,6.4,4,5.5,4C3,4,1,6,1,8.5S3,13,5.5,13c0.9,0,1.8-0.3,2.5-0.8&#xD;&#xA;	c0.7,0.5,1.6,0.8,2.5,0.8C13,13,15,11,15,8.5S13,4,10.5,4z M8,10.9c-0.6-0.6-1-1.5-1-2.4s0.4-1.8,1-2.4c0.6,0.6,1,1.5,1,2.4&#xD;&#xA;	S8.6,10.3,8,10.9z M2,8.5C2,6.6,3.6,5,5.5,5c0.6,0,1.2,0.2,1.7,0.5C6.5,6.3,6,7.3,6,8.5s0.5,2.2,1.2,3C6.7,11.8,6.1,12,5.5,12&#xD;&#xA;	C3.6,12,2,10.4,2,8.5z M10.5,12c-0.6,0-1.2-0.2-1.7-0.5c0.7-0.8,1.2-1.9,1.2-3s-0.5-2.2-1.2-3C9.3,5.2,9.9,5,10.5,5&#xD;&#xA;	C12.4,5,14,6.6,14,8.5S12.4,12,10.5,12z" xmlns="http://www.w3.org/2000/svg" />
<path class="st174" d="M8,4.8C7.7,5,6,6.2,6,8.5c0,2.4,1.7,3.6,2,3.8c0.3-0.2,2-1.4,2-3.8C10,6.2,8.3,5,8,4.8z" xmlns="http://www.w3.org/2000/svg" />
<path class="st274" d="M8,11c-0.6-0.6-1-1.6-1-2.5S7.4,6.6,8,6c0.6,0.6,1,1.5,1,2.5S8.6,10.4,8,11z" xmlns="http://www.w3.org/2000/svg" />
</g>
<g transform="translate(414, 342)">
<style type="text/css" xmlns="http://www.w3.org/2000/svg">
	.st075 {fill:#EF5551;}
	.st175 {fill:#B72025;}
</style>
<g xmlns="http://www.w3.org/2000/svg">
	<path class="st075" d="M7.2,5.5C6.7,5.2,6.1,5,5.5,5C3.5,5,2,6.6,2,8.5S3.5,12,5.5,12c0.6,0,1.2-0.2,1.7-0.5C6.5,10.7,6,9.7,6,8.5&#xD;&#xA;		S6.5,6.3,7.2,5.5z" />
	<path class="st075" d="M10.5,5C9.9,5,9.3,5.2,8.8,5.5c0.7,0.8,1.2,1.9,1.2,3s-0.5,2.2-1.2,3c0.5,0.3,1.1,0.5,1.7,0.5&#xD;&#xA;		c1.9,0,3.5-1.6,3.5-3.5S12.4,5,10.5,5z" />
	<path class="st175" d="M10.5,4C9.6,4,8.7,4.3,8,4.8C7.3,4.3,6.4,4,5.5,4C3,4,1,6,1,8.5S3,13,5.5,13c0.9,0,1.8-0.3,2.5-0.8&#xD;&#xA;		c0.7,0.5,1.6,0.8,2.5,0.8C13,13,15,11,15,8.5S13,4,10.5,4z M2,8.5C2,6.6,3.5,5,5.5,5c0.6,0,1.2,0.2,1.7,0.5C6.5,6.3,6,7.3,6,8.5&#xD;&#xA;		s0.5,2.2,1.2,3C6.7,11.8,6.1,12,5.5,12C3.5,12,2,10.4,2,8.5z M10.5,12c-0.6,0-1.2-0.2-1.7-0.5c0.7-0.8,1.2-1.9,1.2-3&#xD;&#xA;		s-0.5-2.2-1.2-3C9.3,5.2,9.9,5,10.5,5C12.4,5,14,6.6,14,8.5S12.4,12,10.5,12z" />
</g>
</g>
<g transform="translate(432, 342)">
<style type="text/css" xmlns="http://www.w3.org/2000/svg">
	.st076 {fill:#6EBF98;}
	.st176 {fill:#378068;}
</style>
<g xmlns="http://www.w3.org/2000/svg">
	<path class="st076" d="M7.2,5.5C6.7,5.2,6.1,5,5.5,5C3.5,5,2,6.6,2,8.5S3.5,12,5.5,12c0.6,0,1.2-0.2,1.7-0.5C6.5,10.7,6,9.7,6,8.5&#xD;&#xA;		S6.5,6.3,7.2,5.5z" />
	<path class="st076" d="M10.5,5C9.9,5,9.3,5.2,8.8,5.5c0.7,0.8,1.2,1.9,1.2,3s-0.5,2.2-1.2,3c0.5,0.3,1.1,0.5,1.7,0.5&#xD;&#xA;		c1.9,0,3.5-1.6,3.5-3.5S12.4,5,10.5,5z" />
	<path class="st176" d="M10.5,4C9.6,4,8.7,4.3,8,4.8C7.3,4.3,6.4,4,5.5,4C3,4,1,6,1,8.5S3,13,5.5,13c0.9,0,1.8-0.3,2.5-0.8&#xD;&#xA;		c0.7,0.5,1.6,0.8,2.5,0.8C13,13,15,11,15,8.5S13,4,10.5,4z M2,8.5C2,6.6,3.5,5,5.5,5c0.6,0,1.2,0.2,1.7,0.5C6.5,6.3,6,7.3,6,8.5&#xD;&#xA;		s0.5,2.2,1.2,3C6.7,11.8,6.1,12,5.5,12C3.5,12,2,10.4,2,8.5z M10.5,12c-0.6,0-1.2-0.2-1.7-0.5c0.7-0.8,1.2-1.9,1.2-3&#xD;&#xA;		s-0.5-2.2-1.2-3C9.3,5.2,9.9,5,10.5,5C12.4,5,14,6.6,14,8.5S12.4,12,10.5,12z" />
</g>
</g>
<g transform="translate(432, 360)">
<polygon style="fill:#757575;" points="14,4 12,2 8,6 4,2 2,4 6,8 2,12 4,14 8,10 12,14 14,12 10,8 " xmlns="http://www.w3.org/2000/svg" />
</g>
<g transform="translate(414, 270)">
<g xmlns="http://www.w3.org/2000/svg">
	<g>
		<circle style="fill:#6EBF98;" cx="3" cy="8" r="1.5" />
		<path style="fill:#378068;" d="M3,7c0.6,0,1,0.4,1,1S3.6,9,3,9S2,8.6,2,8S2.4,7,3,7 M3,6C1.9,6,1,6.9,1,8c0,1.1,0.9,2,2,2&#xD;&#xA;			s2-0.9,2-2C5,6.9,4.1,6,3,6L3,6z" />
	</g>
</g>
<g xmlns="http://www.w3.org/2000/svg">
	<g>
		<circle style="fill:#6EBF98;" cx="8" cy="8" r="1.5" />
		<path style="fill:#378068;" d="M8,7c0.6,0,1,0.4,1,1S8.6,9,8,9S7,8.6,7,8S7.4,7,8,7 M8,6C6.9,6,6,6.9,6,8c0,1.1,0.9,2,2,2&#xD;&#xA;			s2-0.9,2-2C10,6.9,9.1,6,8,6L8,6z" />
	</g>
</g>
<g xmlns="http://www.w3.org/2000/svg">
	<g>
		<circle style="fill:#6EBF98;" cx="13" cy="8" r="1.5" />
		<path style="fill:#378068;" d="M13,7c0.6,0,1,0.4,1,1s-0.4,1-1,1s-1-0.4-1-1S12.4,7,13,7 M13,6c-1.1,0-2,0.9-2,2c0,1.1,0.9,2,2,2&#xD;&#xA;			s2-0.9,2-2C15,6.9,14.1,6,13,6L13,6z" />
	</g>
</g>
</g>
<g transform="translate(432, 306)">
<polygon style="fill:#010101;" points="6,3 6,2 2,2 2,3 4,5 2,7 2,8 6,8 6,7 3,7 5,5 3,3 5,3 " xmlns="http://www.w3.org/2000/svg" />
<path style="fill:#010101;" d="M13.7,8.5C13.5,8.3,13.1,8,12.5,8H10l-1,6h1l0.8-5h1.7c0.2,0,0.3,0.1,0.4,0.1C13,9.2,13,9.4,13,9.4&#xD;&#xA;	L12.2,14h1L14,9.6C14,9.2,14,8.8,13.7,8.5z" xmlns="http://www.w3.org/2000/svg" />
<rect x="0.2" y="7.3" transform="matrix(0.7071 -0.7071 0.7071 0.7071 -3.3137 8)" style="fill:#010101;" width="15.6" height="1.4" xmlns="http://www.w3.org/2000/svg" />
</g>
<g transform="translate(432, 324)">
<g xmlns="http://www.w3.org/2000/svg">
	<path style="fill:#757575;" d="M7,11H6v-1l0,0c-0.4,0.7-1.1,1-2,1c-0.6,0-1.1-0.2-1.5-0.5S2,9.8,2,9.3c0-1.1,0.7-1.8,2.1-2L6,7.1&#xD;&#xA;		c0-1-0.4-1.5-1.3-1.5c-0.8,0-1.5,0.2-2.1,0.7v-1C3.2,5,3.9,4.8,4.8,4.8C6.2,4.8,7,5.5,7,7V11z M6,7.9L4.5,8.1&#xD;&#xA;		C4,8.1,3.6,8.2,3.4,8.4S3,8.8,3,9.2C3,9.5,3.1,9.8,3.4,10c0.2,0.2,0.5,0.3,0.9,0.3c0.5,0,0.9-0.2,1.2-0.5S6,9,6,8.5V7.9z" />
</g>
<polygon style="fill:#757575;" points="2,4 2,3 0,3 0,4 0,12 0,13 2,13 2,12 1,12 1,4 " xmlns="http://www.w3.org/2000/svg" />
<polygon style="fill:#757575;" points="7,4 7,3 9,3 9,4 9,12 9,13 7,13 7,12 8,12 8,4 " xmlns="http://www.w3.org/2000/svg" />
<g xmlns="http://www.w3.org/2000/svg">
	<path style="fill:#757575;" d="M11,10L11,10v1h-1V2h1v4l0,0c0.4-0.8,0.9-1.2,1.8-1.2c0.7,0,1.2,0.3,1.6,0.8C14.8,6.1,15,6.8,15,7.7&#xD;&#xA;		c0,1-0.2,1.8-0.7,2.4c-0.4,0.6-1,0.9-1.8,0.9C11.8,11,11.4,10.7,11,10z M10.9,7.6v0.8c0,0.5,0.1,0.9,0.4,1.3&#xD;&#xA;		c0.3,0.3,0.7,0.5,1.1,0.5c0.5,0,0.9-0.2,1.2-0.7s0.4-1.1,0.4-1.9c0-0.7-0.1-1.2-0.4-1.6c-0.3-0.4-0.7-0.6-1.1-0.6&#xD;&#xA;		c-0.5,0-0.9,0.2-1.2,0.6S10.9,7,10.9,7.6z" />
</g>
</g>
<g transform="translate(504, 198)">
<rect x="4" y="9" style="fill:#212121;" width="10" height="1" xmlns="http://www.w3.org/2000/svg" />
<path style="fill:#4CA579;" d="M5,9C5,9,5,9,5,9c0-1.7,1.3-3,3-3s3,1.3,3,3c0,0,0,0,0,0h1c0,0,0,0,0,0c0-2.2-1.8-4-4-4S4,6.8,4,9&#xD;&#xA;	c0,0,0,0,0,0H5z" xmlns="http://www.w3.org/2000/svg" />
<g xmlns="http://www.w3.org/2000/svg">
	<circle style="fill:#6EBF98;" cx="3.5" cy="9.5" r="2" />
	<path style="fill:#378068;" d="M3.5,8C4.3,8,5,8.7,5,9.5S4.3,11,3.5,11S2,10.4,2,9.5S2.7,8,3.5,8 M3.5,7C2.1,7,1,8.2,1,9.5&#xD;&#xA;		S2.1,12,3.5,12S6,10.9,6,9.5S4.9,7,3.5,7L3.5,7z" />
</g>
<g xmlns="http://www.w3.org/2000/svg">
	<circle style="fill:#6EBF98;" cx="12.5" cy="9.5" r="2" />
	<path style="fill:#378068;" d="M12.5,8C13.3,8,14,8.7,14,9.5S13.3,11,12.5,11S11,10.3,11,9.5S11.7,8,12.5,8 M12.5,7&#xD;&#xA;		C11.1,7,10,8.1,10,9.5s1.1,2.5,2.5,2.5S15,10.9,15,9.5S13.9,7,12.5,7L12.5,7z" />
</g>
</g>
<g transform="translate(396, 270)">
<path style="fill:#757575;" d="M8,2C4.7,2,2,4.7,2,8s2.7,6,6,6s6-2.7,6-6S11.3,2,8,2z M8,13c-2.8,0-5-2.2-5-5c0-2.8,2.2-5,5-5&#xD;&#xA;	c2.8,0,5,2.2,5,5C13,10.8,10.8,13,8,13z" xmlns="http://www.w3.org/2000/svg" />
</g>
<g transform="translate(450, 324)">
<g xmlns="http://www.w3.org/2000/svg">
	<path style="fill:#757575;" d="M5,11H4v-1l0,0c-0.4,0.7-1.1,1-2,1c-0.6,0-1.1-0.2-1.5-0.5S0,9.8,0,9.3c0-1.1,0.7-1.8,2.1-2L4,7.1&#xD;&#xA;		c0-1-0.4-1.5-1.3-1.5c-0.8,0-1.5,0.2-2.1,0.7v-1C1.2,5,1.9,4.8,2.8,4.8C4.2,4.8,5,5.5,5,7V11z M4,7.9L2.5,8.1&#xD;&#xA;		C2,8.1,1.6,8.2,1.4,8.4S1,8.8,1,9.2C1,9.5,1.1,9.8,1.4,10s0.5,0.3,0.9,0.3c0.5,0,0.9-0.2,1.2-0.5S4,9,4,8.5V7.9z" />
</g>
<g xmlns="http://www.w3.org/2000/svg">
	<path style="fill:#757575;" d="M16,10.6c-0.4,0.3-0.9,0.4-1.5,0.4c-0.8,0-1.4-0.3-1.8-0.8C12.2,9.7,12,8.8,12,8&#xD;&#xA;		c0-0.9,0.3-1.6,0.8-2.1c0.5-0.6,1.2-0.9,2-0.9c0.5,0,0.9,0.1,1.2,0.3v0.9c-0.4-0.3-0.8-0.4-1.3-0.4c-0.5,0-1,0.2-1.3,0.6&#xD;&#xA;		c-0.3,0.4-0.5,1-0.5,1.7c0,0.7,0.2,1.2,0.5,1.6c0.3,0.4,0.8,0.6,1.3,0.6c0.5,0,0.9-0.2,1.3-0.5V10.6z" />
</g>
<g xmlns="http://www.w3.org/2000/svg">
	<path style="fill:#4CA579;" d="M7,10L7,10v1H6V2h1v4l0,0c0.4-0.8,0.9-1.2,1.8-1.2c0.7,0,1.2,0.3,1.6,0.8C10.8,6.1,11,6.8,11,7.7&#xD;&#xA;		c0,1-0.2,1.8-0.7,2.4c-0.4,0.6-1,0.9-1.8,0.9C7.8,11,7.4,10.7,7,10z M6.9,7.6v0.8C6.9,9,7,9.4,7.3,9.7c0.3,0.3,0.7,0.5,1.1,0.5&#xD;&#xA;		c0.5,0,0.9-0.2,1.2-0.7s0.4-1.1,0.4-1.9c0-0.7-0.1-1.2-0.4-1.6C9.4,5.8,9,5.6,8.6,5.6C8,5.6,7.6,5.8,7.3,6.2S6.9,7,6.9,7.6z" />
</g>
</g>
<g transform="translate(414, 288)">
<polygon style="fill:#757575;" points="3,13 6,3 7.5,3 10,11.3 12.5,3 14,3 11,13 9.5,13 6.8,5 4.5,13 " xmlns="http://www.w3.org/2000/svg" />
</g>
<g transform="translate(468, 342)">
<polygon style="fill:#757575;" points="2,3 2,2 0,2 0,3 0,11 0,12 2,12 2,11 1,11 1,3 " xmlns="http://www.w3.org/2000/svg" />
<polygon style="fill:#757575;" points="8,3 8,2 10,2 10,3 10,11 10,12 8,12 8,11 9,11 9,3 " xmlns="http://www.w3.org/2000/svg" />
<g xmlns="http://www.w3.org/2000/svg">
	<path style="fill:#757575;" d="M15,10.6c-0.4,0.3-0.9,0.4-1.5,0.4c-0.8,0-1.4-0.3-1.8-0.8C11.2,9.7,11,8.8,11,8&#xD;&#xA;		c0-0.9,0.3-1.6,0.8-2.1c0.5-0.6,1.2-0.9,2-0.9c0.5,0,0.9,0.1,1.2,0.3v0.9c-0.4-0.3-0.8-0.4-1.3-0.4c-0.5,0-1,0.2-1.3,0.6&#xD;&#xA;		c-0.3,0.4-0.5,1-0.5,1.7c0,0.7,0.2,1.2,0.5,1.6c0.3,0.4,0.8,0.6,1.3,0.6c0.5,0,0.9-0.2,1.3-0.5V10.6z" />
</g>
<g xmlns="http://www.w3.org/2000/svg">
	<path style="fill:#757575;" d="M4,10L4,10v1H3V2h1v4l0,0c0.4-0.8,0.9-1.2,1.8-1.2C6.5,4.8,7,5,7.4,5.6C7.8,6.1,8,6.8,8,7.7&#xD;&#xA;		c0,1-0.2,1.8-0.7,2.4c-0.4,0.6-1,0.9-1.8,0.9C4.8,11,4.4,10.7,4,10z M3.9,7.6v0.8C3.9,9,4,9.4,4.3,9.7c0.3,0.3,0.7,0.5,1.1,0.5&#xD;&#xA;		c0.5,0,0.9-0.2,1.2-0.7C7,9.1,7.1,8.5,7.1,7.7c0-0.7-0.1-1.2-0.4-1.6S6,5.6,5.6,5.6C5,5.6,4.6,5.8,4.3,6.2S3.9,7,3.9,7.6z" />
</g>
</g>
<g transform="translate(396, 198)">
<g xmlns="http://www.w3.org/2000/svg">
	<rect x="3" y="5" style="fill:#757575;" width="10" height="2" />
	<rect x="3" y="9" style="fill:#757575;" width="10" height="2" />
</g>
</g>
<g transform="translate(468, 270)">
<polygon style="fill:#757575;" points="5,6 5,5 1,5 1,6 3,8 1,10 1,11 5,11 5,10 2,10 4,8 2,6 " xmlns="http://www.w3.org/2000/svg" />
<path style="fill:#010101;" d="M9,1H8C7.4,1,7,1.4,7,2v4.8C7,6.9,7,7,6.9,7.1L6,8l0.9,0.9C7,9,7,9.1,7,9.2V14c0,0.6,0.4,1,1,1h1v-1&#xD;&#xA;	H8V9.2C8,9.1,8,9,7.9,8.9L7,8l0.9-0.9C8,7,8,6.9,8,6.8V2h1V1z" xmlns="http://www.w3.org/2000/svg" />
<polygon style="fill:#757575;" points="15,4 15,3 10,3 9,3 9,4 9,6 9,7 10,7 11,7 11,9 10,9 9,9 9,10 9,12 9,13 10,13 15,13 15,12 &#xD;&#xA;	10,12 10,10 11,10 12,10 15,10 15,9 12,9 12,7 15,7 15,6 12,6 11,6 10,6 10,4 " xmlns="http://www.w3.org/2000/svg" />
</g>
<g transform="translate(486, 342)">
<polygon style="fill:#757575;" points="4,13 10.5,8 4,3 5,2 13,8 5,14 " xmlns="http://www.w3.org/2000/svg" />
</g>
<g transform="translate(450, 342)">
<polygon style="fill:#757575;" points="3,12 9.5,7 3,2 4,1 12,7 4,13 " xmlns="http://www.w3.org/2000/svg" />
<polygon style="fill:#757575;" points="14,9 6,15 5,14 13,8 " xmlns="http://www.w3.org/2000/svg" />
</g>
<g transform="translate(432, 252)">
<style type="text/css" xmlns="http://www.w3.org/2000/svg">
	.st090 {fill:#757575;}
	.st190 {fill:#1177D7;}
</style>
<path id="_x34_" class="st090" d="M0,1.5v12C0,13.8,0.2,14,0.5,14h14c0.3,0,0.5-0.2,0.5-0.5v-12C15,1.2,14.8,1,14.5,1h-14&#xD;&#xA;	C0.2,1,0,1.2,0,1.5z M14,13H1V3h13V13z" xmlns="http://www.w3.org/2000/svg" />
<path id="_x33_" class="st190" d="M5.5,8.6H4.3L4.2,9.4h0.3V10H3V9.4h0.3l1.2-4h0.9l1.2,4h0.3V10H5.4V9.4h0.3L5.5,8.6z M4.9,6.3&#xD;&#xA;	L4.5,7.9h0.8L4.9,6.3z" xmlns="http://www.w3.org/2000/svg" />
<path id="_x32_" class="st190" d="M8,6.6L8,6.6c0.3,0,0.6-0.1,0.8-0.1C9.6,6.6,9.9,7,9.9,8v0.7c0,0.9-0.4,1.4-1.2,1.4&#xD;&#xA;	C8.5,10,8.3,10,8.2,10v0.7h0.4v0.6H7.1v-0.6h0.3V7.2H7V6.6H8z M8.2,9.4c0.1,0.1,0.2,0.1,0.4,0.1c0.4,0,0.6-0.1,0.6-0.8V8.1&#xD;&#xA;	c0-0.6-0.1-0.8-0.6-0.8c-0.1,0-0.3,0.1-0.4,0.1V9.4z" xmlns="http://www.w3.org/2000/svg" />
<path id="_x31_" class="st190" d="M11.9,9.4V10h-1.5V9.4h0.4V7.2h-0.4V6.6h1.1l0.1,0.2c0.4-0.2,0.6-0.3,1-0.3v0.8&#xD;&#xA;	c-0.2,0-0.8,0.1-0.9,0.2v1.9H11.9z" xmlns="http://www.w3.org/2000/svg" />
</g>
<g transform="translate(478, 82)">
<style type="text/css" xmlns="http://www.w3.org/2000/svg">
	.st091 {fill:#757575;}
	.st191 {fill:#1177D7;}
</style>
<path id="_x34_" class="st091" d="M0,1.5v12C0,13.8,0.2,14,0.5,14h14c0.3,0,0.5-0.2,0.5-0.5v-12C15,1.2,14.8,1,14.5,1h-14&#xD;&#xA;	C0.2,1,0,1.2,0,1.5z M14,13H1V3h13V13z" xmlns="http://www.w3.org/2000/svg" />
<path id="_x33_" class="st191" d="M4.5,8.6H3.4L3.2,9.4h0.4V10H2V9.4h0.3l1.1-4h0.9l1.2,4h0.3V10H4.4V9.4h0.3L4.5,8.6z M3.9,6.3&#xD;&#xA;	L3.5,7.9h0.8L3.9,6.3z" xmlns="http://www.w3.org/2000/svg" />
<path id="_x32_" class="st191" d="M7.6,7.2V6.7h1.2v2.7h0.4V10h-1L8.1,9.9C7.8,10,7.6,10,7.4,10c-0.8,0-1.2-0.4-1.2-1.3V7.2H5.9V6.6&#xD;&#xA;	h1.2v1.9c0,0.6,0.1,0.9,0.4,0.9c0.2,0,0.3-0.1,0.4-0.1V7.2C8,7.2,7.6,7.2,7.6,7.2z" xmlns="http://www.w3.org/2000/svg" />
<path id="_x31_" class="st191" d="M12.1,9.6c0,0.6-0.1,1.4-0.9,1.6c-0.4,0.1-0.9,0.1-1.2,0.1H9.7v-0.6c0.1,0,0.9,0.1,1.3-0.1&#xD;&#xA;	c0.2-0.1,0.3-0.4,0.3-0.7C11.1,10,11,10,10.7,10C10,10,9.5,9.6,9.5,8.7V8c0-0.9,0.4-1.4,1.1-1.4c0.1,0,0.4,0.1,0.7,0.2l0.1-0.1h1&#xD;&#xA;	v0.6h-0.4V9.6z M11.3,7.3c-0.1-0.1-0.2-0.1-0.4-0.1c-0.4,0-0.6,0.2-0.6,0.8v0.6c0,0.6,0.1,0.8,0.6,0.8c0.1,0,0.3-0.1,0.4-0.1V7.3z" xmlns="http://www.w3.org/2000/svg" />
</g>
<g transform="translate(468, 324)">
<style type="text/css" xmlns="http://www.w3.org/2000/svg">
	.st092 {fill:#757575;}
	.st192 {opacity:0.5;}
</style>
<path id="_x31_" class="st092" d="M0,1.5v12C0,13.8,0.2,14,0.5,14h14c0.3,0,0.5-0.2,0.5-0.5v-12C15,1.2,14.8,1,14.5,1h-14&#xD;&#xA;	C0.2,1,0,1.2,0,1.5z M14,13H1V3h13V13z" xmlns="http://www.w3.org/2000/svg" />
<g id="_x30_" class="st192" xmlns="http://www.w3.org/2000/svg">
	<path id="_x32_" class="st092" d="M4,12H2v-2h2V12z M7,10H5v2h2V10z M10,10H8v2h2V10z M13,10h-2v2h2V10z M10,4H8v2h2V4z M13,4h-2v2h2&#xD;&#xA;		V4z M13,7h-2v2h2V7z M7,7H5v2h2V7z M10,7H8v2h2V7z M4,7H2v2h2V7z M7,4H5v2h2V4z M4,4H2v2h2V4z" />
</g>
</g>
<g transform="translate(516, 86)">
<style type="text/css" xmlns="http://www.w3.org/2000/svg">
	.st093 {fill:#757575;}
	.st193 {fill:#1177D7;}
</style>
<path id="_x34_" class="st093" d="M0,1.5v12C0,13.8,0.2,14,0.5,14h14c0.3,0,0.5-0.2,0.5-0.5v-12C15,1.2,14.8,1,14.5,1h-14&#xD;&#xA;	C0.2,1,0,1.2,0,1.5z M14,13H1V3h13V13z" xmlns="http://www.w3.org/2000/svg" />
<path id="_x33_" class="st193" d="M3,10V9.4h0.4V6H3V5.4h1.8c1.2,0,1.7,0.5,1.7,1.8v0.9c0,1.4-0.6,1.9-1.7,1.9H3z M4.8,9.3&#xD;&#xA;	c0.7,0,0.9-0.4,0.9-1.2V7.2C5.7,6.3,5.3,6,4.8,6H4.2v3.3H4.8L4.8,9.3z" xmlns="http://www.w3.org/2000/svg" />
<path id="_x32_" class="st193" d="M7.7,8.6c0,0.8,0.3,0.9,0.7,0.9c0.1,0,0.6-0.1,0.8-0.1v0.6C9,10,8.6,10.1,8.3,10.1&#xD;&#xA;	c-1.1,0-1.4-0.4-1.4-1.7c0-1.4,0.5-1.8,1.3-1.8c0.8,0,1.2,0.3,1.2,1.4c0,0.2,0,0.4-0.1,0.6H7.7z M8.6,8c0-0.1,0-0.1,0-0.2&#xD;&#xA;	c0-0.4-0.1-0.6-0.4-0.6C7.9,7.2,7.8,7.4,7.8,8H8.6z" xmlns="http://www.w3.org/2000/svg" />
<path id="_x31_" class="st193" d="M11.4,7.3c-0.1,0-0.1-0.1-0.2-0.1c-0.3,0-0.5,0.2-0.6,0.8v0.6c0,0.6,0.2,0.8,0.6,0.8&#xD;&#xA;	c0.3,0,0.6-0.1,0.9-0.1v0.6c-0.2,0.1-0.6,0.1-0.9,0.1c-1.2,0-1.3-0.9-1.3-1.3V8c0-0.4,0.1-1.3,1.3-1.3c0.4,0,0.7,0.1,0.9,0.2v1h-0.7&#xD;&#xA;	C11.4,7.8,11.4,7.3,11.4,7.3z" xmlns="http://www.w3.org/2000/svg" />
</g>
<g transform="translate(502, 104)">
<style type="text/css" xmlns="http://www.w3.org/2000/svg">
	.st094 {fill:#727272;}
	.st194 {fill:#D11C1C;}
	.st294 {fill:#1177D7;}
</style>
<path id="_x31_1" class="st094" d="M0,1.5v12C0,13.8,0.2,14,0.5,14h14c0.3,0,0.5-0.2,0.5-0.5v-12C15,1.2,14.8,1,14.5,1h-14&#xD;&#xA;	C0.2,1,0,1.2,0,1.5z M14,13H1V3h13V13z" xmlns="http://www.w3.org/2000/svg" />
<rect id="_x31_0" x="5" y="4" class="st194" width="2" height="2" xmlns="http://www.w3.org/2000/svg" />
<rect id="_x39_" x="8" y="4" class="st294" width="2" height="2" xmlns="http://www.w3.org/2000/svg" />
<rect id="_x38_" x="11" y="4" class="st294" width="2" height="2" xmlns="http://www.w3.org/2000/svg" />
<rect id="_x37_" x="2" y="7" class="st294" width="2" height="2" xmlns="http://www.w3.org/2000/svg" />
<rect id="_x36_" x="5" y="7" class="st294" width="2" height="2" xmlns="http://www.w3.org/2000/svg" />
<rect id="_x35_" x="8" y="7" class="st294" width="2" height="2" xmlns="http://www.w3.org/2000/svg" />
<rect id="_x34_" x="11" y="7" class="st294" width="2" height="2" xmlns="http://www.w3.org/2000/svg" />
<rect id="_x33_" x="2" y="10" class="st294" width="2" height="2" xmlns="http://www.w3.org/2000/svg" />
<rect id="_x32_" x="5" y="10" class="st294" width="2" height="2" xmlns="http://www.w3.org/2000/svg" />
<rect id="_x31_" x="8" y="10" class="st294" width="2" height="2" xmlns="http://www.w3.org/2000/svg" />
</g>
<g transform="translate(474, 62)">
<style type="text/css" xmlns="http://www.w3.org/2000/svg">
	.st095 {fill:#757575;}
	.st195 {fill:#1177D7;}
	.st295 {fill:#D11C1C;}
	.st395 {opacity:0.5;}
</style>
<path id="_x36_" class="st095" d="M0,1.5v12C0,13.8,0.2,14,0.5,14h14c0.3,0,0.5-0.2,0.5-0.5v-12C15,1.2,14.8,1,14.5,1h-14&#xD;&#xA;	C0.2,1,0,1.2,0,1.5z M14,13H1V3h13V13z" xmlns="http://www.w3.org/2000/svg" />
<rect id="_x35_" x="8" y="7" class="st195" width="2" height="2" xmlns="http://www.w3.org/2000/svg" />
<rect id="_x34_" x="11" y="7" class="st195" width="2" height="2" xmlns="http://www.w3.org/2000/svg" />
<rect id="_x33_" x="5" y="7" class="st195" width="2" height="2" xmlns="http://www.w3.org/2000/svg" />
<rect id="_x32_" x="2" y="7" class="st295" width="2" height="2" xmlns="http://www.w3.org/2000/svg" />
<g id="_x31_" class="st395" xmlns="http://www.w3.org/2000/svg">
	<rect id="_x37_" x="2" y="4" class="st095" width="2" height="2" />
	<rect id="_x36__00000024691286365179230490000017055398860295594880_" x="5" y="4" class="st095" width="2" height="2" />
	<rect id="_x35__00000170264064011686313280000012131305319902720429_" x="8" y="4" class="st095" width="2" height="2" />
	<rect id="_x34__00000082328819720760790320000003061304894810955451_" x="11" y="4" class="st095" width="2" height="2" />
	<rect id="_x33__00000098919739520923360780000018360617776223724170_" x="2" y="10" class="st095" width="2" height="2" />
	<rect id="_x32__00000049912129911237343890000000330418267311353531_" x="5" y="10" class="st095" width="2" height="2" />
	<rect id="_x31__00000023988788144704625150000005073425161305139356_" x="8" y="10" class="st095" width="2" height="2" />
	<rect id="_x30_" x="11" y="10" class="st095" width="2" height="2" />
</g>
</g>
<g transform="translate(396, 32)">
<style type="text/css" xmlns="http://www.w3.org/2000/svg">
	.st096 {fill:#757575;}
	.st196 {fill:#D11C1C;}
	.st296 {opacity:0.5;}
</style>
<path id="_x31_4" class="st096" d="M0,1.5v12C0,13.8,0.2,14,0.5,14h14c0.3,0,0.5-0.2,0.5-0.5v-12C15,1.2,14.8,1,14.5,1h-14&#xD;&#xA;	C0.2,1,0,1.2,0,1.5z M14,13H1V3h13V13z" xmlns="http://www.w3.org/2000/svg" />
<rect id="_x31_3" x="2" y="4" class="st196" width="2" height="2" xmlns="http://www.w3.org/2000/svg" />
<g id="_x31_" class="st296" xmlns="http://www.w3.org/2000/svg">
	<rect id="_x31_2" x="5" y="4" class="st096" width="2" height="2" />
	<rect id="_x31_1" x="8" y="4" class="st096" width="2" height="2" />
	<rect id="_x31_0" x="11" y="4" class="st096" width="2" height="2" />
	<rect id="_x39_" x="2" y="7" class="st096" width="2" height="2" />
	<rect id="_x38_" x="5" y="7" class="st096" width="2" height="2" />
	<rect id="_x37_" x="8" y="7" class="st096" width="2" height="2" />
	<rect id="_x36_" x="11" y="7" class="st096" width="2" height="2" />
	<rect id="_x35_" x="2" y="10" class="st096" width="2" height="2" />
	<rect id="_x34_" x="5" y="10" class="st096" width="2" height="2" />
	<rect id="_x33_" x="8" y="10" class="st096" width="2" height="2" />
	<rect id="_x32_" x="11" y="10" class="st096" width="2" height="2" />
</g>
</g>
<g transform="translate(452, 42)">
<style type="text/css" xmlns="http://www.w3.org/2000/svg">
	.st097 {fill:#757575;}
	.st197 {fill:#1177D7;}
</style>
<path id="_x34_" class="st097" d="M0,1.5v12C0,13.8,0.2,14,0.5,14h14c0.3,0,0.5-0.2,0.5-0.5v-12C15,1.2,14.8,1,14.5,1h-14&#xD;&#xA;	C0.2,1,0,1.2,0,1.5z M14,13H1V3h13V13z" xmlns="http://www.w3.org/2000/svg" />
<path id="_x33_" class="st197" d="M6.6,6.6H5.8V6.1h-1v1.3h1.2v0.7H4.8v1.3h0.4V10H3.6V9.4H4V6H3.6V5.4h3V6.6z" xmlns="http://www.w3.org/2000/svg" />
<path id="_x32_" class="st197" d="M7.4,8.6c0,0.8,0.3,0.9,0.7,0.9c0.1,0,0.6-0.1,0.8-0.1v0.6c-0.2,0.1-0.6,0.1-0.9,0.1&#xD;&#xA;	c-1.1,0-1.4-0.4-1.4-1.7c0-1.4,0.5-1.8,1.3-1.8c0.8,0,1.2,0.3,1.2,1.4c0,0.2,0,0.4-0.1,0.6H7.4z M8.4,8c0-0.1,0-0.1,0-0.2&#xD;&#xA;	c0-0.4-0.1-0.6-0.4-0.6C7.6,7.2,7.5,7.4,7.5,8H8.4z" xmlns="http://www.w3.org/2000/svg" />
<path id="_x31_" class="st197" d="M9.7,6H9.3V5.4h1.2v1.3c0.1-0.1,0.3-0.1,0.6-0.1c0.9,0,1.2,0.7,1.2,1.3v0.7c0,0.6-0.1,1.4-1.3,1.4&#xD;&#xA;	c-0.2,0-0.7,0-1.2-0.1V6z M10.5,9.4c0.1,0.1,0.3,0.1,0.4,0.1c0.4,0,0.6-0.2,0.6-0.9V8.1c0-0.7-0.1-0.8-0.6-0.8&#xD;&#xA;	c-0.2,0-0.3,0.1-0.4,0.1V9.4z" xmlns="http://www.w3.org/2000/svg" />
</g>
<g transform="translate(520, 104)">
<style type="text/css" xmlns="http://www.w3.org/2000/svg">
	.st098 {fill:#757575;}
	.st198 {fill:#1177D7;}
</style>
<path id="_x34_" class="st098" d="M0,1.5v12C0,13.8,0.2,14,0.5,14h14c0.3,0,0.5-0.2,0.5-0.5v-12C15,1.2,14.8,1,14.5,1h-14&#xD;&#xA;	C0.2,1,0,1.2,0,1.5z M14,13H1V3h13V13z" xmlns="http://www.w3.org/2000/svg" />
<path id="_x33_" class="st198" d="M5,8.8C5,9.9,3.9,10,3,10V9.4h0.2c0.5,0,1-0.1,1-0.6V6.1H3.8V5.5h1.6v0.6H5V8.8z" xmlns="http://www.w3.org/2000/svg" />
<path id="_x32_" class="st198" d="M7.4,10L7.4,9.9C7.1,10,6.8,10,6.7,10c-1,0-1.2-0.7-1.2-1.4V8c0-0.4,0.1-1.3,1.3-1.3&#xD;&#xA;	c0.4,0,0.8,0.1,1.2,0.2v2.5h0.4V10H7.4z M6.3,8.6c0,0.6,0.1,0.8,0.6,0.8c0.1,0,0.2-0.1,0.3-0.1v-2C7.2,7.3,7.1,7.3,6.9,7.3&#xD;&#xA;	c-0.4,0-0.6,0.2-0.6,0.9V8.6z" xmlns="http://www.w3.org/2000/svg" />
<path id="_x31_" class="st198" d="M10.9,8.1c0-0.5-0.1-0.8-0.4-0.8c-0.1,0-0.4,0.1-0.4,0.1v2.1h0.4V10H8.9V9.4h0.4V7.3H8.8V6.7h1&#xD;&#xA;	l0.1,0.1c0.2-0.1,0.6-0.2,0.8-0.2c0.8,0,1,0.3,1,1.2v1.4H12V10h-1.1L10.9,8.1L10.9,8.1z" xmlns="http://www.w3.org/2000/svg" />
</g>
<g transform="translate(492, 62)">
<style type="text/css" xmlns="http://www.w3.org/2000/svg">
	.st099 {fill:#757575;}
	.st199 {fill:#1177D7;}
</style>
<path id="_x34_" class="st099" d="M0,1.5v12C0,13.8,0.2,14,0.5,14h14c0.3,0,0.5-0.2,0.5-0.5v-12C15,1.2,14.8,1,14.5,1h-14&#xD;&#xA;	C0.2,1,0,1.2,0,1.5z M14,13H1V3h13V13z" xmlns="http://www.w3.org/2000/svg" />
<path id="_x33_" class="st199" d="M5.4,8.9c0,1.1-0.9,1.2-1.8,1.2V9.4h0.2c0.5,0,0.9-0.1,0.9-0.6V6H4.2V5.4h1.6V6H5.4V8.9z" xmlns="http://www.w3.org/2000/svg" />
<path id="_x32_" class="st199" d="M7.7,7.2V6.7h1.2v2.7h0.4V10h-1L8.2,9.9C7.9,10,7.7,10,7.5,10c-0.8,0-1.2-0.4-1.2-1.3V7.2H6V6.6h1.2&#xD;&#xA;	v1.9c0,0.6,0.1,0.9,0.4,0.9c0.2,0,0.3-0.1,0.4-0.1V7.2C8.1,7.2,7.7,7.2,7.7,7.2z" xmlns="http://www.w3.org/2000/svg" />
<path id="_x31_" class="st199" d="M9.4,5.4h1.2v4H11V10H9.5V9.4h0.4V6H9.5C9.5,6,9.5,5.4,9.4,5.4z" xmlns="http://www.w3.org/2000/svg" />
</g>
<g transform="translate(504, 360)">
<style type="text/css" xmlns="http://www.w3.org/2000/svg">
	.st0100 {fill:#757575;}
	.st1100 {fill:#1177D7;}
</style>
<path id="_x34_" class="st0100" d="M0,1.5v12C0,13.8,0.2,14,0.5,14h14c0.3,0,0.5-0.2,0.5-0.5v-12C15,1.2,14.8,1,14.5,1h-14&#xD;&#xA;	C0.2,1,0,1.2,0,1.5z M14,13H1V3h13V13z" xmlns="http://www.w3.org/2000/svg" />
<path id="_x33_" class="st1100" d="M4.7,8.9c0,1.1-1,1.2-1.8,1.2V9.4H3c0.5,0,0.8-0.1,0.8-0.6V6H3.5V5.4h1.6V6H4.7V8.9z" xmlns="http://www.w3.org/2000/svg" />
<path id="_x32_" class="st1100" d="M6.9,7.2V6.7h1.2v2.7h0.4V10h-1L7.4,9.9C7.2,10,6.9,10,6.8,10c-0.8,0-1.2-0.4-1.2-1.3V7.2H5.2V6.6&#xD;&#xA;	h1.2v1.9c0,0.6,0.1,0.9,0.4,0.9c0.2,0,0.3-0.1,0.4-0.1V7.2C7.3,7.2,6.9,7.2,6.9,7.2z" xmlns="http://www.w3.org/2000/svg" />
<path id="_x31_" class="st1100" d="M10.9,8c0-0.5-0.1-0.8-0.4-0.8c-0.1,0-0.4,0.1-0.4,0.1v2.1h0.4V10H8.9V9.4h0.4V7.2H8.8V6.6h1&#xD;&#xA;	l0.1,0.1c0.2-0.1,0.6-0.2,0.8-0.2c0.8,0,1,0.4,1,1.3v1.5H12V10h-1.1L10.9,8L10.9,8z" xmlns="http://www.w3.org/2000/svg" />
</g>
<g transform="translate(396, 360)">
<style type="text/css" xmlns="http://www.w3.org/2000/svg">
	.st0101 {fill:#757575;}
	.st1101 {fill:#1177D7;}
	.st2101 {fill:#727272;}
</style>
<path id="_x34_" class="st0101" d="M8.3,14H0.5C0.2,14,0,13.8,0,13.5v-12C0,1.2,0.2,1,0.5,1h14C14.8,1,15,1.2,15,1.5V11h-1V3H1v10h6&#xD;&#xA;	L8.3,14z" xmlns="http://www.w3.org/2000/svg" />
<polygon id="_x33_" class="st1101" points="8,13 12,10 12,12 16,12 16,14 12,14 12,16 " xmlns="http://www.w3.org/2000/svg" />
<path id="_x32_" class="st0101" d="M6.3,7.8H5.6V7.1h0.8c0.3,0,0.6-0.2,0.6-0.7c0-0.7-0.3-0.8-0.8-0.8c-0.1,0-0.5,0-0.9,0.2V5.1&#xD;&#xA;	C5.6,5,6,5,6.1,5C7,5,7.7,5.1,7.7,6.4c0,0.4-0.2,0.8-0.6,1l0,0c0.4,0.2,0.7,0.6,0.7,1.1c0,1.4-0.7,1.5-1.7,1.5&#xD;&#xA;	C5.9,10.1,5.5,10,5,9.9V9.2c0.6,0.1,0.9,0.2,1.2,0.2c0.4,0,0.8-0.1,0.8-0.8C6.9,8.1,6.8,7.8,6.3,7.8z" xmlns="http://www.w3.org/2000/svg" />
<path id="_x31_" class="st2101" d="M11,9.3V10H8.5V9.3h0.8V6l-1,0.5V5.7L9.4,5h0.8v4.2L11,9.3L11,9.3z" xmlns="http://www.w3.org/2000/svg" />
</g>
<g transform="translate(470, 42)">
<style type="text/css" xmlns="http://www.w3.org/2000/svg">
	.st0102 {fill:#757575;}
	.st1102 {fill:#1177D7;}
</style>
<path id="_x33_" class="st0102" d="M8.4,14H0.5C0.2,14,0,13.8,0,13.5v-12C0,1.2,0.2,1,0.5,1h14C14.8,1,15,1.2,15,1.5v9.6h-1V3H1v10h6&#xD;&#xA;	L8.4,14z" xmlns="http://www.w3.org/2000/svg" />
<polygon id="_x32_" class="st1102" points="8,13 12,10 12,12 16,12 16,14 12,14 12,16 " xmlns="http://www.w3.org/2000/svg" />
<path id="_x31_" class="st0102" d="M6.1,5H9v0.7L7.1,10H6.2l1.9-4.2H6.8v0.6H6C6.1,6.3,6.1,5,6.1,5z" xmlns="http://www.w3.org/2000/svg" />
</g>
<g transform="translate(468, 306)">
<style type="text/css" xmlns="http://www.w3.org/2000/svg">
	.st0103 {fill:#757575;}
	.st1103 {fill:#1177D7;}
	.st2103 {fill:#727272;}
</style>
<path id="_x34_" class="st0103" d="M8.3,14H0.5C0.2,14,0,13.8,0,13.5v-12C0,1.2,0.2,1,0.5,1h14C14.8,1,15,1.2,15,1.5V11h-1V3H1v10h6&#xD;&#xA;	L8.3,14z" xmlns="http://www.w3.org/2000/svg" />
<polygon id="_x33_" class="st1103" points="8,13 12,10 12,12 16,12 16,14 12,14 12,16 " xmlns="http://www.w3.org/2000/svg" />
<path id="_x32_" class="st0103" d="M7.4,9.3V10H4.9V9.3h0.8V6l-1,0.5V5.7L5.9,5h0.8v4.2L7.4,9.3L7.4,9.3z" xmlns="http://www.w3.org/2000/svg" />
<path id="_x31_" class="st2103" d="M7.8,10.8c0.6,0,0.9-0.1,1.1-0.9L8,7.1H7.7V6.4h1.5v0.7H8.9l0.4,1.8l0.4-1.8H9.5V6.4h1.6v0.7h-0.4&#xD;&#xA;	L9.8,9.8c-0.4,1.1-0.6,1.6-2.1,1.6C7.8,11.4,7.8,10.8,7.8,10.8z" xmlns="http://www.w3.org/2000/svg" />
</g>
<g transform="translate(490, 126)">
<style type="text/css" xmlns="http://www.w3.org/2000/svg">
	.st0104 {fill:#757575;}
	.st1104 {fill:#1177D7;}
	.st2104 {fill:#D11C1C;}
</style>
<path id="_x31_1" class="st0104" d="M0,1.5v12C0,13.8,0.2,14,0.5,14h14c0.3,0,0.5-0.2,0.5-0.5v-12C15,1.2,14.8,1,14.5,1h-14&#xD;&#xA;	C0.2,1,0,1.2,0,1.5z M14,13H1V3h13V13z" xmlns="http://www.w3.org/2000/svg" />
<rect id="_x31_0" x="5" y="4" class="st1104" width="2" height="2" xmlns="http://www.w3.org/2000/svg" />
<rect id="_x39_" x="8" y="4" class="st1104" width="2" height="2" xmlns="http://www.w3.org/2000/svg" />
<rect id="_x38_" x="11" y="4" class="st1104" width="2" height="2" xmlns="http://www.w3.org/2000/svg" />
<rect id="_x37_" x="2" y="7" class="st1104" width="2" height="2" xmlns="http://www.w3.org/2000/svg" />
<rect id="_x36_" x="5" y="7" class="st1104" width="2" height="2" xmlns="http://www.w3.org/2000/svg" />
<rect id="_x35_" x="8" y="7" class="st1104" width="2" height="2" xmlns="http://www.w3.org/2000/svg" />
<rect id="_x34_" x="11" y="7" class="st1104" width="2" height="2" xmlns="http://www.w3.org/2000/svg" />
<rect id="_x33_" x="2" y="10" class="st1104" width="2" height="2" xmlns="http://www.w3.org/2000/svg" />
<rect id="_x32_" x="5" y="10" class="st1104" width="2" height="2" xmlns="http://www.w3.org/2000/svg" />
<rect id="_x31_" x="8" y="10" class="st2104" width="2" height="2" xmlns="http://www.w3.org/2000/svg" />
</g>
<g transform="translate(466, 378)">
<style type="text/css" xmlns="http://www.w3.org/2000/svg">
	.st0105 {fill:#757575;}
	.st1105 {fill:#1177D7;}
	.st2105 {fill:#D11C1C;}
	.st3105 {opacity:0.5;}
</style>
<path id="_x31_3" class="st0105" d="M0,1.5v12C0,13.8,0.2,14,0.5,14h14c0.3,0,0.5-0.2,0.5-0.5v-12C15,1.2,14.8,1,14.5,1h-14&#xD;&#xA;	C0.2,1,0,1.2,0,1.5z M14,13H1V3h13V13z" xmlns="http://www.w3.org/2000/svg" />
<rect id="_x31_2" x="8" y="7" class="st1105" width="2" height="2" xmlns="http://www.w3.org/2000/svg" />
<rect id="_x31_1" x="11" y="7" class="st2105" width="2" height="2" xmlns="http://www.w3.org/2000/svg" />
<rect id="_x31_0" x="5" y="7" class="st1105" width="2" height="2" xmlns="http://www.w3.org/2000/svg" />
<rect id="_x39_" x="2" y="7" class="st1105" width="2" height="2" xmlns="http://www.w3.org/2000/svg" />
<g id="_x30_" class="st3105" xmlns="http://www.w3.org/2000/svg">
	<rect id="_x38_" x="2" y="4" class="st0105" width="2" height="2" />
	<rect id="_x37_" x="5" y="4" class="st0105" width="2" height="2" />
	<rect id="_x36_" x="8" y="4" class="st0105" width="2" height="2" />
	<rect id="_x35_" x="11" y="4" class="st0105" width="2" height="2" />
	<rect id="_x34_" x="2" y="10" class="st0105" width="2" height="2" />
	<rect id="_x33_" x="5" y="10" class="st0105" width="2" height="2" />
	<rect id="_x32_" x="8" y="10" class="st0105" width="2" height="2" />
	<rect id="_x31_" x="11" y="10" class="st0105" width="2" height="2" />
</g>
</g>
<g transform="translate(496, 82)">
<style type="text/css" xmlns="http://www.w3.org/2000/svg">
	.st0106 {fill:#757575;}
	.st1106 {opacity:0.5;}
	.st2106 {fill:#D11C1C;}
</style>
<path id="_x31_3" class="st0106" d="M0,1.5v12C0,13.8,0.2,14,0.5,14h14c0.3,0,0.5-0.2,0.5-0.5v-12C15,1.2,14.8,1,14.5,1h-14&#xD;&#xA;	C0.2,1,0,1.2,0,1.5z M14,13H1V3h13V13z" xmlns="http://www.w3.org/2000/svg" />
<g id="_x31_" class="st1106" xmlns="http://www.w3.org/2000/svg">
	<rect id="_x31_2" x="2" y="4" class="st0106" width="2" height="2" />
	<rect id="_x31_1" x="5" y="4" class="st0106" width="2" height="2" />
	<rect id="_x31_0" x="8" y="4" class="st0106" width="2" height="2" />
	<rect id="_x39_" x="11" y="4" class="st0106" width="2" height="2" />
	<rect id="_x38_" x="2" y="7" class="st0106" width="2" height="2" />
	<rect id="_x37_" x="5" y="7" class="st0106" width="2" height="2" />
	<rect id="_x36_" x="8" y="7" class="st0106" width="2" height="2" />
	<rect id="_x35_" x="11" y="7" class="st0106" width="2" height="2" />
	<rect id="_x34_" x="2" y="10" class="st0106" width="2" height="2" />
	<rect id="_x33_" x="5" y="10" class="st0106" width="2" height="2" />
	<rect id="_x32_" x="8" y="10" class="st0106" width="2" height="2" />
</g>
<rect id="_x30_" x="11" y="10" class="st2106" width="2" height="2" xmlns="http://www.w3.org/2000/svg" />
</g>
<g transform="translate(434, 42)">
<style type="text/css" xmlns="http://www.w3.org/2000/svg">
	.st0107 {fill:#757575;}
	.st1107 {fill:#1177D7;}
</style>
<path id="_x34_" class="st0107" d="M0,1.5v12C0,13.8,0.2,14,0.5,14h14c0.3,0,0.5-0.2,0.5-0.5v-12C15,1.2,14.8,1,14.5,1h-14&#xD;&#xA;	C0.2,1,0,1.2,0,1.5z M14,13H1V3h13V13z" xmlns="http://www.w3.org/2000/svg" />
<path id="_x33_" class="st1107" d="M3.7,5.4l0.9,2.8l0.9-2.8h1.4V6H6.5l0.2,3.4h0.4V10H5.5V9.4h0.4L5.8,6.9L4.9,9.4H4.2L3.3,7L3.2,9.4&#xD;&#xA;	h0.4V10H2V9.4h0.4L2.7,6H2.2V5.4H3.7z" xmlns="http://www.w3.org/2000/svg" />
<path id="_x32_" class="st1107" d="M9.3,10L9.2,9.9C8.9,10,8.6,10,8.6,10c-1,0-1.2-0.8-1.2-1.4V8c0-0.5,0.1-1.3,1.3-1.3&#xD;&#xA;	c0.4,0,0.8,0.1,1.2,0.2v2.5h0.4V10H9.3z M8.2,8.6c0,0.6,0.1,0.8,0.6,0.8c0.1,0,0.2-0.1,0.4-0.1V7.3C9.1,7.2,9,7.2,8.8,7.2&#xD;&#xA;	c-0.4,0-0.6,0.2-0.6,0.9V8.6z" xmlns="http://www.w3.org/2000/svg" />
<path id="_x31_" class="st1107" d="M12.1,9.4V10h-1.5V9.4H11V7.2h-0.4V6.6h1.1l0.1,0.2c0.4-0.2,0.6-0.3,1-0.3v0.8&#xD;&#xA;	c-0.2,0-0.8,0.1-0.9,0.2v1.9H12.1z" xmlns="http://www.w3.org/2000/svg" />
</g>
<g transform="translate(484, 104)">
<style type="text/css" xmlns="http://www.w3.org/2000/svg">
	.st0108 {fill:#757575;}
	.st1108 {fill:#1177D7;}
</style>
<path id="_x34_" class="st0108" d="M0,1.5v12C0,13.8,0.2,14,0.5,14h14c0.3,0,0.5-0.2,0.5-0.5v-12C15,1.2,14.8,1,14.5,1h-14&#xD;&#xA;	C0.2,1,0,1.2,0,1.5z M14,13H1V3h13V13z" xmlns="http://www.w3.org/2000/svg" />
<path id="_x33_" class="st1108" d="M3.7,5.4l0.9,2.8l0.9-2.8h1.4V6H6.5l0.2,3.4h0.4V10H5.4V9.4h0.4L5.7,6.9L4.8,9.4H4.2L3.3,7L3.2,9.4&#xD;&#xA;	h0.4V10H2V9.4h0.4L2.6,6H2.2V5.4H3.7z" xmlns="http://www.w3.org/2000/svg" />
<path id="_x32_" class="st1108" d="M9.3,10L9.2,9.9C8.9,10,8.6,10,8.6,10c-1,0-1.2-0.8-1.2-1.4V8c0-0.5,0.1-1.3,1.3-1.3&#xD;&#xA;	c0.4,0,0.8,0.1,1.2,0.2v2.5h0.4V10H9.3z M8.2,8.6c0,0.6,0.1,0.8,0.6,0.8c0.1,0,0.2-0.1,0.4-0.1V7.3C9,7.2,8.9,7.2,8.8,7.2&#xD;&#xA;	c-0.4,0-0.6,0.2-0.6,0.9V8.6z" xmlns="http://www.w3.org/2000/svg" />
<path id="_x31_" class="st1108" d="M10.6,10.8c0.6,0,0.9-0.1,1.1-0.8l-0.9-2.7h-0.3V6.7h1.4v0.6h-0.3L12,8.9l0.4-1.6h-0.3V6.7h1.4v0.6&#xD;&#xA;	h-0.3l-0.8,2.5c-0.3,1.1-0.6,1.5-1.9,1.6C10.5,11.4,10.5,10.8,10.6,10.8z" xmlns="http://www.w3.org/2000/svg" />
</g>
<g transform="translate(514, 150)">
<style type="text/css" xmlns="http://www.w3.org/2000/svg">
	.st0109 {fill:#757575;}
	.st1109 {fill:#1177D7;}
</style>
<path id="_x34_" class="st0109" d="M7,14H0.5C0.2,14,0,13.8,0,13.5v-12C0,1.2,0.2,1,0.5,1h14C14.8,1,15,1.2,15,1.5v9.8l-1-0.8V3H1v10h6&#xD;&#xA;	V14z" xmlns="http://www.w3.org/2000/svg" />
<polygon id="_x33_" class="st1109" points="12,16 12,14 8,14 8,12 12,12 12,10 16,13 " xmlns="http://www.w3.org/2000/svg" />
<path id="_x32_" class="st0109" d="M6.3,7.8H5.6V7.1h0.8c0.3,0,0.6-0.2,0.6-0.7c0-0.7-0.3-0.8-0.8-0.8c-0.1,0-0.5,0-0.9,0.2V5.2&#xD;&#xA;	C5.6,5,6,5,6.1,5C7,5,7.7,5.1,7.7,6.5c0,0.4-0.2,0.8-0.6,1l0,0c0.4,0.2,0.7,0.6,0.7,1.1c0,1.4-0.7,1.5-1.7,1.5&#xD;&#xA;	c-0.2,0-0.7-0.1-1.2-0.2V9.2c0.6,0.1,0.9,0.2,1.2,0.2c0.4,0,0.8-0.1,0.8-0.8C7,8.1,6.8,7.8,6.3,7.8z" xmlns="http://www.w3.org/2000/svg" />
<path id="_x31_" class="st0109" d="M11,9.3V10H8.5V9.3h0.8V6l-1,0.5V5.7L9.4,5h0.8v4.2L11,9.3L11,9.3z" xmlns="http://www.w3.org/2000/svg" />
</g>
<g transform="translate(508, 126)">
<style type="text/css" xmlns="http://www.w3.org/2000/svg">
	.st0110 {fill:#757575;}
	.st1110 {fill:#1177D7;}
</style>
<path id="_x33_" class="st0110" d="M7,14H0.5C0.2,14,0,13.8,0,13.5v-12C0,1.2,0.2,1,0.5,1h14C14.8,1,15,1.2,15,1.5v9.8l-1-0.8V3H1v10h6&#xD;&#xA;	V14z" xmlns="http://www.w3.org/2000/svg" />
<polygon id="_x32_" class="st1110" points="12,16 12,14 8,14 8,12 12,12 12,10 16,13 " xmlns="http://www.w3.org/2000/svg" />
<path id="_x31_" class="st0110" d="M6.1,5H9v0.7L7.1,10H6.2l1.9-4.2H6.8v0.6H6C6.1,6.3,6.1,5,6.1,5z" xmlns="http://www.w3.org/2000/svg" />
</g>
<g transform="translate(416, 42)">
<style type="text/css" xmlns="http://www.w3.org/2000/svg">
	.st0111 {fill:#757575;}
	.st1111 {fill:#1177D7;}
</style>
<path id="_x34_" class="st0111" d="M7,14H0.5C0.2,14,0,13.8,0,13.5v-12C0,1.2,0.2,1,0.5,1h14C14.8,1,15,1.2,15,1.5v9.8l-1-0.8V3H1v10h6&#xD;&#xA;	V14z" xmlns="http://www.w3.org/2000/svg" />
<polygon id="_x33_" class="st1111" points="12,16 12,14 8,14 8,12 12,12 12,10 16,13 " xmlns="http://www.w3.org/2000/svg" />
<path id="_x32_" class="st0111" d="M7.4,9.3V10H4.9V9.3h0.8V6l-1,0.5V5.7L5.9,5h0.8v4.2L7.4,9.3L7.4,9.3z" xmlns="http://www.w3.org/2000/svg" />
<path id="_x31_" class="st0111" d="M7.8,10.8c0.6,0,0.9-0.1,1.1-0.9L8,7.1H7.7V6.4h1.5v0.7H8.9l0.4,1.8l0.4-1.8H9.5V6.4h1.6v0.7h-0.4&#xD;&#xA;	L9.8,9.8c-0.4,1.1-0.6,1.6-2.1,1.6C7.8,11.4,7.8,10.8,7.8,10.8z" xmlns="http://www.w3.org/2000/svg" />
</g>
<g transform="translate(456, 62)">
<style type="text/css" xmlns="http://www.w3.org/2000/svg">
	.st0112 {fill:#757575;}
	.st1112 {fill:#1177D7;}
</style>
<path id="_x34_" class="st0112" d="M0,1.5v12C0,13.8,0.2,14,0.5,14h14c0.3,0,0.5-0.2,0.5-0.5v-12C15,1.2,14.8,1,14.5,1h-14&#xD;&#xA;	C0.2,1,0,1.2,0,1.5z M14,13H1V3h13V13z" xmlns="http://www.w3.org/2000/svg" />
<path id="_x33_" class="st1112" d="M5.2,10L3.9,7.1v2.3h0.4V10H2.7V9.4h0.4V6H2.7V5.4H4l1.2,2.9V6H4.8V5.4h1.7V6H6v4H5.2z" xmlns="http://www.w3.org/2000/svg" />
<path id="_x32_" class="st1112" d="M9.4,8.7c0,0.4-0.1,1.4-1.4,1.4S6.7,9.2,6.7,8.7V7.9c0-0.4,0.1-1.3,1.3-1.3s1.4,0.9,1.4,1.3V8.7z&#xD;&#xA;	 M8.6,7.9c0-0.6-0.2-0.7-0.6-0.7c-0.3,0-0.6,0.2-0.6,0.7v0.8c0,0.6,0.2,0.7,0.6,0.7s0.6-0.2,0.6-0.7V7.9z" xmlns="http://www.w3.org/2000/svg" />
<path id="_x31_" class="st1112" d="M9.6,7.2V6.7H11v0.6h-0.3l0.4,1.6l0.4-1.6h-0.3V6.7h1.4v0.6h-0.3L11.4,10h-0.8L9.9,7.2H9.6z" xmlns="http://www.w3.org/2000/svg" />
</g>
<g transform="translate(414, 306)">
<style type="text/css" xmlns="http://www.w3.org/2000/svg">
	.st0113 {fill:#757575;}
	.st1113 {fill:#1177D7;}
</style>
<path id="_x34_" class="st0113" d="M0,1.5v12C0,13.8,0.2,14,0.5,14h14c0.3,0,0.5-0.2,0.5-0.5v-12C15,1.2,14.8,1,14.5,1h-14&#xD;&#xA;	C0.2,1,0,1.2,0,1.5z M14,13H1V3h13V13z" xmlns="http://www.w3.org/2000/svg" />
<path id="_x33_" class="st1113" d="M6.4,8.2c0,0.6-0.1,1.9-1.7,1.9S3,8.9,3,8.2V7.1c0-0.7,0-1.8,1.7-1.8s1.7,1.2,1.7,1.8&#xD;&#xA;	C6.4,7.1,6.4,8.2,6.4,8.2z M3.9,8.2c0,0.9,0.3,1.1,0.9,1.1c0.7,0,0.9-0.3,0.9-1.1V7.1C5.7,6.2,5.4,6,4.8,6C4.2,6,3.9,6.2,3.9,7.1&#xD;&#xA;	V8.2z" xmlns="http://www.w3.org/2000/svg" />
<path id="_x32_" class="st1113" d="M8.5,7.3c-0.1,0-0.1-0.1-0.2-0.1C8,7.2,7.8,7.4,7.7,8v0.6c0,0.6,0.2,0.8,0.6,0.8&#xD;&#xA;	c0.3,0,0.6-0.1,0.9-0.1v0.6c-0.2,0.1-0.6,0.1-0.9,0.1c-1.2,0-1.3-0.9-1.3-1.3V8c0-0.4,0.1-1.3,1.3-1.3c0.4,0,0.7,0.1,0.9,0.2v1H8.5&#xD;&#xA;	C8.5,7.8,8.5,7.3,8.5,7.3z" xmlns="http://www.w3.org/2000/svg" />
<path id="_x31_" class="st1113" d="M11.4,10c-0.2,0.1-0.4,0.1-0.6,0.1c-0.7,0-0.9-0.4-0.9-1V7.3H9.5V6.7h0.4L10,5.9h0.6v0.8h0.8v0.6&#xD;&#xA;	h-0.8V9c0,0.2,0.1,0.4,0.3,0.4c0.1,0,0.2,0,0.4-0.1L11.4,10L11.4,10z" xmlns="http://www.w3.org/2000/svg" />
</g>
<g transform="translate(516, 50)">
<style type="text/css" xmlns="http://www.w3.org/2000/svg">
	.st0114 {fill:#757575;}
	.st1114 {fill:#1177D7;}
</style>
<path id="_x34_" class="st0114" d="M8.3,14H0.5C0.2,14,0,13.8,0,13.5v-12C0,1.2,0.2,1,0.5,1h14C14.8,1,15,1.2,15,1.5V11h-1V3H1v10h6&#xD;&#xA;	L8.3,14z" xmlns="http://www.w3.org/2000/svg" />
<polygon id="_x33_" class="st1114" points="8,13 12,10 12,12 16,12 16,14 12,14 12,16 " xmlns="http://www.w3.org/2000/svg" />
<path id="_x32_" class="st0114" d="M7.4,9.3V10H4.9V9.3h0.8V6l-1,0.6V5.7L5.9,5h0.8v4.2L7.4,9.3C7.4,9.2,7.4,9.3,7.4,9.3z" xmlns="http://www.w3.org/2000/svg" />
<path id="_x31_" class="st0114" d="M7.8,10.8c0.6,0,0.9-0.1,1.1-0.9L8,7.1H7.7V6.4h1.5v0.7H8.9l0.4,1.8l0.4-1.8H9.5V6.4h1.6v0.7h-0.4&#xD;&#xA;	L9.8,9.8c-0.4,1.1-0.6,1.6-2.1,1.6C7.8,11.4,7.8,10.8,7.8,10.8z" xmlns="http://www.w3.org/2000/svg" />
</g>
<g transform="translate(468, 360)">
<style type="text/css" xmlns="http://www.w3.org/2000/svg">
	.st0115 {fill:#757575;}
	.st1115 {fill:#1177D7;}
	.st2115 {opacity:0.5;}
</style>
<path id="_x34_" class="st0115" d="M0,1.5v12C0,13.8,0.2,14,0.5,14h14c0.3,0,0.5-0.2,0.5-0.5v-12C15,1.2,14.8,1,14.5,1h-14&#xD;&#xA;	C0.2,1,0,1.2,0,1.5z M14,13H1V3h13V13z" xmlns="http://www.w3.org/2000/svg" />
<rect id="_x33_" x="8" y="7" class="st1115" width="2" height="2" xmlns="http://www.w3.org/2000/svg" />
<g id="_x31_" class="st2115" xmlns="http://www.w3.org/2000/svg">
	<path id="_x32_" class="st0115" d="M4,12H2v-2h2V12z M7,10H5v2h2V10z M10,10H8v2h2V10z M13,10h-2v2h2V10z M10,4H8v2h2V4z M13,4h-2v2h2&#xD;&#xA;		V4z M13,7h-2v2h2V7z M7,7H5v2h2V7z M4,7H2v2h2V7z M7,4H5v2h2V4z M4,4H2v2h2V4z" />
</g>
</g>
<g transform="translate(450, 252)">
<style type="text/css" xmlns="http://www.w3.org/2000/svg">
	.st0116 {fill:#757575;}
	.st1116 {fill:#1177D7;}
</style>
<path id="_x34_" class="st0116" d="M0,1.5v12C0,13.8,0.2,14,0.5,14h14c0.3,0,0.5-0.2,0.5-0.5v-12C15,1.2,14.8,1,14.5,1h-14&#xD;&#xA;	C0.2,1,0,1.2,0,1.5z M14,13H1V3h13V13z" xmlns="http://www.w3.org/2000/svg" />
<path id="_x33_" class="st1116" d="M4,8.8v0.6c0.1,0.1,0.4,0.1,0.5,0.1c0.4,0,0.7-0.1,0.7-0.6c0-0.3-0.1-0.4-0.2-0.6L4,7.8&#xD;&#xA;	C3.6,7.5,3.3,7.2,3.3,6.6c0-0.9,0.4-1.2,1.5-1.2c0.2,0,0.7,0.1,1.1,0.2v1H5.1V6C5,5.9,4.8,5.9,4.8,5.9c-0.4,0-0.7,0.2-0.7,0.6&#xD;&#xA;	c0,0.3,0.1,0.4,0.4,0.7C4.7,7.3,5,7.5,5.2,7.6c0.4,0.3,0.7,0.6,0.7,1.2c0,0.9-0.6,1.2-1.5,1.2c-0.2,0-0.8-0.1-1.2-0.2V8.8L4,8.8&#xD;&#xA;	L4,8.8z" xmlns="http://www.w3.org/2000/svg" />
<path id="_x32_" class="st1116" d="M7.1,8.6c0,0.8,0.3,0.9,0.7,0.9c0.1,0,0.5-0.1,0.8-0.1v0.6C8.4,10,8,10.1,7.7,10.1&#xD;&#xA;	c-1.1,0-1.4-0.4-1.4-1.7c0-1.4,0.5-1.8,1.3-1.8c0.8,0,1.2,0.3,1.2,1.4c0,0.2,0,0.4-0.1,0.6H7.1z M8.1,8c0-0.1,0-0.1,0-0.2&#xD;&#xA;	c0-0.4-0.2-0.6-0.4-0.6C7.3,7.2,7.2,7.4,7.2,8H8.1z" xmlns="http://www.w3.org/2000/svg" />
<path id="_x31_" class="st1116" d="M10.1,6.7L10.1,6.7c0.3,0,0.6-0.1,0.8-0.1c0.8,0,1.2,0.4,1.2,1.4v0.7c0,1-0.4,1.4-1.2,1.4&#xD;&#xA;	c-0.2,0-0.4-0.1-0.6-0.1v0.7h0.4v0.6H9.2v-0.6h0.3V7.2H9.1V6.7H10.1z M10.3,9.4c0.1,0.1,0.2,0.1,0.4,0.1c0.4,0,0.6-0.1,0.6-0.8V8.1&#xD;&#xA;	c0-0.6-0.1-0.8-0.6-0.8c-0.1,0-0.3,0.1-0.4,0.1V9.4z" xmlns="http://www.w3.org/2000/svg" />
</g>
<g transform="translate(504, 342)">
<style type="text/css" xmlns="http://www.w3.org/2000/svg">
	.st0117 {fill:#757575;}
	.st1117 {fill:#1177D7;}
	.st2117 {opacity:0.5;}
</style>
<path id="_x34_" class="st0117" d="M0,1.5v12C0,13.8,0.2,14,0.5,14h14c0.3,0,0.5-0.2,0.5-0.5v-12C15,1.2,14.8,1,14.5,1h-14&#xD;&#xA;	C0.2,1,0,1.2,0,1.5z M14,13H1V3h13V13z" xmlns="http://www.w3.org/2000/svg" />
<path id="_x33_" class="st1117" d="M10,9H8V7h2V9z M7,7H5v2h2V7z M7,4H5v2h2V4z M10,4H8v2h2V4z M13,4h-2v2h2V4z M10,10H8v2h2V10z M7,10&#xD;&#xA;	H5v2h2V10z M4,10H2v2h2V10z M4,7H2v2h2V7z M13,7h-2v2h2V7z" xmlns="http://www.w3.org/2000/svg" />
<g id="_x31_" class="st2117" xmlns="http://www.w3.org/2000/svg">
	<path id="_x32_" class="st0117" d="M13,10h-2v2h2V10z M4,4H2v2h2V4z" />
</g>
</g>
<g transform="translate(468, 198)">
<style type="text/css" xmlns="http://www.w3.org/2000/svg">
	.st0118 {fill:#757575;}
	.st1118 {fill:#1177D7;}
	.st2118 {opacity:0.5;}
</style>
<path id="_x33_" class="st0118" d="M0,1.5v12C0,13.8,0.2,14,0.5,14h14c0.3,0,0.5-0.2,0.5-0.5v-12C15,1.2,14.8,1,14.5,1h-14&#xD;&#xA;	C0.2,1,0,1.2,0,1.5z M14,13H1V3h13V13z" xmlns="http://www.w3.org/2000/svg" />
<path id="_x32_" class="st1118" d="M10,9H8V7h2V9z M7,7H5v2h2V7z M4,7H2v2h2V7z M13,7h-2v2h2V7z" xmlns="http://www.w3.org/2000/svg" />
<g id="_x31_" class="st2118" xmlns="http://www.w3.org/2000/svg">
	<path id="_x31__x5F_1" class="st0118" d="M4,12H2v-2h2V12z M7,10H5v2h2V10z M10,10H8v2h2V10z M13,10h-2v2h2V10z M10,4H8v2h2V4z M13,4&#xD;&#xA;		h-2v2h2V4z M7,4H5v2h2V4z M4,4H2v2h2V4z" />
</g>
</g>
<g transform="translate(432, 270)">
<style type="text/css" xmlns="http://www.w3.org/2000/svg">
	.st0119 {fill:#757575;}
</style>
<path id="_x33_" class="st0119" d="M14.5,1h-14C0.2,1,0,1.2,0,1.5v12C0,13.8,0.2,14,0.5,14h14c0.3,0,0.5-0.2,0.5-0.5v-12&#xD;&#xA;	C15,1.2,14.8,1,14.5,1z M1,13V3h13v10H1z" xmlns="http://www.w3.org/2000/svg" />
<path id="_x32_" class="st0119" d="M7.5,9.3V10H5V9.3h0.8V6l-1,0.5V5.7L6,5h0.8v4.2L7.5,9.3L7.5,9.3z" xmlns="http://www.w3.org/2000/svg" />
<path id="_x31_" class="st0119" d="M7.8,10.8c0.6,0,0.9-0.1,1.1-0.9L8,7.1H7.7V6.4h1.5v0.7H8.9l0.4,1.8l0.4-1.8H9.5V6.4h1.6v0.7h-0.4&#xD;&#xA;	L9.8,9.8c-0.4,1.1-0.6,1.6-2.1,1.6C7.8,11.4,7.8,10.8,7.8,10.8z" xmlns="http://www.w3.org/2000/svg" />
</g>
<g transform="translate(486, 288)">
<style type="text/css" xmlns="http://www.w3.org/2000/svg">
	.st0120 {fill:#757575;}
	.st1120 {opacity:0.5;}
	.st2120 {fill:#1177D7;}
</style>
<path id="_x33__00000097477679186759105320000015405254254522675600_" class="st0120" d="M0,1.5v12C0,13.8,0.2,14,0.5,14h14&#xD;&#xA;	c0.3,0,0.5-0.2,0.5-0.5v-12C15,1.2,14.8,1,14.5,1h-14C0.2,1,0,1.2,0,1.5z M14,13H1V3h13V13z" xmlns="http://www.w3.org/2000/svg" />
<g id="_x32_" class="st1120" xmlns="http://www.w3.org/2000/svg">
	<rect id="_x31_1" x="11" y="7" class="st0120" width="2" height="2" />
	<rect id="_x31_0" x="2" y="4" class="st0120" width="2" height="2" />
	<rect id="_x39_" x="5" y="4" class="st0120" width="2" height="2" />
	<rect id="_x38_" x="8" y="4" class="st0120" width="2" height="2" />
	<rect id="_x37_" x="11" y="4" class="st0120" width="2" height="2" />
	<rect id="_x36_" x="2" y="7" class="st0120" width="2" height="2" />
	<rect id="_x35_" x="5" y="7" class="st0120" width="2" height="2" />
	<rect id="_x34_" x="2" y="10" class="st0120" width="2" height="2" />
	<rect id="_x33_" x="5" y="10" class="st0120" width="2" height="2" />
	<rect id="_x32__00000121253572167149964570000017956271996407006858_" x="8" y="10" class="st0120" width="2" height="2" />
	<rect id="_x31__00000039117913330644306150000017545975939751480240_" x="11" y="10" class="st0120" width="2" height="2" />
</g>
<rect id="_x31_" x="8" y="7" class="st2120" width="2" height="2" xmlns="http://www.w3.org/2000/svg" />
</g>
<g transform="translate(414, 252)">
<style type="text/css" xmlns="http://www.w3.org/2000/svg">
	.st0121 {fill:#757575;}
	.st1121 {fill:#D11C1C;}
	.st2121 {fill:#1177D7;}
	.st3121 {opacity:0.5;}
</style>
<path id="_x31_3" class="st0121" d="M0,1.5v12C0,13.8,0.2,14,0.5,14h14c0.3,0,0.5-0.2,0.5-0.5v-12C15,1.2,14.8,1,14.5,1h-14&#xD;&#xA;	C0.2,1,0,1.2,0,1.5z M14,13H1V3h13V13z" xmlns="http://www.w3.org/2000/svg" />
<rect id="_x31_2" x="8" y="7" class="st1121" width="2" height="2" xmlns="http://www.w3.org/2000/svg" />
<rect id="_x31_1" x="5" y="7" class="st2121" width="2" height="2" xmlns="http://www.w3.org/2000/svg" />
<g id="_x30_" class="st3121" xmlns="http://www.w3.org/2000/svg">
	<rect id="_x31_0" x="11" y="7" class="st0121" width="2" height="2" />
	<rect id="_x39_" x="2" y="4" class="st0121" width="2" height="2" />
	<rect id="_x38_" x="5" y="4" class="st0121" width="2" height="2" />
	<rect id="_x37_" x="8" y="4" class="st0121" width="2" height="2" />
	<rect id="_x36_" x="11" y="4" class="st0121" width="2" height="2" />
	<rect id="_x35_" x="2" y="7" class="st0121" width="2" height="2" />
	<rect id="_x34_" x="2" y="10" class="st0121" width="2" height="2" />
	<rect id="_x33_" x="5" y="10" class="st0121" width="2" height="2" />
	<rect id="_x32_" x="8" y="10" class="st0121" width="2" height="2" />
	<rect id="_x31_" x="11" y="10" class="st0121" width="2" height="2" />
</g>
</g>
<g transform="translate(450, 270)">
<style type="text/css" xmlns="http://www.w3.org/2000/svg">
	.st0122 {fill:#757575;}
	.st1122 {fill:#1177D7;}
	.st2122 {fill:#D11C1C;}
</style>
<path id="_x31_3" class="st0122" d="M0,1.5v12C0,13.8,0.2,14,0.5,14h14c0.3,0,0.5-0.2,0.5-0.5v-12C15,1.2,14.8,1,14.5,1h-14&#xD;&#xA;	C0.2,1,0,1.2,0,1.5z M14,13H1V3h13V13z" xmlns="http://www.w3.org/2000/svg" />
<rect id="_x31_2" x="5" y="4" class="st1122" width="2" height="2" xmlns="http://www.w3.org/2000/svg" />
<rect id="_x31_1" x="8" y="4" class="st1122" width="2" height="2" xmlns="http://www.w3.org/2000/svg" />
<rect id="_x31_0" x="11" y="4" class="st1122" width="2" height="2" xmlns="http://www.w3.org/2000/svg" />
<rect id="_x39_" x="2" y="7" class="st1122" width="2" height="2" xmlns="http://www.w3.org/2000/svg" />
<rect id="_x38_" x="5" y="7" class="st2122" width="2" height="2" xmlns="http://www.w3.org/2000/svg" />
<rect id="_x37_" x="8" y="7" class="st1122" width="2" height="2" xmlns="http://www.w3.org/2000/svg" />
<rect id="_x36_" x="11" y="7" class="st1122" width="2" height="2" xmlns="http://www.w3.org/2000/svg" />
<rect id="_x35_" x="2" y="10" class="st1122" width="2" height="2" xmlns="http://www.w3.org/2000/svg" />
<rect id="_x34_" x="5" y="10" class="st1122" width="2" height="2" xmlns="http://www.w3.org/2000/svg" />
<rect id="_x33_" x="8" y="10" class="st1122" width="2" height="2" xmlns="http://www.w3.org/2000/svg" />
<rect id="_x32_" x="11" y="10" class="st1122" width="2" height="2" xmlns="http://www.w3.org/2000/svg" />
<rect id="_x31_" x="2" y="4" class="st1122" width="2" height="2" xmlns="http://www.w3.org/2000/svg" />
</g>
<g transform="translate(520, 378)">
<style type="text/css" xmlns="http://www.w3.org/2000/svg">
	.st0123 {fill:#757575;}
	.st1123 {fill:#1177D7;}
	.st2123 {fill:#D11C1C;}
	.st3123 {opacity:0.5;}
</style>
<path id="_x33_" class="st0123" d="M0,1.5v12C0,13.8,0.2,14,0.5,14h14c0.3,0,0.5-0.2,0.5-0.5v-12C15,1.2,14.8,1,14.5,1h-14&#xD;&#xA;	C0.2,1,0,1.2,0,1.5z M14,13H1V3h13V13z" xmlns="http://www.w3.org/2000/svg" />
<rect id="_x32_" x="8" y="7" class="st1123" width="2" height="2" xmlns="http://www.w3.org/2000/svg" />
<rect id="_x31_" x="5" y="7" class="st2123" width="2" height="2" xmlns="http://www.w3.org/2000/svg" />
<g id="_x30_" class="st3123" xmlns="http://www.w3.org/2000/svg">
	<rect id="_x31_0" x="11" y="7" class="st0123" width="2" height="2" />
	<rect id="_x39_" x="2" y="4" class="st0123" width="2" height="2" />
	<rect id="_x38_" x="5" y="4" class="st0123" width="2" height="2" />
	<rect id="_x37_" x="8" y="4" class="st0123" width="2" height="2" />
	<rect id="_x36_" x="11" y="4" class="st0123" width="2" height="2" />
	<rect id="_x35_" x="2" y="7" class="st0123" width="2" height="2" />
	<rect id="_x34_" x="2" y="10" class="st0123" width="2" height="2" />
	<rect id="_x33__00000089563950064459712810000010690122741376510859_" x="5" y="10" class="st0123" width="2" height="2" />
	<rect id="_x32__00000021110549124770184330000014713122687827315857_" x="8" y="10" class="st0123" width="2" height="2" />
	<rect id="_x31__00000054234132314685001880000012118890800852676509_" x="11" y="10" class="st0123" width="2" height="2" />
</g>
</g>
<g transform="translate(450, 360)">
<polygon style="fill:#757575;" points="11,14 3,8 11,2 12,3 5.5,8 12,13 " xmlns="http://www.w3.org/2000/svg" />
</g>
<g transform="translate(486, 324)">
<polygon style="fill:#757575;" points="12,13 4,7 12,1 13,2 6.5,7 13,12 " xmlns="http://www.w3.org/2000/svg" />
<polygon style="fill:#757575;" points="2,9 10,15 11,14 3,8 " xmlns="http://www.w3.org/2000/svg" />
</g>
<g transform="translate(414, 234)">
<g xmlns="http://www.w3.org/2000/svg">
	<path style="fill:#757575;" d="M5,11H4v-1l0,0c-0.4,0.7-1.1,1-2,1c-0.6,0-1.1-0.2-1.5-0.5S0,9.8,0,9.3c0-1.1,0.7-1.8,2.1-2L4,7.1&#xD;&#xA;		c0-1-0.4-1.5-1.3-1.5c-0.8,0-1.5,0.2-2.1,0.7v-1c0.6-0.4,1.3-0.6,2.1-0.6C4.2,4.7,5,5.5,5,7V11z M4,7.8L2.5,8&#xD;&#xA;		C2,8.1,1.6,8.2,1.4,8.4S1,8.8,1,9.2c0,0.3,0.1,0.5,0.3,0.7s0.5,0.3,0.9,0.3c0.5,0,0.9-0.2,1.2-0.5S4,8.9,4,8.4V7.8z" />
</g>
<g xmlns="http://www.w3.org/2000/svg">
	<path style="fill:#757575;" d="M16,10.6c-0.4,0.3-0.9,0.4-1.5,0.4c-0.8,0-1.4-0.3-1.8-0.8C12.2,9.6,12,8.8,12,8&#xD;&#xA;		c0-0.9,0.3-1.6,0.8-2.1c0.5-0.6,1.2-0.9,2-0.9c0.5,0,0.9,0.1,1.2,0.3v0.9c-0.4-0.3-0.8-0.4-1.3-0.4c-0.5,0-1,0.2-1.3,0.6&#xD;&#xA;		c-0.3,0.4-0.5,1-0.5,1.7c0,0.7,0.2,1.2,0.5,1.6c0.3,0.4,0.8,0.6,1.3,0.6c0.5,0,0.9-0.2,1.3-0.5V10.6z" />
</g>
<g xmlns="http://www.w3.org/2000/svg">
	<polygon style="fill:#4CA579;" points="10,5 6,10 7,11 11,6 	" />
	<circle style="fill:#4CA579;" cx="7" cy="6" r="1" />
	<circle style="fill:#4CA579;" cx="10" cy="10" r="1" />
</g>
</g>
<g transform="translate(438, 62)">
<g xmlns="http://www.w3.org/2000/svg">
	<circle style="fill:#6EBF98;" cx="10.5" cy="4.5" r="3" />
	<path style="fill:#378068;" d="M10.5,2C11.9,2,13,3.1,13,4.5S11.9,7,10.5,7S8,5.9,8,4.5S9.1,2,10.5,2 M10.5,1C8.5,1,7,2.6,7,4.5&#xD;&#xA;		S8.5,8,10.5,8S14,6.4,14,4.5S12.4,1,10.5,1L10.5,1z" />
</g>
<g xmlns="http://www.w3.org/2000/svg">
	<path style="fill:#010101;" d="M8,15c1.7,0,3.3-0.5,4.5-1.5L14,15v-3.3V10h-1.3H9l2.1,2.1c-0.8,0.6-1.9,1.1-3.1,1.1&#xD;&#xA;		c-3.9,0-6.5-1.8-7-4.1C1.5,12.4,4.4,15,8,15z" />
</g>
</g>
<g transform="translate(486, 306)">
<g xmlns="http://www.w3.org/2000/svg">
	<circle style="fill:#6EBF98;" cx="4.5" cy="11.5" r="2" />
	<path style="fill:#378068;" d="M4.5,10C5.4,10,6,10.7,6,11.5S5.4,13,4.5,13S3,12.3,3,11.5S3.7,10,4.5,10 M4.5,9&#xD;&#xA;		C3.2,9,2,10.1,2,11.5S3.2,14,4.5,14S7,12.9,7,11.5S5.9,9,4.5,9L4.5,9z" />
</g>
<g xmlns="http://www.w3.org/2000/svg">
	<path style="fill:#010101;" d="M8,2C6.3,2,4.7,2.5,3.5,3.5L2,2v3.3V7h1.3H7L4.9,4.9C5.8,4.3,6.9,3.9,8,3.9c3.9,0,6.5,1.8,7,4.1&#xD;&#xA;		C14.5,4.6,11.6,2,8,2z" />
</g>
</g>
<g transform="translate(516, 68)">
<g xmlns="http://www.w3.org/2000/svg">
	<g>
		<circle style="fill:#EF5551;" cx="3" cy="8" r="1.5" />
		<path style="fill:#B72025;" d="M3,7c0.6,0,1,0.4,1,1S3.6,9,3,9S2,8.6,2,8S2.4,7,3,7 M3,6C1.9,6,1,6.9,1,8c0,1.1,0.9,2,2,2&#xD;&#xA;			s2-0.9,2-2C5,6.9,4.1,6,3,6L3,6z" />
	</g>
</g>
<g xmlns="http://www.w3.org/2000/svg">
	<g>
		<circle style="fill:#EF5551;" cx="8" cy="8" r="1.5" />
		<path style="fill:#B72025;" d="M8,7c0.6,0,1,0.4,1,1S8.6,9,8,9S7,8.6,7,8S7.4,7,8,7 M8,6C6.9,6,6,6.9,6,8c0,1.1,0.9,2,2,2&#xD;&#xA;			s2-0.9,2-2C10,6.9,9.1,6,8,6L8,6z" />
	</g>
</g>
<g xmlns="http://www.w3.org/2000/svg">
	<g>
		<circle style="fill:#EF5551;" cx="13" cy="8" r="1.5" />
		<path style="fill:#B72025;" d="M13,7c0.6,0,1,0.4,1,1s-0.4,1-1,1s-1-0.4-1-1S12.4,7,13,7 M13,6c-1.1,0-2,0.9-2,2c0,1.1,0.9,2,2,2&#xD;&#xA;			s2-0.9,2-2C15,6.9,14.1,6,13,6L13,6z" />
	</g>
</g>
</g>
<g transform="translate(396, 234)">
<rect x="1" y="9" style="fill:#212121;" width="14" height="1" xmlns="http://www.w3.org/2000/svg" />
<path style="fill:#EF5551;" d="M1,4v1c1.7,0,3,1.3,3,3c0,0,0,0,0,0h1c0,0,0,0,0,0C5,5.8,3.2,4,1,4z" xmlns="http://www.w3.org/2000/svg" />
<path style="fill:#EF5551;" d="M15,4v1c-2,0-3,1.3-3,3c0,0,0,0,0,0h-1c0,0,0,0,0,0C11,5.8,13,4,15,4z" xmlns="http://www.w3.org/2000/svg" />
<g xmlns="http://www.w3.org/2000/svg">
	<circle style="fill:#EF5551;" cx="4.5" cy="9.5" r="2" />
	<g>
		<path style="fill:#B72025;" d="M4.5,8C5.3,8,6,8.7,6,9.5S5.3,11,4.5,11S3,10.3,3,9.5S3.7,8,4.5,8 M4.5,7C3.1,7,2,8.1,2,9.5&#xD;&#xA;			S3.1,12,4.5,12S7,10.9,7,9.5S5.9,7,4.5,7L4.5,7z" />
	</g>
</g>
<g xmlns="http://www.w3.org/2000/svg">
	<circle style="fill:#EF5551;" cx="11.5" cy="9.5" r="2" />
	<g>
		<path style="fill:#B72025;" d="M11.5,8C12.3,8,13,8.7,13,9.5S12.3,11,11.5,11S10,10.3,10,9.5S10.7,8,11.5,8 M11.5,7&#xD;&#xA;			C10.1,7,9,8.1,9,9.5s1.1,2.5,2.5,2.5S14,10.9,14,9.5S12.9,7,11.5,7L11.5,7z" />
	</g>
</g>
</g>
<g transform="translate(468, 288)">
<path style="fill:#9E9E9E;" d="M8,2C4.7,2,2,4.7,2,8s2.7,6,6,6s6-2.7,6-6S11.3,2,8,2z M8,13c-2.8,0-5-2.2-5-5c0-2.8,2.2-5,5-5&#xD;&#xA;	c2.8,0,5,2.2,5,5C13,10.8,10.8,13,8,13z" xmlns="http://www.w3.org/2000/svg" />
<circle style="fill:#9E9E9E;" cx="8" cy="8" r="3.5" xmlns="http://www.w3.org/2000/svg" />
</g>
<g transform="translate(450, 288)">
<g xmlns="http://www.w3.org/2000/svg">
	<path style="fill:#757575;" d="M5,11H4v-1l0,0c-0.4,0.7-1.1,1-2,1c-0.6,0-1.1-0.2-1.5-0.5S0,9.8,0,9.3c0-1.1,0.7-1.8,2.1-2L4,7.1&#xD;&#xA;		c0-1-0.4-1.5-1.3-1.5c-0.8,0-1.5,0.2-2.1,0.7v-1C1.2,5,1.9,4.8,2.8,4.8C4.2,4.8,5,5.5,5,7V11z M4,7.9L2.5,8.1&#xD;&#xA;		C2,8.1,1.6,8.2,1.4,8.4S1,8.8,1,9.2C1,9.5,1.1,9.8,1.4,10s0.5,0.3,0.9,0.3c0.5,0,0.9-0.2,1.2-0.5S4,9,4,8.5V7.9z" />
</g>
<g xmlns="http://www.w3.org/2000/svg">
	<path style="fill:#757575;" d="M12,10L12,10v1h-1V2h1v4l0,0c0.4-0.8,0.9-1.2,1.8-1.2c0.7,0,1.2,0.3,1.6,0.8C15.8,6.1,16,6.8,16,7.7&#xD;&#xA;		c0,1-0.2,1.8-0.7,2.4c-0.4,0.6-1,0.9-1.8,0.9C12.8,11,12.4,10.7,12,10z M11.9,7.6v0.8c0,0.5,0.1,0.9,0.4,1.3&#xD;&#xA;		c0.3,0.3,0.7,0.5,1.1,0.5c0.5,0,0.9-0.2,1.2-0.7s0.4-1.1,0.4-1.9c0-0.7-0.1-1.2-0.4-1.6c-0.3-0.4-0.7-0.6-1.1-0.6&#xD;&#xA;		c-0.5,0-0.9,0.2-1.2,0.6S11.9,7,11.9,7.6z" />
</g>
<g xmlns="http://www.w3.org/2000/svg">
	<path style="fill:#EF5551;" d="M10,10.6C9.6,10.9,9.1,11,8.5,11c-0.8,0-1.4-0.3-1.8-0.8S6,8.8,6,8c0-0.9,0.3-1.6,0.8-2.1&#xD;&#xA;		S7.9,5,8.8,5C9.2,5,9.6,5.1,10,5.3v0.9C9.6,5.9,9.2,5.8,8.7,5.8c-0.5,0-1,0.2-1.3,0.6C7,6.8,6.9,7.4,6.9,8.1c0,0.7,0.2,1.2,0.5,1.6&#xD;&#xA;		c0.3,0.4,0.8,0.6,1.3,0.6c0.5,0,0.9-0.2,1.3-0.5V10.6z" />
</g>
</g>
<g transform="translate(488, 42)">
<g xmlns="http://www.w3.org/2000/svg">
	<g>
		<rect x="3" y="5" style="fill:#757575;" width="10" height="2" />
		<rect x="3" y="9" style="fill:#757575;" width="10" height="2" />
	</g>
	<polygon style="fill:#757575;" points="5,14 4,13 11,2 12,3 	" />
</g>
</g>
<g transform="translate(412, 378)">
<g xmlns="http://www.w3.org/2000/svg">
	<path style="fill:#757575;" d="M5,11H4v-1l0,0c-0.4,0.7-1.1,1-2,1c-0.6,0-1.1-0.2-1.5-0.5S0,9.8,0,9.3c0-1.1,0.7-1.8,2.1-2L4,7.1&#xD;&#xA;		c0-1-0.4-1.5-1.3-1.5c-0.8,0-1.5,0.2-2.1,0.7v-1c0.6-0.4,1.3-0.6,2.1-0.6C4.2,4.7,5,5.5,5,7V11z M4,7.8L2.5,8&#xD;&#xA;		C2,8.1,1.6,8.2,1.4,8.4S1,8.8,1,9.2c0,0.3,0.1,0.5,0.3,0.7s0.5,0.3,0.9,0.3c0.5,0,0.9-0.2,1.2-0.5S4,8.9,4,8.4V7.8z" />
</g>
<g xmlns="http://www.w3.org/2000/svg">
	<path style="fill:#757575;" d="M16,10.6c-0.4,0.3-0.9,0.4-1.5,0.4c-0.8,0-1.4-0.3-1.8-0.8C12.2,9.6,12,8.8,12,8&#xD;&#xA;		c0-0.9,0.3-1.6,0.8-2.1c0.5-0.6,1.2-0.9,2-0.9c0.5,0,0.9,0.1,1.2,0.3v0.9c-0.4-0.3-0.8-0.4-1.3-0.4c-0.5,0-1,0.2-1.3,0.6&#xD;&#xA;		c-0.3,0.4-0.5,1-0.5,1.7c0,0.7,0.2,1.2,0.5,1.6c0.3,0.4,0.8,0.6,1.3,0.6c0.5,0,0.9-0.2,1.3-0.5V10.6z" />
</g>
<g xmlns="http://www.w3.org/2000/svg">
	<polygon style="fill:#EF5551;" points="10,5 6,10 7,11 11,6 	" />
	<circle style="fill:#EF5551;" cx="7" cy="6" r="1" />
	<circle style="fill:#EF5551;" cx="10" cy="10" r="1" />
</g>
</g>
<g transform="translate(430, 378)">
<polygon style="fill:#757575;" points="13,2 4,2 3,2 8,8 3,14 4,14 13,14 13,12 6.5,12 10,8 6.5,4 13,4 " xmlns="http://www.w3.org/2000/svg" />
<rect x="12" y="3.5" style="fill:#757575;" width="1" height="1.5" xmlns="http://www.w3.org/2000/svg" />
<rect x="12" y="11" style="fill:#757575;" width="1" height="1.5" xmlns="http://www.w3.org/2000/svg" />
</g>
<g transform="translate(448, 378)">
<g xmlns="http://www.w3.org/2000/svg">
	<path style="fill:#757575;" d="M2,1v14h12V1H2z M12,13H4V3h8V13z" />
	<rect x="5" y="5" style="fill:#757575;" width="6" height="1" />
	<rect x="5" y="7" style="fill:#757575;" width="6" height="1" />
</g>
<rect x="5" y="9" style="fill:#757575;" width="6" height="1" xmlns="http://www.w3.org/2000/svg" />
</g>
<g transform="translate(396, 252)">
<g xmlns="http://www.w3.org/2000/svg">
	<path style="fill:#212121;" d="M2,1v14h12V1H2z M12,13H4V3h8V13z" />
	<rect x="5" y="5" style="fill:#212121;" width="6" height="1" />
	<rect x="5" y="7" style="fill:#212121;" width="6" height="1" />
</g>
<rect x="5" y="9" style="fill:#212121;" width="6" height="1" xmlns="http://www.w3.org/2000/svg" />
</g>
<g transform="translate(484, 378)">
<g xmlns="http://www.w3.org/2000/svg">
	<path style="fill:#757575;" d="M10,2l-8,8v4h3.9L14,6L10,2z M5,13l-2-2l6-6l2,2L5,13z" />
	<rect x="9" y="13" style="fill:#757575;" width="5" height="1" />
</g>
</g>
<g transform="translate(502, 378)">
<g xmlns="http://www.w3.org/2000/svg">
	<path style="fill:#212121;" d="M10,2l-8,8v4h3.9L14,6L10,2z M5,13l-2-2l6-6l2,2L5,13z" />
	<rect x="9" y="13" style="fill:#212121;" width="5" height="1" />
</g>
</g>
<g transform="translate(504, 324)">
<path style="fill:#bdbdbd;" d="M8,2C4.7,2,2,4.7,2,8s2.7,6,6,6s6-2.7,6-6S11.3,2,8,2z M11,10l-1,1L8,9l-2,2l-1-1l2-2L5,6l1-1l2,2&#xD;&#xA;	l2-2l1,1L9,8L11,10z" xmlns="http://www.w3.org/2000/svg" />
</g>
<g transform="translate(516, 32)">
<path style="fill:#EF5551;" d="M8,2C4.7,2,2,4.7,2,8s2.7,6,6,6s6-2.7,6-6S11.3,2,8,2z M11,10l-1,1L8,9l-2,2l-1-1l2-2L5,6l1-1l2,2&#xD;&#xA;	l2-2l1,1L9,8L11,10z" xmlns="http://www.w3.org/2000/svg" />
</g>
<g transform="translate(522, 252)">
<path fill="#FFFFFF" d="M1,2L0,3l4.5,5L9,3L8,2L4.5,5.8L1,2z" xmlns="http://www.w3.org/2000/svg" />
</g>
<g transform="translate(460, 227)">
<path fill="#FFFFFF" d="M1,2L0,3l4.5,5L9,3L8,2L4.5,5.8L1,2z" xmlns="http://www.w3.org/2000/svg" />
</g>
<g transform="translate(513, 241)">
<path fill="#FFFFFF" d="M8,7l1-1L4.5,1L0,6l1,1l3.5-3.8L8,7z" xmlns="http://www.w3.org/2000/svg" />
</g>
<g transform="translate(522, 263)">
<path fill="#FFFFFF" d="M8,7l1-1L4.5,1L0,6l1,1l3.5-3.8L8,7z" xmlns="http://www.w3.org/2000/svg" />
</g>
<g transform="translate(471, 227)">
<path fill="#FFFFFF" d="M6,1.1L4.8,0L0,4.5L4.8,9L6,7.9L2.4,4.5L6,1.1z" xmlns="http://www.w3.org/2000/svg" />
</g>
<g transform="translate(472, 31)">
<path fill="#FFFFFF" d="M6,1.1L4.8,0L0,4.5L4.8,9L6,7.9L2.4,4.5L6,1.1z" xmlns="http://www.w3.org/2000/svg" />
</g>
<g transform="translate(522, 325)">
<path fill="#FFFFFF" d="M2,8l1,1l5-4.5L3,0L2,1l3.8,3.5L2,8z" xmlns="http://www.w3.org/2000/svg" />
</g>
<g transform="translate(494, 31)">
<path fill="#FFFFFF" d="M2,8l1,1l5-4.5L3,0L2,1l3.8,3.5L2,8z" xmlns="http://www.w3.org/2000/svg" />
</g>
<g transform="translate(508, 168)">
<circle fill="#084298" cx="14" cy="14" r="14" xmlns="http://www.w3.org/2000/svg" />
<rect x="7" y="13" fill="#FFFFFF" width="14" height="2" xmlns="http://www.w3.org/2000/svg" />
</g>
<g transform="translate(486, 0)">
<circle fill="#084298" cx="14" cy="14" r="14" xmlns="http://www.w3.org/2000/svg" />
<rect x="7" y="13" fill="#FFFFFF" width="14" height="2" xmlns="http://www.w3.org/2000/svg" />
</g>
<g transform="translate(456, 0)">
<circle fill="#084298" cx="14" cy="14" r="14" xmlns="http://www.w3.org/2000/svg" />
<rect x="7" y="13" fill="#FFFFFF" width="14" height="2" xmlns="http://www.w3.org/2000/svg" />
<rect x="7" y="13" transform="matrix(4.482554e-011 -1 1 4.482554e-011 -6.293757e-010 28)" fill="#FFFFFF" width="14" height="2" xmlns="http://www.w3.org/2000/svg" />
</g>
<g transform="translate(426, 0)">
<circle fill="#084298" cx="14" cy="14" r="14" xmlns="http://www.w3.org/2000/svg" />
<rect x="7" y="13" fill="#FFFFFF" width="14" height="2" xmlns="http://www.w3.org/2000/svg" />
<rect x="7" y="13" transform="matrix(4.482554e-011 -1 1 4.482554e-011 -6.293757e-010 28)" fill="#FFFFFF" width="14" height="2" xmlns="http://www.w3.org/2000/svg" />
</g>
<g transform="translate(396, 0)">
<circle fill="#bdbdbd" cx="14" cy="14" r="14" xmlns="http://www.w3.org/2000/svg" />
<rect x="7" y="13" fill="#ededed" width="14" height="2" xmlns="http://www.w3.org/2000/svg" />
</g>
<g transform="translate(448, 168)">
<circle fill="#bdbdbd" cx="14" cy="14" r="14" xmlns="http://www.w3.org/2000/svg" />
<rect x="7" y="13" fill="#ededed" width="14" height="2" xmlns="http://www.w3.org/2000/svg" />
<rect x="7" y="13" transform="matrix(4.482554e-011 -1 1 4.482554e-011 -6.293757e-010 28)" fill="#ededed" width="14" height="2" xmlns="http://www.w3.org/2000/svg" />
</g>
<g transform="translate(442, 100)">
<path fill="#FFFFFF" d="M10,5c-2.8,0-5,2.2-5,5s2.2,5,5,5s5-2.2,5-5S12.8,5,10,5z M10,0C4.5,0,0,4.5,0,10s4.5,10,10,10s10-4.5,10-10&#xD;&#xA;	S15.5,0,10,0z M10,18c-4.4,0-8-3.6-8-8s3.6-8,8-8s8,3.6,8,8S14.4,18,10,18z" xmlns="http://www.w3.org/2000/svg" />
</g>

</svg>

