<svg width="51" height="21" viewBox="0 0 51 21" fill="none" xmlns="http://www.w3.org/2000/svg">
<path d="M8.45674 0.293945L8.21757 0.890674C6.88946 4.21337 0.608637 19.43 0.546412 19.583L0 20.9063H3.65376L3.89489 20.3192C3.89489 20.3192 4.41991 19.0444 5.05771 17.4596H14.0103C14.5023 18.7286 14.9456 19.7806 15.1984 20.3464L15.4493 20.9063H19.0797L10.5899 0.293945H8.4548H8.45674ZM6.46749 13.9993L9.52429 6.55185C10.0396 7.82474 10.8213 9.73892 11.9705 12.5501L12.5616 13.9974H6.46749V13.9993Z" fill="white"/>
<path d="M41.982 0.293945H39.8488L39.6096 0.890674C38.2815 4.21337 32.0007 19.43 31.9366 19.583L31.3901 20.9063H35.0439L35.285 20.3192C35.285 20.3192 35.81 19.0444 36.4479 17.4596H45.4004C45.8924 18.7286 46.3358 19.7806 46.5886 20.3464L46.8394 20.9063H50.4698L41.982 0.293945ZM37.8596 13.9993L40.9164 6.55185C41.4317 7.82474 42.2114 9.73505 43.3587 12.5443L43.9537 13.9993H37.8596Z" fill="white"/>
<path d="M24.4054 3.68854C24.7457 3.56261 25.1132 3.49093 25.5002 3.49093C26.243 3.49093 26.9799 3.79704 27.5789 4.33177C27.0752 3.75829 26.3558 3.14219 25.3913 2.76245C23.8356 2.15022 22.0233 2.28391 20.001 3.15187C19.4507 4.08765 19.1318 5.17068 19.1318 6.3312C19.1318 7.49172 19.4799 8.63481 20.0963 9.58608C20.2733 8.80142 21.3933 4.44802 24.4054 3.69048V3.68854Z" fill="white"/>
<path d="M26.4963 17.0206C25.9751 17.4216 25.314 17.6638 24.6043 17.6638C23.6262 17.6638 22.6131 17.1097 21.9578 16.2146L21.4055 15.459L18.8096 17.3654C19.2101 17.4855 24.4662 18.9967 26.4963 17.0186V17.0206Z" fill="white"/>
<path d="M31.1414 3.24326L30.8964 2.90227C29.5955 1.08496 27.5791 0 25.5004 0C25.1134 0 24.7362 0.0406861 24.3667 0.106559C26.4629 -0.0329363 28.738 1.02296 31.1414 3.24326Z" fill="white"/>
<path d="M20.0483 2.89846C20.097 2.87909 20.1417 2.86553 20.1903 2.84615C20.5384 2.32305 20.9603 1.85419 21.4445 1.45508C20.7581 1.98206 20.2875 2.56135 20.0483 2.89846Z" fill="#00B6F5"/>
<path d="M20.1899 2.84648C21.3003 2.40087 22.3523 2.17032 23.3342 2.17032C24.0887 2.17032 24.8024 2.30206 25.4713 2.56749C27.4547 3.35215 28.4347 5.09196 28.6661 5.55695L31.2932 3.67183C28.6681 1.15123 26.2082 0.03333 23.9779 0.358818C22.9395 0.508001 22.0936 0.957485 21.4442 1.4554C20.96 1.85452 20.538 2.32337 20.1899 2.84648Z" fill="#00B6F5"/>
<path d="M25.5122 13.7405C25.168 14.0059 25.903 14.684 25.903 14.684C25.905 14.6879 25.9069 14.6899 25.9088 14.6918C26.5972 15.7012 26.5953 16.4394 26.4864 16.8675C26.5019 16.854 26.5175 16.8404 26.535 16.8268C27.0347 16.389 27.3595 15.8717 27.4761 15.3273C27.2856 13.9246 25.8544 13.4751 25.5122 13.7386V13.7405Z" fill="#00B6F5"/>
<path d="M24.8958 13.7694C24.8958 13.7694 24.0636 13.1765 24.4428 13.0235C24.82 12.8704 25.3508 13.5408 24.8958 13.7694Z" fill="#00B6F5"/>
<path d="M22.7212 16.7584C22.7212 16.7584 24.3118 18.2871 26.2797 16.956C26.2797 16.956 26.7036 15.9408 25.7138 14.7648C25.7138 14.7648 25.4105 14.3851 25.1052 14.5188C25.1052 14.5188 24.6949 14.7822 25.3094 15.5223C25.9238 16.2624 25.988 17.3203 22.7212 16.7584Z" fill="#00B6F5"/>
<path d="M29.3547 10.7466C28.1413 9.50468 26.8016 9.24894 25.6465 9.03001C25.0573 8.9002 24.4934 8.77815 24.0228 8.56697L23.8206 8.45266C23.0992 8.04773 22.6442 7.42582 22.5256 6.70703C22.4711 7.72806 22.7861 8.9622 23.4648 10.3978C24.0734 9.59574 24.5926 9.02226 24.6023 9.01064C24.6023 9.01064 26.7063 11.3356 27.4355 13.1955C28.9561 13.8445 29.8506 15.2957 29.7436 17.0258C29.6795 18.072 29.1953 19.188 28.2677 20.0036C29.9031 18.8605 30.9745 16.9812 30.9745 14.8539C30.9745 13.2633 30.4339 11.8858 29.3547 10.7466Z" fill="white"/>
<path d="M23.3206 10.5862C22.2705 8.40073 22.0372 6.65316 22.6264 5.3764C22.7041 5.2059 22.7975 5.05672 22.8947 4.91529C22.9939 4.75448 23.1086 4.60336 23.2389 4.46387C21.1563 5.92469 20.3746 9.2842 20.2832 9.70656C20.9891 10.7082 21.8388 11.303 22.5797 11.6575C22.8189 11.2817 23.0736 10.9194 23.3206 10.5862Z" fill="#00B6F5"/>
<path d="M27.5325 13.4658C27.5733 13.5937 27.6064 13.7177 27.6317 13.8378C27.6608 13.9812 27.6783 14.1207 27.6881 14.2563C27.7289 14.4152 27.7581 14.5857 27.7639 14.7697C27.7931 15.5524 27.4411 16.3352 26.7216 17.0966C24.8238 19.1037 20.1472 17.9626 18.9824 17.6371C19.5366 18.5051 21.7864 21.5391 25.7572 20.9172C28.39 20.5026 29.4381 18.5535 29.5334 17.0094C29.6306 15.442 28.8606 14.1149 27.5325 13.4658Z" fill="#00B6F5"/>
</svg>
