<svg width="1424" height="285" viewBox="0 0 1424 285" fill="none" xmlns="http://www.w3.org/2000/svg">
<path d="M557.85 285H1415.95C1420.14 285 1423.52 281.621 1423.52 277.436V7.56365C1423.55 3.37869 1420.14 0 1415.95 0H456.585C451.288 0 447.641 5.2984 449.484 10.2512L550.787 280.086C551.9 283.042 554.703 285 557.889 285H557.85Z" fill="white"/>
<path d="M73.3329 33.4023L71.2596 38.624C59.7413 67.65 5.26 200.532 4.72248 201.838L0 213.394H31.6752L33.7485 208.249C33.7485 208.249 38.3174 197.115 43.8462 183.293H121.479C125.741 194.389 129.58 203.565 131.769 208.518L133.957 213.394H165.441L91.8389 33.4023H73.3329ZM56.0939 153.077L82.6243 88.0373C87.078 99.1716 93.8738 115.873 103.856 140.407L109.001 153.039H56.1323L56.0939 153.077Z" fill="#2F3745"/>
<path d="M364.13 33.4023H345.624L343.551 38.624C332.033 67.65 277.552 200.532 277.014 201.838L272.292 213.394H303.967L306.04 208.249C306.04 208.249 310.609 197.115 316.138 183.293H393.771C398.033 194.389 401.872 203.565 404.06 208.518L406.249 213.394H437.732L364.13 33.4023ZM328.386 153.077L354.916 88.0373C359.37 99.1716 366.165 115.835 376.109 140.369L381.254 153.077H328.386Z" fill="#2F3745"/>
<path d="M211.667 63.0424C214.623 61.929 217.81 61.3147 221.15 61.3147C227.601 61.3147 233.974 64.0023 239.196 68.6479C234.819 63.6567 228.599 58.2431 220.229 54.9412C206.753 49.6044 191.011 50.7563 173.465 58.3583C168.704 66.5363 165.94 75.9812 165.94 86.1173C165.94 96.2534 168.973 106.236 174.309 114.529C175.845 107.695 185.559 69.6462 211.667 63.0424Z" fill="#2F3745"/>
<path d="M229.828 179.453C225.297 182.947 219.576 185.059 213.433 185.059C204.948 185.059 196.156 180.221 190.474 172.389L185.674 165.785L163.175 182.448C166.669 183.485 212.243 196.692 229.828 179.415V179.453Z" fill="#2F3745"/>
<path d="M270.103 59.165L267.992 56.1702C256.704 40.3134 239.234 30.8301 221.189 30.8301C217.849 30.8301 214.547 31.1756 211.36 31.7515C229.559 30.5229 249.294 39.7375 270.103 59.1266V59.165Z" fill="#2F3745"/>
<path d="M173.887 56.1314C174.31 55.9778 174.694 55.8626 175.116 55.6706C178.149 51.1017 181.797 46.9936 185.982 43.5381C180.03 48.1454 175.961 53.2134 173.887 56.1314Z" fill="#00B6F5"/>
<path d="M175.116 55.7093C184.753 51.8315 193.852 49.7966 202.376 49.7966C208.903 49.7966 215.123 50.9485 220.92 53.2521C238.121 60.0863 246.606 75.2904 248.641 79.3602L271.408 62.8891C248.641 40.8892 227.293 31.0987 207.943 33.9398C198.92 35.2453 191.587 39.1615 185.981 43.5C181.796 46.9939 178.111 51.0637 175.116 55.6326V55.7093Z" fill="#00B6F5"/>
<path d="M221.266 150.812C218.271 153.116 224.644 159.067 224.644 159.067C224.644 159.067 224.644 159.105 224.683 159.144C230.672 167.975 230.634 174.386 229.674 178.149C229.827 178.034 229.943 177.919 230.096 177.803C234.435 173.964 237.238 169.472 238.274 164.711C236.623 152.463 224.222 148.547 221.227 150.851L221.266 150.812Z" fill="#00B6F5"/>
<path d="M215.929 151.08C215.929 151.08 208.711 145.897 212.013 144.553C215.276 143.209 219.883 149.084 215.929 151.08Z" fill="#00B6F5"/>
<path d="M197.077 177.188C197.077 177.188 210.861 190.549 227.946 178.916C227.946 178.916 231.632 170.047 223.032 159.795C223.032 159.795 220.382 156.493 217.733 157.645C217.733 157.645 214.162 159.949 219.499 166.399C224.836 172.849 225.374 182.102 197.039 177.188H197.077Z" fill="#00B6F5"/>
<path d="M254.592 124.704C244.072 113.877 232.438 111.611 222.417 109.73C217.311 108.578 212.435 107.542 208.327 105.699L206.56 104.701C200.302 101.168 196.348 95.7163 195.311 89.458C194.85 98.3655 197.576 109.154 203.451 121.671C208.711 114.683 213.241 109.653 213.318 109.538C213.318 109.538 231.555 129.849 237.89 146.089C251.098 151.772 258.853 164.442 257.893 179.531C257.318 188.669 253.133 198.421 245.108 205.524C259.276 195.541 268.567 179.147 268.567 160.564C268.567 146.665 263.883 134.648 254.515 124.704H254.592Z" fill="#2F3745"/>
<path d="M202.26 123.283C193.161 104.201 191.126 88.9201 196.232 77.7858C196.923 76.2884 197.73 74.983 198.574 73.7544C199.419 72.3338 200.417 71.0284 201.569 69.7998C183.524 82.5467 176.728 111.88 175.922 115.566C182.027 124.32 189.398 129.503 195.848 132.613C197.922 129.349 200.149 126.162 202.26 123.244V123.283Z" fill="#00B6F5"/>
<path d="M238.812 148.431C239.157 149.544 239.465 150.619 239.657 151.694C239.925 152.961 240.079 154.151 240.156 155.342C240.501 156.724 240.77 158.221 240.808 159.834C241.077 166.668 238.006 173.502 231.786 180.144C215.315 197.69 174.77 187.708 164.673 184.867C169.472 192.43 188.976 218.922 223.416 213.509C246.26 209.9 255.36 192.853 256.166 179.376C257.011 165.708 250.33 154.113 238.812 148.431Z" fill="#00B6F5"/>
<path d="M9.79052 249.484H3.68584L2.03489 253.9H0L5.75913 238.657H7.71723L13.4764 253.9H11.4415L9.79052 249.484ZM6.75738 241.422L4.41533 247.603H9.06103L6.75738 241.422Z" fill="#2F3745"/>
<path d="M27.7975 238.657V248.333C27.7975 251.558 25.2251 254.13 22.0767 254.13C18.9284 254.13 16.3944 251.558 16.3944 248.333V238.657H18.2757V248.333C18.2757 250.483 20.0035 252.287 22.1151 252.287C24.2268 252.287 25.9546 250.521 25.9546 248.333V238.657H27.8359H27.7975Z" fill="#2F3745"/>
<path d="M35.8604 240.539H31.9058V238.657H41.6963V240.539H37.7417V253.9H35.8604V240.539Z" fill="#2F3745"/>
<path d="M60.3173 246.182C60.3173 250.598 56.7851 254.13 52.4849 254.13C48.1848 254.13 44.6909 250.559 44.6909 246.182C44.6909 241.805 48.1848 238.196 52.4849 238.196C56.7851 238.196 60.3173 241.767 60.3173 246.182ZM58.3976 246.182C58.3976 242.842 55.7484 240.078 52.4849 240.078C49.2214 240.078 46.5722 242.842 46.5722 246.182C46.5722 249.523 49.2214 252.249 52.4849 252.249C55.7484 252.249 58.3976 249.523 58.3976 246.182Z" fill="#2F3745"/>
<path d="M76.3278 253.939H74.1778L68.457 245.914H66.307V253.939H64.5024V238.696H69.6857C70.6455 238.696 71.4902 239.08 72.1813 239.771C72.8724 240.462 73.2179 241.345 73.2179 242.344C73.2179 244.033 72.0661 245.454 70.5303 245.876L76.2895 254.016L76.3278 253.939ZM66.307 244.071H69.6857C70.6455 244.071 71.4134 243.265 71.4134 242.305C71.4134 241.345 70.6455 240.539 69.6857 240.539H66.307V244.11V244.071Z" fill="#2F3745"/>
<path d="M80.5509 238.657H82.4322V253.9H80.5509V238.657Z" fill="#2F3745"/>
<path d="M88.1913 238.657H93.029C97.2907 238.657 100.708 242.074 100.708 246.298C100.708 250.521 97.2523 253.938 93.029 253.938H88.1913V238.696V238.657ZM98.8649 246.298C98.8649 243.149 96.2541 240.539 93.029 240.539H90.0726V252.057H93.029C96.2541 252.057 98.8649 249.446 98.8649 246.298Z" fill="#2F3745"/>
<path d="M112.303 249.484H106.198L104.547 253.9H102.512L108.271 238.657H110.229L115.989 253.9H113.954L112.303 249.484ZM109.231 241.422L106.889 247.603H111.535L109.231 241.422Z" fill="#2F3745"/>
<path d="M119.867 238.657H124.704C128.928 238.657 132.383 242.074 132.383 246.298C132.383 250.521 128.928 253.938 124.704 253.938H119.867V238.696V238.657ZM130.54 246.298C130.54 243.149 127.929 240.539 124.704 240.539H121.748V252.057H124.704C127.891 252.057 130.54 249.446 130.54 246.298Z" fill="#2F3745"/>
<path d="M147.241 253.9C145.706 253.593 144.17 252.787 142.788 251.597L144.016 250.176C145.13 251.174 146.358 251.827 147.625 252.096C148.662 252.326 149.699 252.249 150.543 251.865C151.081 251.597 152.041 250.982 152.041 249.677C152.041 248.064 150.351 247.488 148.7 247.181C148.547 247.181 146.205 246.682 145.245 246.106C143.978 245.338 143.287 244.187 143.287 242.766C143.287 241.96 143.556 241.23 143.978 240.578C144.4 240.002 145.015 239.464 145.744 239.157C146.781 238.658 148.048 238.504 149.276 238.696C150.659 238.927 152.041 239.579 153.231 240.616L152.041 242.075C149.891 240.232 147.779 240.232 146.512 240.808C145.667 241.23 145.13 241.96 145.13 242.728C145.13 244.187 146.358 244.724 148.278 245.146C149.084 245.338 150.735 245.607 151.734 246.183C153.116 246.951 153.807 248.18 153.807 249.639C153.807 250.522 153.576 251.328 153.116 252.057C152.693 252.71 152.002 253.209 151.234 253.593C150.428 254.015 149.622 254.131 148.7 254.131C148.201 254.131 147.702 254.054 147.165 253.977L147.241 253.9Z" fill="#2F3745"/>
<path d="M166.823 249.484H160.718L159.067 253.9H157.032L162.791 238.657H164.75L170.509 253.9H168.474L166.823 249.484ZM163.79 241.422L161.448 247.603H166.093L163.79 241.422Z" fill="#2F3745"/>
<path d="M174.617 238.657H176.498V252.057H184.676V253.9H174.578V238.657H174.617Z" fill="#2F3745"/>
<path d="M188.324 238.657L193.046 251.135L197.768 238.657H199.803L194.044 253.9H192.086L186.327 238.657H188.362H188.324Z" fill="#2F3745"/>
<path d="M209.863 249.484H203.758L202.107 253.9H200.072L205.831 238.657H207.789L213.548 253.9H211.513L209.863 249.484ZM206.829 241.422L204.487 247.603H209.133L206.829 241.422Z" fill="#2F3745"/>
<path d="M217.465 238.657H222.302C226.564 238.657 229.981 242.074 229.981 246.298C229.981 250.521 226.526 253.938 222.302 253.938H217.465V238.696V238.657ZM228.1 246.298C228.1 243.149 225.489 240.539 222.264 240.539H219.308V252.057H222.264C225.489 252.057 228.1 249.446 228.1 246.298Z" fill="#2F3745"/>
<path d="M249.332 246.182C249.332 250.598 245.799 254.13 241.499 254.13C237.199 254.13 233.705 250.559 233.705 246.182C233.705 241.805 237.199 238.196 241.499 238.196C245.799 238.196 249.332 241.767 249.332 246.182ZM247.45 246.182C247.45 242.842 244.801 240.078 241.538 240.078C238.274 240.078 235.625 242.842 235.625 246.182C235.625 249.523 238.274 252.249 241.538 252.249C244.801 252.249 247.45 249.523 247.45 246.182Z" fill="#2F3745"/>
<path d="M265.381 253.939H263.231L257.51 245.914H255.36V253.939H253.555V238.696H258.739C259.698 238.696 260.543 239.08 261.234 239.771C261.925 240.462 262.271 241.345 262.271 242.344C262.271 244.033 261.119 245.454 259.583 245.876L265.342 254.016L265.381 253.939ZM255.36 244.071H258.739C259.698 244.071 260.466 243.265 260.466 242.305C260.466 241.345 259.698 240.539 258.739 240.539H255.36V244.11V244.071Z" fill="#2F3745"/>
<path d="M268.529 238.657H277.974V240.5H270.41V244.071H277.014V245.991H270.41V252.018H277.782V253.9H268.529V238.657Z" fill="#2F3745"/>
<path d="M284.693 241.844V253.899H282.812V238.657H284.885L292.871 250.713V238.657H294.752V253.899H292.717L284.731 241.844H284.693ZM288.916 236.392C288.916 236.392 288.648 236.2 288.456 236.161C288.187 236.123 287.88 236.43 287.764 236.622L287.073 236.161C287.304 235.777 287.688 235.278 288.456 235.278C288.763 235.278 289.07 235.432 289.3 235.624C289.3 235.624 289.646 235.854 289.799 235.854C290.068 235.893 290.375 235.585 290.49 235.394L291.22 235.854C290.951 236.238 290.529 236.699 289.838 236.699C289.569 236.699 289.223 236.545 288.916 236.315V236.392Z" fill="#2F3745"/>
<path d="M308.19 249.484H302.085L300.434 253.9H298.399L304.159 238.657H306.117L311.876 253.9H309.841L308.19 249.484ZM305.157 241.422L302.815 247.603H307.46L305.157 241.422Z" fill="#2F3745"/>
<path d="M322.742 238.657H327.579C331.841 238.657 335.258 242.074 335.258 246.298C335.258 250.521 331.803 253.938 327.579 253.938H322.742V238.696V238.657ZM333.377 246.298C333.377 243.149 330.766 240.539 327.541 240.539H324.585V252.057H327.541C330.766 252.057 333.377 249.446 333.377 246.298Z" fill="#2F3745"/>
<path d="M339.596 238.657H349.041V240.5H341.478V244.071H348.081V245.991H341.478V252.018H348.849V253.9H339.596V238.657Z" fill="#2F3745"/>
<path d="M353.533 238.657H355.415V252.057H363.593V253.9H353.495V238.657H353.533Z" fill="#2F3745"/>
<path d="M383.405 249.484H377.3L375.649 253.9H373.614L379.373 238.657H381.331L387.09 253.9H385.055L383.405 249.484ZM380.371 241.422L378.029 247.603H382.675L380.371 241.422Z" fill="#2F3745"/>
<path d="M403.83 244.109V250.866C402.333 252.901 399.991 254.168 397.495 254.168C393.195 254.168 389.701 250.598 389.701 246.182C389.701 241.767 393.195 238.196 397.495 238.196C399.607 238.196 401.603 239.041 403.062 240.538L401.68 241.767C400.566 240.654 399.108 240.039 397.533 240.039C394.231 240.039 391.544 242.765 391.544 246.144C391.544 249.523 394.193 252.249 397.533 252.249C399.261 252.249 400.874 251.519 402.025 250.175V245.952H397.649V244.071H403.868L403.83 244.109Z" fill="#2F3745"/>
<path d="M420.07 238.657V248.333C420.07 251.558 417.498 254.13 414.35 254.13C411.201 254.13 408.667 251.558 408.667 248.333V238.657H410.549V248.333C410.549 250.483 412.276 252.287 414.388 252.287C416.5 252.287 418.228 250.521 418.228 248.333V238.657H420.109H420.07Z" fill="#2F3745"/>
<path d="M433.163 249.484H427.059L425.408 253.9H423.373L429.132 238.657H431.09L436.849 253.9H434.814L433.163 249.484ZM430.092 241.422L427.75 247.603H432.395L430.092 241.422Z" fill="#2F3745"/>
<path d="M715.285 174.294L747 206.077L718.458 234.685C716.709 236.438 713.866 236.438 712.117 234.685L623.312 145.681C621.563 143.927 621.563 141.078 623.312 139.325L651.854 110.717L683.564 78.9285L712.111 50.3149C713.861 48.5617 716.703 48.5617 718.452 50.3149L746.994 78.9229L683.564 142.5L715.279 174.289L715.285 174.294Z" fill="#084298"/>
<path d="M777.869 110.841L746.326 142.385L777.869 173.928L809.413 142.385L777.869 110.841Z" fill="#084298"/>
<path d="M809.262 79.2849L790.323 60.2562C783.348 53.2479 772.043 53.2479 765.073 60.2562L746.134 79.2849L809.268 142.718L777.701 174.434L714.567 111.001L683 142.718L714.567 174.434L746.134 206.145L774.543 234.688C776.284 236.437 779.113 236.437 780.854 234.688L809.262 206.145L840.83 174.434L859.769 155.405C866.744 148.397 866.744 137.038 859.769 130.036L809.262 79.2905V79.2849Z" fill="#6EA8FE"/>
<path d="M746.324 79.2966L714.781 110.84L746.324 142.383L777.867 110.84L746.324 79.2966Z" fill="#0D6EFD"/>
<path d="M933.566 112.438H916.91L913.698 123.64H900.248L918.399 70.2324H932.144L950.294 123.64H936.85L933.566 112.438ZM925.196 82.4051C925.196 82.4051 924.003 88.2321 923.032 91.5945L919.971 101.977H930.504L927.516 91.5945C926.545 88.2321 925.352 82.4051 925.352 82.4051H925.201H925.196Z" fill="#2F3745"/>
<path d="M954.777 85.1702H966.431V87.1107C966.431 88.3821 966.281 89.5753 966.281 89.5753H966.431C966.431 89.5753 969.944 84.2725 978.085 84.2725C988.541 84.2725 995.416 92.4917 995.416 104.441C995.416 116.391 987.721 124.532 977.489 124.532C971.216 124.532 967.703 120.874 967.703 120.874H967.552C967.552 120.874 967.703 122.218 967.703 124.158V138.573H954.783V85.1702H954.777ZM974.868 113.854C978.9 113.854 982.412 110.569 982.412 104.664C982.412 98.7592 979.351 95.1794 974.868 95.1794C970.981 95.1794 967.323 98.0176 967.323 104.664C967.323 109.298 969.788 113.854 974.868 113.854Z" fill="#2F3745"/>
<path d="M1002.35 85.1708H1014.75V91.667C1014.75 92.9383 1014.6 94.0591 1014.6 94.0591H1014.75C1016.4 88.8287 1021.25 84.4961 1027 84.4961C1027.75 84.4961 1028.5 84.6466 1028.5 84.6466V97.3435C1028.5 97.3435 1027.45 97.1204 1025.88 97.1204C1022.82 97.1204 1017.82 98.0907 1015.95 103.845C1015.5 105.267 1015.27 106.985 1015.27 109.076V123.64H1002.35V85.1708Z" fill="#2F3745"/>
<path d="M1053.37 84.2725C1065.55 84.2725 1075.25 92.4136 1075.25 104.514C1075.25 116.614 1065.55 124.532 1053.44 124.532C1041.34 124.532 1031.63 116.541 1031.63 104.514C1031.63 92.4861 1041.34 84.2725 1053.36 84.2725H1053.37ZM1053.45 113.781C1058.15 113.781 1062.18 110.268 1062.18 104.519C1062.18 98.7704 1058.15 95.0344 1053.45 95.0344C1048.74 95.0344 1044.71 98.6923 1044.71 104.519C1044.71 110.346 1048.74 113.781 1053.45 113.781Z" fill="#2F3745"/>
<path d="M1081.98 70.2324H1094.9V85.0984C1094.9 87.0388 1094.75 88.3827 1094.75 88.3827H1094.9C1094.9 88.3827 1098.49 84.2731 1105.28 84.2731C1115.74 84.2731 1122.61 92.4923 1122.61 104.442C1122.61 116.392 1114.92 124.533 1104.69 124.533C1097.59 124.533 1094.15 120.2 1094.15 120.2H1094C1094 120.2 1094.07 121.17 1094.07 122.364V123.635H1081.97V70.2324H1081.98ZM1102.07 113.854C1106.1 113.854 1109.61 110.57 1109.61 104.665C1109.61 98.7598 1106.55 95.18 1102.07 95.18C1098.18 95.18 1094.53 98.0182 1094.53 104.665C1094.53 109.299 1096.99 113.854 1102.07 113.854Z" fill="#2F3745"/>
<path d="M1148.98 99.6632H1149.5V98.9885C1149.5 95.7767 1147.04 94.7284 1143.82 94.7284C1138.97 94.7284 1133.44 98.3863 1133.44 98.3863L1128.96 89.2749C1128.96 89.2749 1135.61 84.2676 1145.09 84.2676C1155.92 84.2676 1162.42 90.1671 1162.42 99.9532V123.629H1150.62V121.315C1150.62 120.044 1150.77 118.923 1150.77 118.923H1150.62C1150.62 118.923 1147.78 124.527 1139.71 124.527C1132.54 124.527 1126.64 119.748 1126.64 112.126C1126.64 100.923 1143 99.6521 1148.97 99.6521L1148.98 99.6632ZM1143.3 114.674C1146.66 114.674 1149.65 111.016 1149.65 107.877V107.057H1148.46C1144.35 107.057 1139.64 108.25 1139.64 111.462C1139.64 113.252 1140.76 114.674 1143.3 114.674Z" fill="#2F3745"/>
<path d="M1189.98 84.2725C1200.44 84.2725 1205.3 90.0995 1205.3 90.0995L1199.84 98.7648C1199.84 98.7648 1196.11 95.0288 1190.8 95.0288C1184.68 95.0288 1181.61 99.6625 1181.61 104.218C1181.61 108.774 1184.75 113.781 1191.25 113.781C1196.62 113.781 1201.78 109.153 1201.78 109.153L1206.49 118.192C1206.49 118.192 1200.74 124.543 1189.98 124.543C1176.24 124.543 1168.54 114.98 1168.54 104.374C1168.54 93.7686 1176.16 84.278 1189.98 84.278V84.2725Z" fill="#2F3745"/>
<path d="M1212.54 85.1708H1225.46V123.64H1212.54V85.1708ZM1212.69 70.2324H1225.31V80.314H1212.69V70.2324Z" fill="#2F3745"/>
<path d="M1253.92 84.2731C1266.1 84.2731 1275.81 92.4142 1275.81 104.514C1275.81 116.615 1266.1 124.533 1253.99 124.533C1241.89 124.533 1232.18 116.542 1232.18 104.514C1232.18 92.4867 1241.89 84.2731 1253.91 84.2731H1253.92ZM1254 113.782C1258.7 113.782 1262.74 110.269 1262.74 104.52C1262.74 98.771 1258.7 95.035 1254 95.035C1249.29 95.035 1245.26 98.6929 1245.26 104.52C1245.26 110.347 1249.29 113.782 1254 113.782ZM1254.67 70.2324H1267.44L1258.63 81.4348H1248.62L1254.67 70.2324Z" fill="#2F3745"/>
<path d="M1282.53 85.1715H1294.93V88.5339C1294.93 89.8052 1294.78 90.926 1294.78 90.926H1294.93C1296.72 87.9372 1300.39 84.2793 1307.18 84.2793C1314.95 84.2793 1321 87.8647 1321 98.6936V123.641H1308.08V101.08C1308.08 97.4947 1306.66 96.0003 1303.82 96.0003C1299.79 96.0003 1297.32 98.2419 1296.2 101.526C1295.68 103.021 1295.46 104.738 1295.46 106.606V123.636H1282.54V85.1715H1282.53Z" fill="#2F3745"/>
<path d="M906.823 145.449H925.798C942.604 145.449 953.361 155.235 953.361 172.042C953.361 188.848 942.604 198.857 925.798 198.857H906.823V145.449ZM925.274 187.655C934.313 187.655 939.839 182.279 939.839 172.042C939.839 161.804 934.09 156.657 925.274 156.657H919.899V187.655H925.274Z" fill="#0D6EFD"/>
<path d="M961.05 160.388H973.97V198.857H961.05V160.388ZM961.195 145.449H973.82V155.531H961.195V145.449Z" fill="#0D6EFD"/>
<path d="M999.141 203.786C1003.77 203.786 1008.03 202.069 1008.03 196.392V195.121C1008.03 194.675 1008.1 193.705 1008.1 193.705H1007.95C1005.71 196.392 1002.8 197.736 998.316 197.736C986.74 197.736 980.985 188.251 980.985 178.393C980.985 168.534 986.589 159.495 998.238 159.495C1005.26 159.495 1008.69 163.231 1008.69 163.231H1008.92C1008.92 163.231 1008.84 162.785 1008.84 162.333V160.393H1020.94V195.35C1020.94 209.39 1009.74 214.548 999.208 214.548C994.055 214.548 988.379 213.054 984.643 211.113L988.301 201.327C988.301 201.327 993.08 203.792 999.13 203.792L999.141 203.786ZM1008.33 178.543C1008.33 171.746 1004.74 170.251 1000.86 170.251C996.303 170.251 993.988 173.536 993.988 177.946C993.988 182.725 996.23 186.985 1001.38 186.985C1004.74 186.985 1008.33 185.268 1008.33 178.543Z" fill="#0D6EFD"/>
<path d="M1030.51 160.388H1043.43V198.857H1030.51V160.388ZM1030.66 145.449H1043.29V155.531H1030.66V145.449Z" fill="#0D6EFD"/>
<path d="M1054.94 171.144H1050.01V161.062H1055.31V150.005H1067.86V161.062H1075.93V171.144H1067.86V182.949C1067.86 187.281 1072.27 187.878 1074.73 187.878C1075.78 187.878 1076.45 187.805 1076.45 187.805V199.008C1076.45 199.008 1075.03 199.231 1072.94 199.231C1066.81 199.231 1054.94 197.586 1054.94 184.666V171.144H1054.94Z" fill="#0D6EFD"/>
<path d="M1103.41 174.879H1103.94V174.204C1103.94 170.993 1101.47 169.944 1098.26 169.944C1093.41 169.944 1087.88 173.602 1087.88 173.602L1083.4 164.491C1083.4 164.491 1090.04 159.483 1099.53 159.483C1110.36 159.483 1116.86 165.383 1116.86 175.169V198.845H1105.05V196.531C1105.05 195.26 1105.2 194.139 1105.2 194.139H1105.05C1105.05 194.139 1102.22 199.743 1094.15 199.743C1086.98 199.743 1081.08 194.964 1081.08 187.342C1081.08 176.139 1097.44 174.868 1103.41 174.868L1103.41 174.879ZM1097.74 189.896C1101.1 189.896 1104.09 186.238 1104.09 183.098V182.279H1102.9C1098.79 182.279 1094.08 183.472 1094.08 186.684C1094.08 188.474 1095.2 189.896 1097.74 189.896Z" fill="#0D6EFD"/>
<path d="M1125.3 145.449H1138.22V182.949C1138.22 186.607 1138.9 187.878 1141.81 187.878C1142.63 187.878 1143.37 187.805 1143.37 187.805V199.008C1143.37 199.008 1141.58 199.231 1139.49 199.231C1132.62 199.231 1125.29 197.586 1125.29 184.666V145.449H1125.3Z" fill="#0D6EFD"/>
</svg>
